<svg xmlns="http://www.w3.org/2000/svg" xmlns:xlink="http://www.w3.org/1999/xlink" width="500" zoomAndPan="magnify" viewBox="0 0 375 374.999991" height="500" preserveAspectRatio="xMidYMid meet" version="1.0"><defs><clipPath id="eab3362eff"><path d="M 111 109.011719 L 262.902344 109.011719 L 262.902344 266.160156 L 111 266.160156 Z M 111 109.011719 " clip-rule="nonzero"/></clipPath><clipPath id="daf89b9bfc"><path d="M 164.332031 122.925781 C 167.417969 121.40625 168.800781 130.480469 167.785156 130.984375 C 166.679688 131.539062 160.648438 124.722656 159.359375 122.832031 C 158.804688 122.050781 158.714844 121.683594 158.527344 120.898438 C 158.253906 119.792969 158.160156 117.859375 158.296875 116.707031 C 158.390625 115.878906 158.574219 115.417969 158.945312 114.679688 C 159.496094 113.667969 160.695312 112.148438 161.570312 111.410156 C 162.167969 110.902344 162.628906 110.628906 163.410156 110.351562 C 164.46875 109.9375 166.175781 109.523438 167.554688 109.613281 C 168.890625 109.707031 170.410156 110.167969 171.5625 110.902344 C 172.714844 111.59375 174.648438 113.667969 174.464844 113.898438 C 174.1875 114.265625 165.4375 110.214844 165.574219 109.707031 C 165.761719 109.152344 174.003906 109.796875 177.183594 111.226562 C 179.992188 112.515625 182.066406 114.957031 184 117.261719 C 185.980469 119.65625 187.914062 122.511719 189.019531 125.367188 C 190.078125 128.128906 190.261719 130.570312 190.679688 134.117188 C 191.324219 139.367188 191.691406 146.828125 191.785156 154.015625 C 191.875 162.488281 192.105469 174.464844 190.816406 181.695312 C 189.941406 186.578125 187.175781 189.941406 186.855469 193.671875 C 186.578125 196.851562 187.914062 199.152344 188.097656 202.699219 C 188.375 207.628906 187.59375 214.492188 187.730469 220.570312 C 187.867188 226.878906 189.25 234.664062 189.019531 239.914062 C 188.882812 243.554688 188.375 246.132812 187.636719 249.082031 C 186.902344 251.9375 186.257812 254.929688 184.597656 257.28125 C 182.894531 259.71875 180.085938 261.976562 177.367188 263.453125 C 174.742188 264.878906 171.65625 265.890625 168.617188 266.03125 C 165.4375 266.167969 161.246094 265.523438 158.667969 263.910156 C 156.316406 262.484375 154.566406 259.8125 153.417969 257.371094 C 152.265625 254.929688 153.460938 250.140625 151.851562 249.171875 C 150.191406 248.160156 146.371094 251.335938 143.558594 251.613281 C 140.703125 251.890625 137.433594 252.121094 134.808594 250.832031 C 131.816406 249.355469 128.5 245.441406 127.117188 242.355469 C 125.917969 239.683594 126.195312 236.738281 126.289062 233.789062 C 126.378906 230.65625 129.003906 226.417969 127.761719 224.070312 C 126.519531 221.675781 121.222656 221.539062 118.640625 219.648438 C 116.246094 217.898438 113.898438 215.78125 112.652344 213.339844 C 111.457031 210.945312 111.042969 207.902344 111.273438 205.09375 C 111.503906 202.007812 112.609375 198.324219 114.449219 195.515625 C 116.429688 192.472656 123.292969 190.078125 123.203125 187.730469 C 123.15625 185.703125 117.71875 184.597656 116.15625 182.25 C 114.589844 179.855469 114.175781 176.675781 113.804688 173.453125 C 113.390625 169.582031 112.609375 163.734375 114.40625 160.554688 C 116.015625 157.699219 121.726562 157.332031 123.15625 154.707031 C 124.445312 152.3125 122.785156 148.765625 123.292969 145.863281 C 123.800781 142.914062 124.675781 139.828125 126.148438 137.15625 C 127.667969 134.394531 130.25 131.953125 132.414062 129.648438 C 134.441406 127.484375 136.191406 124.769531 138.632812 123.617188 C 141.027344 122.464844 144.296875 123.570312 146.96875 122.648438 C 149.824219 121.636719 152.265625 118.824219 155.074219 117.535156 C 157.746094 116.292969 160.554688 114.632812 163.363281 114.957031 C 166.636719 115.324219 170.734375 118.320312 173.359375 120.621094 C 175.617188 122.601562 177.089844 125.042969 178.519531 127.53125 C 179.945312 130.019531 180.914062 132.691406 181.835938 135.5 C 182.800781 138.492188 183.632812 141.71875 184 144.941406 C 184.367188 148.257812 184.183594 151.667969 184.046875 155.121094 C 183.859375 158.757812 183.632812 161.109375 182.984375 166.3125 C 181.511719 178.378906 175.25 212.234375 174.144531 226.328125 C 173.542969 233.972656 175.570312 239.179688 173.957031 244.058594 C 172.578125 248.207031 169.628906 253.59375 166.496094 254.332031 C 163.363281 255.070312 157.976562 252.304688 155.167969 248.574219 C 150.699219 242.632812 150.144531 224.992188 149.316406 216.886719 C 148.808594 211.910156 149.085938 208.640625 149.039062 204.773438 C 148.996094 201.179688 148.765625 197.957031 149.039062 194.410156 C 149.363281 190.632812 150.007812 187.085938 150.929688 182.710938 C 152.125 177 154.84375 168.617188 155.949219 163.226562 C 156.734375 159.449219 155.902344 156.132812 157.46875 153.554688 C 158.988281 151.019531 163.457031 147.015625 165.070312 147.84375 C 167.972656 149.316406 165.070312 171.703125 164.746094 178.933594 C 164.5625 182.847656 164.425781 184.320312 164.011719 187.960938 C 163.363281 193.578125 162.167969 201.59375 160.878906 209.378906 C 159.3125 218.683594 158.757812 233.789062 155.074219 240.007812 C 152.910156 243.644531 149.777344 246.179688 146.738281 246.824219 C 143.882812 247.421875 139.875 246.039062 137.480469 244.199219 C 135.039062 242.355469 133.425781 238.671875 132.367188 235.632812 C 131.355469 232.683594 131.492188 230.242188 131.214844 226.328125 C 130.753906 219.648438 128.914062 199.796875 130.710938 199.199219 C 131.722656 198.875 133.335938 205.277344 135.636719 206.339844 C 137.988281 207.445312 143.328125 204.589844 144.710938 205.507812 C 145.449219 205.96875 145.496094 206.984375 145.496094 207.902344 C 145.496094 209.148438 144.710938 211.21875 144.160156 212.371094 C 143.742188 213.199219 143.421875 213.660156 142.730469 214.261719 C 141.808594 215.136719 140.199219 216.242188 138.769531 216.703125 C 137.339844 217.160156 135.589844 217.300781 134.117188 217.070312 C 132.644531 216.839844 131.03125 216.148438 129.835938 215.226562 C 128.636719 214.304688 127.53125 212.695312 126.933594 211.589844 C 126.519531 210.804688 126.332031 210.113281 126.195312 209.332031 C 126.058594 208.550781 125.964844 208.042969 126.011719 206.984375 C 126.101562 204.726562 126.792969 200.582031 127.898438 196.574219 C 129.511719 190.863281 134.671875 182.941406 135.820312 176.167969 C 136.882812 169.90625 134.902344 162.488281 135.085938 157.421875 C 135.175781 153.96875 135.269531 151.066406 136.007812 148.671875 C 136.605469 146.785156 137.800781 145.078125 138.632812 143.929688 C 139.183594 143.191406 139.507812 142.730469 140.242188 142.222656 C 141.304688 141.488281 143.007812 140.519531 144.527344 140.242188 C 146 139.96875 147.980469 140.199219 149.226562 140.472656 C 150.101562 140.703125 150.699219 141.027344 151.390625 141.441406 C 152.082031 141.855469 152.679688 142.179688 153.277344 142.867188 C 154.152344 143.789062 155.304688 145.402344 155.765625 146.828125 C 156.226562 148.257812 156.273438 149.546875 156.085938 151.527344 C 155.765625 155.074219 153.230469 161.890625 152.3125 166.265625 C 151.574219 169.675781 151.113281 172.714844 150.746094 175.523438 C 150.46875 177.875 150.605469 180.5 150.238281 182.066406 C 150.007812 182.984375 149.871094 183.492188 149.410156 184.230469 C 148.765625 185.289062 147.519531 186.855469 146.277344 187.683594 C 145.035156 188.511719 143.421875 189.113281 141.902344 189.296875 C 140.425781 189.480469 138.675781 189.25 137.296875 188.699219 C 135.867188 188.144531 134.484375 187.175781 133.472656 186.027344 C 132.503906 184.921875 131.722656 183.125 131.355469 181.925781 C 131.078125 181.050781 130.984375 180.589844 131.078125 179.578125 C 131.308594 177.503906 132.921875 173.222656 134.117188 170.367188 C 135.222656 167.695312 136.144531 165.160156 137.988281 162.949219 C 140.011719 160.464844 142.824219 157.652344 146.046875 156.457031 C 149.546875 155.121094 155.304688 155.488281 158.484375 155.902344 C 160.507812 156.179688 161.9375 156.640625 163.363281 157.378906 C 164.746094 158.113281 166.128906 159.082031 167.050781 160.277344 C 167.972656 161.476562 168.707031 163.089844 168.984375 164.5625 C 169.261719 166.035156 169.03125 167.972656 168.707031 169.214844 C 168.476562 170.089844 168.246094 170.640625 167.742188 171.378906 C 167.003906 172.4375 165.484375 173.957031 164.425781 174.695312 C 163.6875 175.203125 163.136719 175.433594 162.257812 175.664062 C 161.015625 175.984375 157.652344 176.261719 157.5625 175.9375 C 157.46875 175.523438 166.359375 172.023438 166.449219 172.207031 C 166.542969 172.394531 161.152344 176.167969 158.621094 176.859375 C 156.503906 177.414062 154.246094 177.183594 152.449219 176.722656 C 150.882812 176.308594 149.269531 175.386719 148.257812 174.601562 C 147.519531 174.050781 147.105469 173.636719 146.644531 172.851562 C 145.953125 171.746094 145.171875 169.722656 144.941406 168.476562 C 144.757812 167.601562 144.757812 167.003906 144.894531 166.128906 C 145.125 164.886719 145.679688 162.949219 146.507812 161.707031 C 147.382812 160.417969 148.671875 159.265625 150.007812 158.527344 C 151.34375 157.792969 152.679688 158.207031 154.523438 157.378906 C 158.113281 155.71875 164.839844 151.113281 169.078125 147.105469 C 173.269531 143.144531 177.273438 138.03125 179.855469 133.609375 C 181.925781 130.019531 181.742188 126.472656 184.089844 123.0625 C 187.039062 118.78125 193.074219 112.839844 197.265625 110.8125 C 200.121094 109.429688 202.792969 109.246094 205.601562 109.476562 C 208.503906 109.707031 211.863281 110.628906 214.351562 112.285156 C 216.886719 113.988281 219.003906 117.03125 220.617188 119.699219 C 222.136719 122.234375 222.964844 125.042969 223.933594 127.808594 C 224.898438 130.570312 226.789062 136.144531 226.375 136.328125 C 225.960938 136.511719 223.75 130.019531 221.492188 129.050781 C 219.234375 128.082031 213.246094 131.492188 212.742188 130.617188 C 212.234375 129.742188 216.148438 125.183594 218.542969 123.753906 C 220.894531 122.328125 224.164062 122.050781 226.972656 121.957031 C 229.78125 121.867188 232.960938 122.1875 235.492188 123.292969 C 238.027344 124.398438 240.421875 126.472656 242.265625 128.636719 C 244.105469 130.800781 245.488281 133.519531 246.5 136.191406 C 247.515625 138.90625 248.023438 141.949219 248.34375 144.804688 C 248.621094 147.566406 247.191406 150.789062 248.34375 153.140625 C 249.632812 155.765625 254.5625 156.917969 256.679688 159.402344 C 258.613281 161.707031 261.699219 166.128906 260.871094 167.234375 C 259.765625 168.660156 248.4375 162.257812 246.226562 163.964844 C 244.519531 165.300781 246.410156 172.898438 245.996094 172.992188 C 245.855469 173.039062 245.8125 172.394531 245.488281 172.117188 C 244.75 171.5625 241.941406 171.472656 240.746094 170.917969 C 239.914062 170.503906 239.410156 170.183594 238.761719 169.492188 C 237.84375 168.523438 236.554688 166.910156 236 165.4375 C 235.449219 163.964844 235.308594 162.167969 235.492188 160.601562 C 235.675781 159.035156 236.324219 157.332031 237.242188 156.042969 C 238.164062 154.753906 239.546875 153.554688 240.929688 152.863281 C 242.355469 152.125 243.832031 151.757812 245.671875 151.757812 C 248.25 151.757812 252.535156 152.3125 254.882812 153.921875 C 257.09375 155.441406 258.523438 158.34375 259.488281 160.878906 C 260.457031 163.457031 260.457031 166.589844 260.550781 169.261719 C 260.640625 171.65625 260.59375 174.511719 260.273438 176.167969 C 260.089844 177.183594 259.90625 177.644531 259.398438 178.472656 C 258.707031 179.625 257.417969 181.191406 256.128906 182.109375 C 254.839844 182.984375 253.132812 183.675781 251.566406 183.863281 C 250.003906 184.046875 248.207031 183.816406 246.730469 183.261719 C 245.257812 182.710938 243.644531 181.421875 242.726562 180.5 C 242.078125 179.855469 241.710938 179.347656 241.34375 178.472656 C 240.789062 177.273438 239.730469 175.433594 240.144531 173.726562 C 240.835938 170.964844 245.488281 165.160156 248.527344 164.46875 C 251.0625 163.871094 254.929688 165.484375 256.632812 167.648438 C 258.660156 170.226562 259.765625 177.089844 258.429688 180.128906 C 257.28125 182.757812 253.316406 184.277344 250.507812 185.425781 C 247.835938 186.53125 242.308594 187.59375 242.078125 187.039062 C 241.804688 186.394531 250.046875 180.636719 250.648438 181.144531 C 251.199219 181.652344 248.296875 188.789062 246.457031 189.066406 C 244.476562 189.386719 238.535156 182.664062 238.949219 181.878906 C 239.363281 181.144531 245.121094 182.570312 247.929688 183.953125 C 250.96875 185.472656 254.285156 188.28125 256.402344 190.910156 C 258.292969 193.257812 259.488281 195.929688 260.457031 198.644531 C 261.425781 201.410156 262.53125 204.496094 262.160156 207.488281 C 261.699219 210.898438 259.675781 215.597656 257.140625 217.992188 C 254.792969 220.203125 250.738281 220.019531 247.976562 221.769531 C 245.257812 223.472656 241.804688 228.859375 240.699219 228.308594 C 239.546875 227.753906 240.421875 218.359375 241.390625 218.128906 C 242.402344 217.898438 245.671875 223.933594 246.6875 227.019531 C 247.652344 229.875 247.605469 232.867188 247.605469 235.953125 C 247.605469 239.269531 247.976562 243.460938 246.410156 246.316406 C 244.796875 249.21875 241.433594 251.796875 237.796875 253.132812 C 233.28125 254.792969 224.667969 251.84375 220.847656 253.777344 C 218.082031 255.160156 217.621094 258.890625 215.410156 260.550781 C 213.199219 262.160156 210.4375 263.265625 207.582031 263.683594 C 204.402344 264.140625 200.257812 263.867188 197.125 262.621094 C 193.949219 261.378906 190.722656 258.753906 188.605469 256.082031 C 186.578125 253.503906 185.566406 250.554688 184.460938 247.007812 C 183.03125 242.355469 182.15625 235.953125 181.558594 230.242188 C 180.960938 224.300781 180.683594 218.453125 180.914062 212.003906 C 181.191406 204.679688 183.632812 194.730469 183.539062 188.558594 C 183.445312 184.550781 182.527344 182.433594 182.066406 178.609375 C 181.464844 173.5 180.453125 165.484375 180.5 160.507812 C 180.546875 157.054688 180.820312 154.660156 181.421875 151.710938 C 182.019531 148.625 183.03125 145.265625 184.183594 142.410156 C 185.242188 139.738281 186.070312 137.203125 188.007812 134.992188 C 190.355469 132.320312 194.5 129.328125 197.957031 128.128906 C 201.042969 127.070312 206.109375 126.058594 207.535156 127.53125 C 208.917969 128.960938 207.902344 134.441406 206.753906 136.558594 C 205.878906 138.171875 203.988281 139.644531 202.515625 139.828125 C 201.132812 139.96875 199.476562 138.816406 198.277344 137.847656 C 197.082031 136.882812 196.019531 135.269531 195.421875 134.117188 C 195.007812 133.289062 194.824219 132.734375 194.730469 131.816406 C 194.59375 130.523438 194.640625 128.542969 195.101562 127.117188 C 195.558594 125.6875 196.710938 124.078125 197.585938 123.15625 C 198.1875 122.464844 198.644531 122.140625 199.476562 121.726562 C 200.625 121.128906 202.007812 120.53125 203.988281 120.390625 C 207.535156 120.160156 214.582031 121.589844 219.003906 122.925781 C 222.78125 124.078125 226.050781 125.917969 229.136719 127.53125 C 231.855469 128.960938 234.25 130.109375 236.507812 132 C 238.949219 134.027344 241.804688 136.742188 243.09375 139.550781 C 244.289062 142.132812 244.84375 145.078125 244.289062 147.933594 C 243.644531 151.34375 241.066406 156.363281 238.394531 158.484375 C 236.136719 160.277344 233.007812 160.878906 230.152344 160.925781 C 227.066406 160.96875 222.136719 159.402344 220.476562 158.34375 C 219.742188 157.882812 219.832031 157.332031 219.234375 156.871094 C 218.3125 156.132812 216.195312 155.71875 215.042969 154.753906 C 213.890625 153.785156 212.878906 152.355469 212.324219 150.976562 C 211.773438 149.546875 211.679688 147.613281 211.726562 146.324219 C 211.773438 145.402344 211.863281 144.847656 212.234375 144.019531 C 212.742188 142.867188 213.753906 141.164062 214.859375 140.152344 C 215.964844 139.136719 217.484375 138.261719 218.957031 137.894531 C 220.433594 137.527344 222.414062 136.835938 223.65625 137.847656 C 226.050781 139.78125 227.941406 150.421875 227.25 155.210938 C 226.695312 158.945312 224.855469 161.339844 222.136719 164.609375 C 218.039062 169.582031 208.089844 176.769531 202.835938 180.359375 C 199.566406 182.570312 197.496094 185.011719 194.363281 185.105469 C 190.632812 185.195312 183.585938 182.203125 181.835938 178.980469 C 180.222656 176.03125 181.328125 171.242188 183.214844 167.097656 C 186.117188 160.832031 198.601562 149.59375 201.777344 147.058594 C 202.699219 146.324219 202.929688 146.230469 203.757812 145.910156 C 204.910156 145.496094 206.753906 145.035156 208.226562 145.125 C 209.699219 145.21875 211.40625 145.953125 212.511719 146.554688 C 213.292969 146.96875 213.800781 147.429688 214.304688 147.980469 C 214.859375 148.535156 215.273438 149.039062 215.6875 149.824219 C 216.242188 150.929688 216.933594 152.679688 216.976562 154.152344 C 217.023438 155.628906 216.515625 157.46875 216.054688 158.621094 C 215.734375 159.449219 215.640625 160.003906 214.859375 160.554688 C 213.292969 161.660156 207.675781 160.878906 205.371094 162.488281 C 203.34375 163.917969 202.5625 167.832031 201.363281 169.167969 C 200.71875 169.859375 200.304688 170.136719 199.519531 170.503906 C 198.414062 171.011719 196.574219 171.65625 195.101562 171.65625 C 193.625 171.65625 191.96875 171.289062 190.632812 170.597656 C 189.296875 169.90625 188.050781 168.800781 187.175781 167.601562 C 186.347656 166.40625 185.75 164.5625 185.519531 163.363281 C 185.335938 162.488281 185.425781 161.800781 185.519531 161.0625 C 185.613281 160.277344 185.65625 159.632812 186.027344 158.804688 C 186.53125 157.652344 187.683594 156.59375 188.605469 155.027344 C 189.988281 152.726562 190.953125 148.765625 193.257812 146.183594 C 195.882812 143.238281 200.441406 140.105469 203.941406 138.863281 C 206.796875 137.847656 209.65625 137.710938 212.371094 138.21875 C 215.089844 138.722656 218.175781 140.011719 220.246094 141.949219 C 222.414062 143.972656 223.792969 147.382812 224.855469 150.238281 C 225.867188 153 226.375 155.671875 226.511719 158.804688 C 226.648438 162.628906 225.820312 167.648438 225.085938 171.5625 C 224.4375 174.972656 223.65625 178.011719 222.597656 181.050781 C 221.539062 184 220.433594 186.300781 218.773438 189.527344 C 216.425781 194.132812 212.511719 201.503906 209.425781 205.738281 C 207.167969 208.824219 204.957031 211.726562 202.652344 213.109375 C 201.042969 214.074219 199.292969 214.351562 197.726562 214.351562 C 196.25 214.351562 194.777344 214.03125 193.535156 213.386719 C 192.289062 212.742188 191.09375 211.679688 190.308594 210.53125 C 189.527344 209.378906 188.972656 207.949219 188.789062 206.570312 C 188.605469 205.1875 188.742188 203.574219 189.25 202.285156 C 189.757812 200.996094 190.863281 199.566406 191.691406 198.738281 C 192.289062 198.140625 192.933594 198.324219 193.441406 197.539062 C 194.683594 195.652344 193.949219 189.433594 195.976562 185.195312 C 198.691406 179.53125 205.1875 172.808594 210.390625 167.601562 C 215.320312 162.675781 221.125 156.085938 226.328125 154.660156 C 230.289062 153.554688 235.308594 154.429688 237.980469 156.316406 C 240.285156 157.929688 241.527344 161.199219 242.171875 164.238281 C 242.910156 167.785156 241.621094 172.4375 241.160156 176.585938 C 240.699219 180.777344 240.375 186.394531 239.316406 189.296875 C 238.71875 191 238.074219 192.015625 237.058594 193.027344 C 236.046875 194.039062 234.433594 194.914062 233.328125 195.328125 C 232.546875 195.652344 231.992188 195.746094 231.164062 195.746094 C 229.964844 195.746094 227.984375 195.375 226.878906 194.960938 C 226.097656 194.683594 225.636719 194.410156 224.992188 193.855469 C 224.117188 193.074219 222.828125 191.507812 222.273438 190.449219 C 221.859375 189.710938 221.8125 189.34375 221.582031 188.328125 C 221.03125 185.84375 220.664062 179.253906 219.972656 175.15625 C 219.371094 171.515625 217.714844 167.554688 217.808594 164.886719 C 217.851562 163.136719 218.3125 161.890625 219.003906 160.648438 C 219.695312 159.402344 220.847656 158.207031 222.042969 157.421875 C 223.242188 156.640625 224.761719 156.132812 226.191406 155.996094 C 227.617188 155.859375 229.230469 156.132812 230.566406 156.6875 C 231.902344 157.238281 233.28125 158.4375 234.113281 159.3125 C 234.710938 159.957031 234.894531 160.277344 235.308594 161.199219 C 236.230469 163.363281 237.335938 168.707031 238.117188 172.667969 C 238.949219 176.90625 239.59375 180.960938 240.007812 185.886719 C 240.515625 192.015625 240.746094 200.855469 240.515625 206.570312 C 240.328125 210.574219 240.007812 212.96875 239.363281 216.839844 C 238.488281 222.089844 237.242188 230.195312 235.21875 235.078125 C 233.652344 238.765625 232.039062 242.308594 229.460938 244.152344 C 227.066406 245.855469 223.519531 246.039062 220.523438 246.269531 C 217.53125 246.5 214.535156 245.625 211.542969 245.488281 C 208.503906 245.351562 204.128906 245.074219 202.421875 245.488281 C 201.6875 245.671875 201.546875 246.085938 200.996094 246.269531 C 200.351562 246.5 199.566406 246.59375 198.691406 246.546875 C 197.449219 246.457031 195.558594 246.085938 194.222656 245.394531 C 192.933594 244.707031 191.597656 243.324219 190.816406 242.308594 C 190.261719 241.621094 190.035156 241.113281 189.757812 240.238281 C 189.386719 239.039062 189.019531 237.152344 189.203125 235.675781 C 189.386719 234.203125 190.21875 232.40625 190.863281 231.347656 C 191.324219 230.609375 191.738281 230.195312 192.429688 229.644531 C 193.441406 228.859375 194.871094 227.753906 196.527344 227.523438 C 198.738281 227.203125 203.253906 230.242188 204.726562 229.046875 C 206.429688 227.664062 204.171875 222.273438 205.003906 218.265625 C 206.152344 212.785156 210.945312 205.046875 212.785156 199.566406 C 214.167969 195.46875 214.582031 188.652344 215.6875 188.605469 C 216.839844 188.558594 219.1875 196.066406 219.648438 200.8125 C 220.246094 207.214844 218.265625 217.945312 216.886719 223.75 C 216.011719 227.480469 215.597656 230.335938 213.660156 232.636719 C 211.636719 235.03125 207.902344 236.96875 204.816406 237.75 C 201.871094 238.488281 198.414062 238.394531 195.515625 237.472656 C 192.519531 236.507812 188.789062 233.605469 187.175781 231.945312 C 186.300781 231.027344 185.980469 230.289062 185.613281 229.367188 C 185.242188 228.445312 184.964844 227.433594 184.921875 226.417969 C 184.875 225.453125 184.964844 224.394531 185.242188 223.425781 C 185.519531 222.457031 185.933594 221.492188 186.488281 220.664062 C 187.039062 219.832031 187.730469 219.050781 188.511719 218.453125 C 189.296875 217.851562 190.261719 217.347656 191.183594 217.023438 C 192.152344 216.703125 193.164062 216.472656 194.179688 216.472656 C 195.191406 216.472656 196.25 216.609375 197.171875 216.933594 C 198.140625 217.253906 199.0625 217.761719 199.84375 218.359375 C 200.625 218.957031 201.410156 219.695312 201.960938 220.523438 C 202.515625 221.351562 202.976562 222.273438 203.253906 223.242188 C 203.527344 224.210938 203.621094 225.222656 203.574219 226.234375 C 203.527344 227.25 203.34375 228.308594 202.976562 229.230469 C 202.605469 230.152344 202.101562 231.070312 201.457031 231.808594 C 200.8125 232.589844 200.027344 233.28125 199.152344 233.789062 C 198.324219 234.296875 197.3125 234.710938 196.34375 234.941406 C 195.375 235.171875 194.316406 235.21875 193.347656 235.125 C 192.335938 235.03125 191.324219 234.757812 190.402344 234.34375 C 189.480469 233.925781 188.605469 233.375 187.867188 232.683594 C 187.132812 231.992188 186.488281 231.164062 186.027344 230.289062 C 185.566406 229.414062 185.242188 228.402344 185.058594 227.433594 C 184.875 226.464844 184.875 225.359375 185.011719 224.394531 C 185.152344 223.425781 185.472656 222.414062 185.933594 221.539062 C 186.394531 220.664062 187.039062 219.789062 187.777344 219.097656 C 188.511719 218.40625 189.386719 217.808594 190.261719 217.390625 C 191.183594 216.976562 192.199219 216.65625 193.164062 216.5625 C 194.132812 216.472656 194.960938 216.472656 196.160156 216.703125 C 198.140625 217.070312 203.207031 217.761719 203.667969 219.28125 C 204.171875 220.894531 199.335938 226.648438 198.371094 226.28125 C 196.433594 225.5 200.304688 200.765625 202.148438 191.691406 C 203.390625 185.613281 204.542969 180.589844 206.613281 176.8125 C 208.132812 174.003906 209.699219 171.839844 212.1875 170.367188 C 215.042969 168.707031 219.789062 167.554688 223.195312 168.109375 C 226.511719 168.660156 230.425781 170.917969 232.40625 173.589844 C 234.433594 176.308594 234.941406 180.453125 235.03125 184.460938 C 235.171875 189.433594 233.050781 196.664062 231.855469 201.226562 C 231.027344 204.449219 230.152344 206.660156 229.183594 209.332031 C 228.214844 212.003906 227.480469 214.074219 226.144531 217.300781 C 223.980469 222.503906 219.972656 232.316406 217.023438 237.429688 C 215.042969 240.882812 213.984375 244.058594 211.175781 245.625 C 208.042969 247.375 201.777344 246.824219 198.691406 246.546875 C 196.804688 246.363281 195.375 245.902344 194.222656 245.394531 C 193.441406 245.027344 192.933594 244.707031 192.335938 244.058594 C 191.460938 243.183594 190.261719 241.621094 189.757812 240.238281 C 189.25 238.855469 189.019531 237.152344 189.203125 235.675781 C 189.386719 234.203125 190.21875 232.40625 190.863281 231.347656 C 191.324219 230.609375 191.738281 230.195312 192.429688 229.644531 C 193.441406 228.859375 195.238281 228.03125 196.527344 227.523438 C 197.585938 227.109375 198.1875 226.835938 199.476562 226.605469 C 201.917969 226.191406 206.707031 226.648438 210.070312 226.328125 C 213.109375 226.050781 216.746094 226.972656 218.773438 224.992188 C 221.769531 222.136719 221.769531 211.589844 222.226562 206.613281 C 222.550781 203.296875 222.320312 201.179688 222.273438 198.230469 C 222.226562 194.871094 222.273438 191.09375 221.953125 187.5 C 221.628906 183.90625 220.984375 180.40625 220.339844 176.722656 C 219.648438 172.851562 217.714844 167.832031 217.808594 164.886719 C 217.851562 163.089844 218.3125 161.890625 219.003906 160.648438 C 219.695312 159.402344 220.847656 158.207031 222.042969 157.421875 C 223.242188 156.640625 224.761719 156.132812 226.191406 155.996094 C 227.617188 155.859375 229.230469 156.132812 230.566406 156.6875 C 231.902344 157.238281 233.28125 158.4375 234.113281 159.3125 C 234.710938 159.957031 234.941406 160.324219 235.308594 161.199219 C 236 162.8125 236.691406 165.945312 237.242188 168.570312 C 237.886719 171.5625 238.394531 175.15625 238.808594 178.335938 C 239.179688 181.328125 239.730469 185.195312 239.683594 187.132812 C 239.640625 188.097656 239.59375 188.511719 239.316406 189.296875 C 238.902344 190.402344 237.84375 192.152344 237.058594 193.027344 C 236.507812 193.671875 236.09375 193.996094 235.355469 194.410156 C 234.296875 194.960938 232.363281 195.605469 231.164062 195.746094 C 230.335938 195.835938 229.78125 195.789062 228.953125 195.605469 C 227.800781 195.328125 226.097656 194.730469 224.992188 193.855469 C 223.886719 192.980469 222.875 191.738281 222.273438 190.449219 C 221.675781 189.15625 221.445312 188.097656 221.445312 186.117188 C 221.445312 181.925781 222.273438 167.742188 225.085938 166.496094 C 227.019531 165.667969 233.050781 169.765625 233.144531 171.5625 C 233.238281 173.269531 228.539062 175.019531 226.28125 177 C 223.886719 179.070312 221.628906 181.144531 219.28125 183.769531 C 216.515625 186.902344 213.292969 191.367188 210.945312 194.640625 C 209.101562 197.171875 207.582031 198.875 206.152344 201.59375 C 204.449219 204.910156 203.898438 211.449219 201.871094 213.292969 C 200.671875 214.351562 199.105469 214.351562 197.726562 214.351562 C 196.34375 214.351562 194.777344 214.03125 193.535156 213.386719 C 192.289062 212.742188 191.046875 211.449219 190.308594 210.53125 C 189.804688 209.882812 189.527344 209.425781 189.296875 208.640625 C 188.929688 207.535156 188.699219 205.554688 188.742188 204.402344 C 188.789062 203.574219 188.972656 202.976562 189.25 202.285156 C 189.480469 201.640625 189.757812 201.042969 190.261719 200.398438 C 191 199.476562 192.472656 198.601562 193.441406 197.539062 C 194.410156 196.433594 195.054688 195.421875 196.066406 193.808594 C 197.816406 191.046875 200.8125 186.164062 202.652344 182.109375 C 204.496094 178.058594 206.523438 173.40625 207.074219 169.445312 C 207.535156 166.128906 207.304688 160.277344 206.429688 160.09375 C 205.507812 159.863281 202.792969 167.554688 201.363281 169.167969 C 200.671875 169.90625 200.304688 170.136719 199.519531 170.503906 C 198.414062 171.011719 196.574219 171.65625 195.101562 171.65625 C 193.625 171.65625 191.96875 171.289062 190.632812 170.597656 C 189.296875 169.90625 188.050781 168.800781 187.175781 167.601562 C 186.347656 166.40625 185.703125 164.839844 185.519531 163.363281 C 185.335938 161.890625 185.65625 160.003906 186.027344 158.804688 C 186.300781 157.976562 186.671875 157.421875 187.085938 156.777344 C 187.5 156.132812 187.824219 155.71875 188.605469 155.027344 C 190.171875 153.601562 193.441406 150.835938 196.480469 149.363281 C 199.890625 147.703125 208.179688 145.722656 208.226562 145.816406 C 208.226562 145.863281 200.304688 148.949219 200.121094 148.625 C 199.980469 148.394531 202.652344 146.460938 203.757812 145.910156 C 204.542969 145.539062 205.1875 145.402344 205.921875 145.265625 C 206.660156 145.125 207.351562 145.035156 208.226562 145.125 C 209.46875 145.265625 211.265625 145.769531 212.511719 146.554688 C 213.753906 147.335938 214.949219 148.535156 215.6875 149.824219 C 216.425781 151.066406 216.839844 152.957031 216.976562 154.152344 C 217.070312 155.027344 216.933594 155.671875 216.792969 156.410156 C 216.65625 157.148438 216.425781 157.839844 216.054688 158.621094 C 215.550781 159.679688 214.765625 160.785156 213.753906 162.074219 C 212.234375 164.054688 210.023438 167.28125 207.398438 169.121094 C 204.542969 171.148438 199.613281 174.234375 196.988281 173.359375 C 194.5 172.53125 191.414062 167.1875 191.875 164.746094 C 192.335938 162.304688 197.265625 160.925781 199.890625 158.714844 C 202.652344 156.363281 205.554688 154.015625 207.949219 151.066406 C 210.484375 147.933594 212.695312 140.199219 214.492188 140.425781 C 216.609375 140.703125 220.433594 155.859375 219.234375 156.871094 C 218.589844 157.378906 216.195312 155.71875 215.042969 154.753906 C 213.890625 153.785156 212.878906 152.355469 212.324219 150.976562 C 211.773438 149.546875 211.589844 147.84375 211.726562 146.324219 C 211.863281 144.804688 212.464844 143.144531 213.292969 141.902344 C 214.121094 140.65625 215.457031 139.507812 216.792969 138.769531 C 218.128906 138.03125 220.019531 137.664062 221.308594 137.570312 C 222.226562 137.527344 222.734375 137.527344 223.65625 137.847656 C 225.128906 138.402344 229.183594 140.242188 229.089844 141.347656 C 229 142.636719 223.792969 145.035156 221.078125 145.078125 C 218.265625 145.125 215.550781 142.269531 212.554688 141.394531 C 209.378906 140.472656 205.09375 140.613281 202.515625 139.828125 C 200.765625 139.277344 199.476562 138.816406 198.277344 137.847656 C 197.082031 136.882812 196.019531 135.269531 195.421875 134.117188 C 195.007812 133.289062 194.824219 132.734375 194.730469 131.816406 C 194.59375 130.523438 194.640625 128.542969 195.101562 127.117188 C 195.558594 125.6875 196.710938 124.078125 197.585938 123.15625 C 198.1875 122.464844 198.785156 122.140625 199.476562 121.726562 C 200.167969 121.3125 200.8125 120.945312 201.6875 120.761719 C 202.929688 120.484375 204.632812 120.300781 206.382812 120.578125 C 208.6875 120.945312 211.542969 122.234375 214.121094 123.476562 C 216.839844 124.769531 220.847656 125.734375 222.273438 128.269531 C 223.886719 131.125 223.933594 137.386719 222.183594 140.425781 C 220.433594 143.421875 215.320312 145.078125 211.863281 146.371094 C 208.824219 147.519531 204.773438 146.460938 202.792969 148.257812 C 200.8125 150.054688 200.441406 153.96875 200.027344 157.101562 C 199.566406 160.417969 200.027344 164.054688 200.398438 167.648438 C 200.765625 171.425781 201.824219 175.386719 202.238281 179.117188 C 202.652344 182.664062 202.929688 185.289062 202.882812 189.480469 C 202.835938 196.066406 201.132812 208.226562 200.949219 214.765625 C 200.8125 218.914062 200.765625 221.167969 201.085938 224.992188 C 201.546875 229.921875 201.546875 241.066406 203.898438 241.894531 C 205.832031 242.585938 209.425781 235.585938 212.648438 234.203125 C 215.550781 232.960938 219.050781 233.191406 222.136719 233.375 C 225.085938 233.558594 230.195312 236 230.75 235.125 C 231.300781 234.25 226.417969 230.65625 225.359375 227.941406 C 224.253906 225.128906 223.792969 221.351562 224.394531 218.496094 C 224.945312 215.828125 226.605469 213.246094 228.445312 211.21875 C 230.335938 209.148438 232.960938 207.859375 235.585938 206.292969 C 238.488281 204.542969 243.644531 200.488281 245.210938 201.457031 C 246.777344 202.421875 246.039062 211.679688 245.121094 211.910156 C 243.921875 212.1875 236.460938 197.171875 237.058594 196.757812 C 237.519531 196.433594 244.519531 203.066406 244.058594 203.851562 C 243.601562 204.632812 237.335938 203.207031 234.617188 201.6875 C 231.902344 200.167969 229 197.726562 227.710938 194.824219 C 226.328125 191.691406 226.417969 186.808594 227.15625 183.214844 C 227.847656 179.761719 229.277344 175.984375 231.714844 173.542969 C 234.296875 170.917969 240.46875 167.1875 242.585938 168.292969 C 244.660156 169.351562 242.585938 177.273438 244.519531 179.714844 C 246.132812 181.742188 249.726562 183.445312 252.167969 182.894531 C 255.160156 182.25 259.859375 173.359375 260.550781 173.726562 C 261.011719 173.957031 259.949219 177.273438 259.398438 178.472656 C 258.984375 179.347656 258.660156 179.808594 257.96875 180.5 C 257.003906 181.421875 255.4375 182.710938 253.964844 183.261719 C 252.488281 183.816406 250.691406 184.046875 249.128906 183.863281 C 247.5625 183.675781 245.71875 182.800781 244.566406 182.109375 C 243.785156 181.605469 243.324219 181.234375 242.726562 180.5 C 241.894531 179.441406 241.019531 178.011719 240.46875 176.167969 C 239.640625 173.359375 238.488281 165.253906 239.5 164.839844 C 240.421875 164.46875 245.949219 171.425781 245.488281 172.117188 C 245.164062 172.621094 242.125 171.65625 240.746094 170.917969 C 239.363281 170.183594 238.027344 168.9375 237.152344 167.648438 C 236.277344 166.3125 235.632812 164.609375 235.449219 163.042969 C 235.261719 161.476562 235.675781 159.449219 236.09375 158.207031 C 236.367188 157.332031 236.644531 156.777344 237.242188 156.042969 C 238.074219 155.027344 239.546875 153.554688 240.929688 152.863281 C 242.355469 152.125 244.105469 151.894531 245.671875 151.757812 C 247.144531 151.621094 248.390625 151.527344 250.003906 152.035156 C 252.398438 152.773438 256.265625 154.292969 258.292969 156.777344 C 260.6875 159.726562 262.992188 165.945312 262.4375 169.582031 C 261.976562 172.621094 259.675781 176.125 257.050781 177.414062 C 254.148438 178.839844 249.128906 178.289062 245.304688 176.769531 C 240.652344 174.925781 234.617188 169.582031 231.761719 165.390625 C 229.460938 162.03125 228.628906 158.023438 228.078125 154.566406 C 227.617188 151.621094 227.710938 148.808594 228.125 146.046875 C 228.539062 143.238281 230.980469 138.03125 230.566406 137.847656 C 230.152344 137.664062 227.617188 143.699219 225.3125 145.402344 C 223.105469 147.015625 219.925781 148.257812 217.253906 148.027344 C 214.351562 147.75 210.574219 145.632812 208.550781 143.375 C 206.570312 141.164062 205.277344 137.617188 205.09375 134.761719 C 204.910156 132.046875 207.628906 126.792969 207.214844 126.609375 C 206.753906 126.425781 203.757812 131.261719 202.378906 133.796875 C 200.949219 136.421875 200.625 139.136719 198.738281 142.179688 C 196.019531 146.601562 189.847656 153.230469 186.394531 157.007812 C 184.089844 159.542969 183.03125 160.96875 180.40625 163.042969 C 176.445312 166.175781 168.9375 170.367188 164.195312 172.851562 C 160.695312 174.648438 157.421875 176.769531 154.796875 177 C 153.046875 177.183594 151.390625 176.445312 150.238281 175.9375 C 149.410156 175.570312 148.902344 175.25 148.257812 174.601562 C 147.335938 173.726562 146.09375 172.207031 145.539062 170.78125 C 144.988281 169.351562 144.757812 167.648438 144.894531 166.128906 C 145.035156 164.609375 145.863281 162.8125 146.507812 161.707031 C 146.96875 160.925781 147.382812 160.464844 148.074219 159.910156 C 149.085938 159.128906 150.976562 158.023438 152.171875 157.652344 C 153.046875 157.378906 154.335938 157.054688 154.523438 157.378906 C 154.796875 157.839844 151.527344 161.0625 151.851562 161.429688 C 152.3125 161.984375 159.035156 156.871094 161.109375 156.6875 C 162.074219 156.59375 162.582031 156.960938 163.363281 157.378906 C 164.515625 157.976562 166.222656 159.3125 167.050781 160.277344 C 167.648438 160.96875 167.972656 161.476562 168.292969 162.304688 C 168.753906 163.503906 169.214844 165.390625 169.121094 166.910156 C 169.03125 168.429688 168.523438 170.089844 167.742188 171.378906 C 166.957031 172.667969 165.484375 173.957031 164.425781 174.695312 C 163.6875 175.203125 163.136719 175.433594 162.257812 175.664062 C 161.015625 175.984375 158.757812 176.539062 157.5625 175.9375 C 156.363281 175.339844 155.996094 172.207031 155.074219 172.207031 C 153.785156 172.253906 151.480469 177.460938 150.5625 179.714844 C 149.871094 181.375 149.914062 183.078125 149.410156 184.230469 C 149.039062 185.058594 148.71875 185.519531 148.074219 186.164062 C 147.152344 187.039062 145.632812 188.28125 144.203125 188.789062 C 142.777344 189.296875 141.074219 189.480469 139.597656 189.296875 C 138.078125 189.113281 136.328125 188.238281 135.222656 187.59375 C 134.441406 187.132812 134.027344 186.71875 133.472656 186.027344 C 132.691406 185.011719 131.722656 183.492188 131.355469 181.925781 C 130.894531 180.039062 131.167969 177.78125 131.308594 175.386719 C 131.492188 172.4375 131.816406 169.398438 132.503906 165.574219 C 133.519531 160.140625 136.144531 149.179688 137.433594 146 C 137.894531 144.894531 138.171875 144.574219 138.632812 143.929688 C 139.09375 143.285156 139.507812 142.730469 140.242188 142.222656 C 141.304688 141.488281 143.007812 140.519531 144.527344 140.242188 C 146 139.96875 147.75 140.058594 149.226562 140.472656 C 150.699219 140.886719 152.171875 141.808594 153.277344 142.867188 C 154.382812 143.929688 155.304688 145.402344 155.765625 146.828125 C 156.226562 148.257812 156.226562 150.238281 156.085938 151.527344 C 155.996094 152.449219 155.71875 153.691406 155.398438 153.785156 C 155.167969 153.832031 154.84375 153 154.613281 153.09375 C 153.460938 153.601562 154.9375 174.695312 154.105469 181.328125 C 153.648438 185.011719 153 187.132812 152.082031 189.847656 C 151.207031 192.519531 149.777344 194.683594 148.71875 197.632812 C 147.429688 201.273438 146.371094 207.214844 145.078125 210.207031 C 144.296875 212.003906 143.789062 213.15625 142.730469 214.261719 C 141.671875 215.320312 140.199219 216.242188 138.769531 216.703125 C 137.339844 217.160156 135.589844 217.300781 134.117188 217.070312 C 132.644531 216.839844 131.03125 216.148438 129.835938 215.226562 C 128.636719 214.304688 127.578125 212.96875 126.933594 211.589844 C 126.289062 210.207031 126.011719 208.410156 126.011719 206.984375 C 126.011719 205.691406 126.332031 204.726562 126.703125 203.296875 C 127.253906 201.132812 127.578125 197.726562 129.328125 195.421875 C 131.445312 192.613281 136.234375 188.605469 139.414062 188.511719 C 142.132812 188.421875 145.402344 191 147.199219 193.121094 C 148.902344 195.144531 149.546875 197.769531 150.101562 200.902344 C 150.929688 205.417969 150.835938 212.96875 150.054688 217.851562 C 149.457031 221.722656 148.949219 226.097656 146.738281 228.03125 C 144.710938 229.828125 139.324219 231.210938 137.757812 229.597656 C 134.855469 226.648438 142.222656 206.429688 143.421875 199.015625 C 144.113281 194.777344 144.390625 192.382812 144.757812 188.972656 C 145.125 185.425781 145.355469 182.339844 145.539062 178.011719 C 145.769531 171.65625 145.402344 160.695312 145.679688 154.476562 C 145.863281 150.375 145.769531 147.476562 146.507812 144.34375 C 147.199219 141.394531 147.75 138.21875 149.730469 136.144531 C 151.941406 133.839844 156.546875 132.136719 159.863281 131.675781 C 162.765625 131.261719 165.851562 131.539062 168.429688 132.828125 C 171.289062 134.253906 174.601562 137.570312 175.984375 140.519531 C 177.273438 143.285156 176.953125 146.644531 176.953125 149.777344 C 176.953125 153 176.628906 155.535156 175.9375 159.589844 C 174.789062 166.449219 170.6875 179.855469 169.445312 187.039062 C 168.660156 191.597656 168.386719 193.949219 168.203125 198.371094 C 167.972656 204.449219 168.203125 214.214844 168.984375 220.246094 C 169.535156 224.578125 170.871094 227.570312 171.425781 231.347656 C 172.023438 235.261719 174.375 241.804688 172.4375 243.324219 C 170.042969 245.210938 157.007812 240.652344 154.613281 237.242188 C 152.910156 234.847656 154.566406 231.257812 154.753906 228.03125 C 154.9375 224.394531 155.210938 221.859375 155.8125 216.5625 C 157.191406 204.542969 163.136719 169.167969 163.871094 157.652344 C 164.195312 152.910156 164.238281 150.789062 163.824219 147.566406 C 163.410156 144.433594 162.765625 141.304688 161.429688 138.539062 C 160.046875 135.730469 155.027344 131.722656 155.671875 130.800781 C 156.363281 129.789062 166.222656 132.046875 166.589844 133.566406 C 166.910156 134.902344 162.8125 137.757812 160.140625 138.953125 C 156.917969 140.382812 151.066406 138.722656 148.121094 140.613281 C 145.449219 142.316406 144.203125 145.679688 142.824219 149.132812 C 140.980469 153.691406 141.902344 162.398438 139.230469 165.992188 C 137.203125 168.707031 132 171.5625 130.523438 170.734375 C 129.144531 169.953125 129.375 162.304688 130.0625 162.074219 C 130.847656 161.84375 133.378906 168.476562 135.453125 171.195312 C 137.386719 173.726562 140.703125 175.292969 142.039062 177.917969 C 143.375 180.546875 143.699219 183.816406 143.558594 186.902344 C 143.421875 190.21875 142.960938 194.453125 140.886719 197.21875 C 138.632812 200.304688 129.648438 202.378906 129.835938 204.035156 C 129.972656 205.417969 135.914062 205.1875 138.308594 206.84375 C 140.75 208.550781 142.59375 211.21875 144.203125 214.167969 C 146.09375 217.621094 149.410156 223.609375 148.441406 226.558594 C 147.613281 229 140.980469 230.75 141.210938 231.488281 C 141.441406 232.222656 146.921875 230.933594 149.777344 231.117188 C 152.679688 231.300781 155.859375 231.578125 158.527344 232.730469 C 161.199219 233.925781 164.195312 235.863281 165.804688 238.210938 C 167.417969 240.515625 167.648438 246.730469 168.246094 246.6875 C 168.847656 246.640625 169.398438 240.652344 169.398438 237.660156 C 169.398438 234.664062 168.429688 232.546875 168.246094 228.722656 C 167.925781 222 168.292969 209.238281 168.984375 200.855469 C 169.582031 193.855469 171.011719 188.652344 171.65625 181.695312 C 172.4375 173.40625 172.992188 162.765625 173.039062 154.429688 C 173.082031 147.335938 173.453125 139.691406 172.300781 134.714844 C 171.5625 131.445312 170.871094 128.867188 168.9375 126.933594 C 166.773438 124.769531 160.96875 124.675781 159.359375 122.832031 C 158.34375 121.683594 158.296875 119.976562 158.160156 118.824219 C 158.066406 117.996094 158.113281 117.492188 158.296875 116.707031 C 158.574219 115.601562 159.402344 113.804688 160.046875 112.882812 C 160.507812 112.238281 161.015625 111.824219 161.570312 111.410156 C 162.121094 110.996094 162.628906 110.628906 163.410156 110.351562 C 164.46875 109.9375 166.175781 109.523438 167.554688 109.613281 C 168.890625 109.707031 170.410156 110.167969 171.5625 110.902344 C 172.714844 111.59375 174.28125 114.035156 174.464844 113.898438 C 174.558594 113.851562 173.957031 112.652344 174.050781 112.609375 C 174.328125 112.46875 179.855469 117.582031 180.589844 120.851562 C 181.421875 124.492188 179.300781 131.03125 177.644531 133.65625 C 176.628906 135.222656 174.925781 136.007812 173.820312 136.605469 C 173.128906 137.019531 172.714844 137.203125 171.933594 137.339844 C 170.871094 137.527344 168.984375 137.527344 167.925781 137.339844 C 167.140625 137.203125 166.636719 136.925781 166.035156 136.605469 C 165.4375 136.28125 164.929688 136.050781 164.378906 135.5 C 163.59375 134.714844 162.535156 133.378906 162.074219 132.183594 C 161.613281 130.941406 161.429688 129.464844 161.570312 128.175781 C 161.707031 126.886719 162.445312 125.367188 162.996094 124.445312 C 163.410156 123.800781 164.332031 122.925781 164.332031 122.925781 " clip-rule="nonzero"/></clipPath><clipPath id="ca3b297d08"><path d="M 107.65625 106.128906 L 191 106.128906 L 191 268.878906 L 107.65625 268.878906 Z M 107.65625 106.128906 " clip-rule="nonzero"/></clipPath><clipPath id="c6a0d24d77"><path d="M 184 106.128906 L 267.40625 106.128906 L 267.40625 268.878906 L 184 268.878906 Z M 184 106.128906 " clip-rule="nonzero"/></clipPath><clipPath id="198f441c35"><path d="M 183.253906 118.101562 L 185.019531 118.101562 L 185.019531 119.601562 L 183.253906 119.601562 Z M 183.253906 118.101562 " clip-rule="nonzero"/></clipPath><clipPath id="ed8ed9e6c5"><path d="M 185.011719 118.640625 C 184.230469 119.886719 183.539062 119.65625 183.355469 119.378906 C 183.171875 119.101562 183.308594 118.367188 183.539062 118.179688 C 183.769531 117.996094 184.78125 118.273438 184.78125 118.273438 " clip-rule="nonzero"/></clipPath><clipPath id="e277a0ecff"><path d="M 178 252 L 185 252 L 185 262 L 178 262 Z M 178 252 " clip-rule="nonzero"/></clipPath><clipPath id="ff9b9d1ab7"><path d="M 185.292969 253.121094 L 181.257812 262 L 178.527344 260.757812 L 182.558594 251.878906 Z M 185.292969 253.121094 " clip-rule="nonzero"/></clipPath><clipPath id="69dd4c731f"><path d="M 185.292969 253.121094 L 181.257812 262 L 178.527344 260.757812 L 182.558594 251.878906 Z M 185.292969 253.121094 " clip-rule="nonzero"/></clipPath><clipPath id="c61bd47111"><path d="M 190 251 L 196 251 L 196 261 L 190 261 Z M 190 251 " clip-rule="nonzero"/></clipPath><clipPath id="fd0cee5659"><path d="M 192.59375 250.847656 L 195.847656 260.039062 L 193.019531 261.039062 L 189.765625 251.847656 Z M 192.59375 250.847656 " clip-rule="nonzero"/></clipPath><clipPath id="b18b6e891a"><path d="M 189.667969 251.882812 L 192.917969 261.074219 L 195.746094 260.074219 L 192.496094 250.882812 Z M 189.667969 251.882812 " clip-rule="nonzero"/></clipPath><clipPath id="9b8d813f47"><path d="M 178 113 L 185 113 L 185 123 L 178 123 Z M 178 113 " clip-rule="nonzero"/></clipPath><clipPath id="faffd65235"><path d="M 181.3125 113.070312 L 185.199219 122.011719 L 182.445312 123.207031 L 178.558594 114.265625 Z M 181.3125 113.070312 " clip-rule="nonzero"/></clipPath><clipPath id="251b4bec98"><path d="M 181.3125 113.070312 L 185.199219 122.011719 L 182.445312 123.207031 L 178.558594 114.265625 Z M 181.3125 113.070312 " clip-rule="nonzero"/></clipPath><clipPath id="51d114977d"><path d="M 190 112 L 197 112 L 197 122 L 190 122 Z M 190 112 " clip-rule="nonzero"/></clipPath><clipPath id="87e22f690c"><path d="M 189.832031 120.949219 L 194.542969 112.414062 L 197.171875 113.863281 L 192.457031 122.398438 Z M 189.832031 120.949219 " clip-rule="nonzero"/></clipPath><clipPath id="fabeb626b9"><path d="M 189.832031 120.949219 L 194.542969 112.414062 L 197.171875 113.863281 L 192.457031 122.398438 Z M 189.832031 120.949219 " clip-rule="nonzero"/></clipPath><clipPath id="d9f40ad137"><path d="M 140.414062 175.601562 L 181.28125 175.601562 L 181.28125 219.917969 L 140.414062 219.917969 Z M 140.414062 175.601562 " clip-rule="nonzero"/></clipPath><clipPath id="4a886a71df"><path d="M 192.796875 202.394531 L 222.851562 202.394531 L 222.851562 246.710938 L 192.796875 246.710938 Z M 192.796875 202.394531 " clip-rule="nonzero"/></clipPath><clipPath id="f18027cbd0"><path d="M 193.925781 144.054688 L 234.449219 144.054688 L 234.449219 187.753906 L 193.925781 187.753906 Z M 193.925781 144.054688 " clip-rule="nonzero"/></clipPath></defs><g clip-path="url(#eab3362eff)"><g clip-path="url(#daf89b9bfc)"><path fill="#ffa7b4" d="M 109.429688 107.632812 L 264.28125 107.632812 L 264.28125 267.996094 L 109.429688 267.996094 Z M 109.429688 107.632812 " fill-opacity="1" fill-rule="nonzero"/></g></g><g clip-path="url(#ca3b297d08)"><path fill="#211f1e" d="M 151.878906 247.347656 C 152.332031 247.347656 152.785156 247.453125 153.203125 247.660156 C 154.085938 248.097656 154.695312 248.949219 154.828125 249.929688 C 155.808594 257.335938 162.15625 262.917969 169.582031 262.917969 C 177.839844 262.917969 184.550781 256.207031 184.550781 247.957031 L 184.550781 127.039062 C 184.550781 118.789062 177.839844 112.074219 169.582031 112.074219 C 162.15625 112.074219 155.808594 117.660156 154.828125 125.066406 C 154.695312 126.042969 154.085938 126.894531 153.203125 127.335938 C 152.320312 127.773438 151.28125 127.753906 150.414062 127.257812 C 148.074219 125.933594 145.617188 125.265625 143.109375 125.265625 C 134.851562 125.265625 128.140625 131.976562 128.140625 140.230469 C 128.140625 143.71875 129.378906 147.027344 131.710938 149.800781 C 132.476562 150.703125 132.628906 151.972656 132.105469 153.035156 C 131.578125 154.09375 130.429688 154.757812 129.296875 154.683594 C 129.207031 154.679688 128.734375 154.628906 128.640625 154.617188 C 128.632812 154.617188 128.621094 154.617188 128.609375 154.617188 C 120.296875 154.617188 113.59375 161.324219 113.59375 169.5625 C 113.59375 177.8125 120.308594 184.527344 128.566406 184.527344 C 130.207031 184.527344 131.539062 185.855469 131.539062 187.5 C 131.539062 189.140625 130.207031 190.46875 128.566406 190.46875 C 120.308594 190.46875 113.59375 197.183594 113.59375 205.429688 C 113.59375 213.679688 120.308594 220.390625 128.566406 220.390625 L 129.296875 220.308594 C 130.441406 220.207031 131.578125 220.902344 132.105469 221.957031 C 132.628906 223.019531 132.476562 224.285156 131.71875 225.191406 C 129.378906 227.964844 128.140625 231.277344 128.140625 234.769531 C 128.140625 243.015625 134.851562 249.730469 143.109375 249.730469 C 145.617188 249.730469 148.074219 249.058594 150.414062 247.734375 C 150.867188 247.476562 151.371094 247.347656 151.878906 247.347656 Z M 169.582031 268.863281 C 160.507812 268.863281 152.585938 262.917969 149.804688 254.523438 C 147.632812 255.285156 145.390625 255.671875 143.109375 255.671875 C 131.578125 255.671875 122.195312 246.292969 122.195312 234.769531 C 122.195312 231.652344 122.886719 228.648438 124.222656 225.882812 C 114.769531 223.882812 107.648438 215.46875 107.648438 205.429688 C 107.648438 197.824219 111.730469 191.15625 117.820312 187.5 C 111.730469 183.839844 107.648438 177.167969 107.648438 169.5625 C 107.648438 159.523438 114.769531 151.113281 124.222656 149.109375 C 122.886719 146.347656 122.195312 143.34375 122.195312 140.230469 C 122.195312 128.703125 131.578125 119.320312 143.109375 119.320312 C 145.390625 119.320312 147.632812 119.707031 149.804688 120.46875 C 152.585938 112.078125 160.507812 106.132812 169.582031 106.132812 C 181.113281 106.132812 190.496094 115.511719 190.496094 127.039062 L 190.496094 247.957031 C 190.496094 259.484375 181.113281 268.863281 169.582031 268.863281 " fill-opacity="1" fill-rule="nonzero"/></g><g clip-path="url(#c6a0d24d77)"><path fill="#211f1e" d="M 205.460938 112.074219 C 197.210938 112.074219 190.496094 118.789062 190.496094 127.039062 L 190.496094 247.957031 C 190.496094 256.207031 197.210938 262.917969 205.460938 262.917969 C 212.886719 262.917969 219.234375 257.335938 220.21875 249.929688 C 220.347656 248.949219 220.960938 248.097656 221.84375 247.660156 C 222.730469 247.226562 223.777344 247.246094 224.628906 247.734375 C 226.96875 249.058594 229.425781 249.730469 231.933594 249.730469 C 240.191406 249.730469 246.902344 243.015625 246.902344 234.769531 C 246.902344 231.277344 245.667969 227.964844 243.332031 225.191406 C 242.574219 224.285156 242.421875 223.015625 242.945312 221.957031 C 243.464844 220.898438 244.570312 220.195312 245.753906 220.308594 C 245.839844 220.3125 246.324219 220.363281 246.410156 220.378906 C 246.421875 220.378906 246.433594 220.378906 246.4375 220.378906 C 254.75 220.378906 261.449219 213.671875 261.449219 205.429688 C 261.449219 197.183594 254.738281 190.46875 246.480469 190.46875 C 244.835938 190.46875 243.507812 189.140625 243.507812 187.5 C 243.507812 185.855469 244.835938 184.527344 246.480469 184.527344 C 254.738281 184.527344 261.449219 177.8125 261.449219 169.5625 C 261.449219 161.3125 254.738281 154.601562 246.480469 154.601562 C 246.195312 154.648438 245.976562 154.671875 245.753906 154.683594 C 244.582031 154.765625 243.464844 154.09375 242.945312 153.039062 C 242.421875 151.976562 242.574219 150.707031 243.332031 149.804688 C 245.667969 147.027344 246.902344 143.714844 246.902344 140.230469 C 246.902344 131.976562 240.191406 125.265625 231.933594 125.265625 C 229.425781 125.265625 226.96875 125.933594 224.628906 127.257812 C 223.769531 127.746094 222.726562 127.769531 221.84375 127.335938 C 220.960938 126.894531 220.347656 126.042969 220.21875 125.066406 C 219.234375 117.660156 212.886719 112.074219 205.460938 112.074219 Z M 205.460938 268.863281 C 193.929688 268.863281 184.550781 259.484375 184.550781 247.957031 L 184.550781 127.039062 C 184.550781 115.511719 193.929688 106.132812 205.460938 106.132812 C 214.539062 106.132812 222.457031 112.078125 225.238281 120.46875 C 227.410156 119.707031 229.652344 119.320312 231.933594 119.320312 C 243.464844 119.320312 252.847656 128.703125 252.847656 140.230469 C 252.847656 143.34375 252.160156 146.347656 250.824219 149.109375 C 260.28125 151.113281 267.394531 159.523438 267.394531 169.5625 C 267.394531 177.167969 263.3125 183.839844 257.222656 187.5 C 263.3125 191.15625 267.394531 197.824219 267.394531 205.429688 C 267.394531 215.46875 260.277344 223.878906 250.824219 225.882812 C 252.160156 228.648438 252.847656 231.652344 252.847656 234.769531 C 252.847656 246.292969 243.464844 255.671875 231.933594 255.671875 C 229.652344 255.671875 227.410156 255.285156 225.238281 254.523438 C 222.457031 262.917969 214.539062 268.863281 205.460938 268.863281 " fill-opacity="1" fill-rule="nonzero"/></g><path fill="#211f1e" d="M 151.9375 171.171875 C 150.292969 171.171875 148.964844 169.839844 148.964844 168.199219 C 148.964844 155.609375 128.644531 154.605469 128.4375 154.597656 C 126.800781 154.527344 125.527344 153.144531 125.589844 151.503906 C 125.660156 149.863281 126.753906 148.550781 128.691406 148.660156 C 129.761719 148.703125 154.910156 149.976562 154.910156 168.199219 C 154.910156 169.839844 153.578125 171.171875 151.9375 171.171875 " fill-opacity="1" fill-rule="nonzero"/><path fill="#211f1e" d="M 156.640625 215.855469 C 154.996094 215.855469 153.667969 214.527344 153.667969 212.882812 C 153.667969 206.773438 155.75 201.691406 159.867188 197.765625 C 169.511719 188.582031 186.945312 189.300781 187.664062 189.335938 C 189.308594 189.414062 190.566406 190.804688 190.492188 192.445312 C 190.417969 194.078125 189.042969 195.433594 187.386719 195.273438 C 187.230469 195.277344 171.730469 194.652344 163.960938 202.078125 C 161.035156 204.875 159.613281 208.40625 159.613281 212.882812 C 159.613281 214.527344 158.28125 215.855469 156.640625 215.855469 " fill-opacity="1" fill-rule="nonzero"/><path fill="#211f1e" d="M 213.40625 232.910156 C 211.761719 232.910156 210.433594 231.582031 210.433594 229.9375 C 210.433594 227.914062 209.636719 227.066406 208.945312 226.554688 C 205.003906 223.640625 194.242188 225.394531 188.394531 227.191406 C 186.847656 227.679688 185.160156 226.796875 184.6875 225.222656 C 184.203125 223.65625 185.082031 221.992188 186.652344 221.507812 C 188.496094 220.949219 204.882812 216.15625 212.484375 221.773438 C 215.03125 223.65625 216.378906 226.480469 216.378906 229.9375 C 216.378906 231.582031 215.046875 232.910156 213.40625 232.910156 " fill-opacity="1" fill-rule="nonzero"/><path fill="#211f1e" d="M 246.480469 226.335938 C 246.265625 226.335938 246.050781 226.3125 245.828125 226.261719 C 244.960938 226.070312 224.519531 221.289062 224.519531 204.378906 C 224.519531 202.738281 225.847656 201.410156 227.492188 201.410156 C 229.136719 201.410156 230.464844 202.738281 230.464844 204.378906 C 230.464844 216.585938 246.960938 220.425781 247.128906 220.464844 C 248.734375 220.824219 249.742188 222.414062 249.382812 224.015625 C 249.070312 225.398438 247.84375 226.335938 246.480469 226.335938 " fill-opacity="1" fill-rule="nonzero"/><path fill="#211f1e" d="M 202.914062 171.675781 C 193.820312 171.675781 186.429688 167.46875 186.03125 167.238281 C 184.617188 166.417969 184.132812 164.605469 184.953125 163.183594 C 185.773438 161.757812 187.578125 161.28125 189.011719 162.09375 C 189.117188 162.152344 199.457031 167.976562 209.324219 164.75 C 215.207031 162.820312 219.890625 158.003906 223.253906 150.425781 C 223.921875 148.921875 225.691406 148.246094 227.171875 148.914062 C 228.675781 149.578125 229.355469 151.332031 228.6875 152.832031 C 224.613281 162.039062 218.703125 167.953125 211.125 170.414062 C 208.332031 171.324219 205.550781 171.675781 202.914062 171.675781 " fill-opacity="1" fill-rule="nonzero"/><path stroke-linecap="round" transform="matrix(0.000000001309, 0.75, -0.75, 0.000000001309, 192.747546, 116.011749)" fill="none" stroke-linejoin="miter" d="M 6.99996 7.001937 L 182.677055 7.001937 " stroke="#211f1e" stroke-width="14" stroke-opacity="1" stroke-miterlimit="4"/><g clip-path="url(#198f441c35)"><g clip-path="url(#ed8ed9e6c5)"><path fill="#231f20" d="M 181.511719 116.339844 L 186.84375 116.339844 L 186.84375 121.589844 L 181.511719 121.589844 Z M 181.511719 116.339844 " fill-opacity="1" fill-rule="nonzero"/></g></g><g clip-path="url(#e277a0ecff)"><g clip-path="url(#ff9b9d1ab7)"><g clip-path="url(#69dd4c731f)"><path fill="#211f1e" d="M 182.152344 252.660156 C 182.082031 252.664062 182.050781 252.699219 182.066406 252.773438 C 182.257812 253.8125 182.019531 255.304688 181.335938 256.808594 C 180.648438 258.3125 179.683594 259.476562 178.773438 260.015625 C 178.710938 260.050781 178.703125 260.097656 178.75 260.152344 L 179.9375 261.632812 C 179.972656 261.679688 180.015625 261.683594 180.0625 261.652344 C 180.265625 261.519531 180.460938 261.375 180.648438 261.214844 C 181.652344 260.371094 182.566406 259.113281 183.222656 257.667969 C 183.878906 256.222656 184.226562 254.703125 184.203125 253.394531 C 184.199219 253.148438 184.179688 252.90625 184.148438 252.664062 C 184.140625 252.609375 184.109375 252.582031 184.050781 252.582031 Z M 182.152344 252.660156 " fill-opacity="1" fill-rule="nonzero"/></g></g></g><g clip-path="url(#c61bd47111)"><g clip-path="url(#fd0cee5659)"><g clip-path="url(#b18b6e891a)"><path fill="#211f1e" d="M 192.832031 251.695312 C 192.90625 251.703125 192.929688 251.742188 192.910156 251.8125 C 192.628906 252.832031 192.738281 254.339844 193.292969 255.898438 C 193.84375 257.457031 194.703125 258.699219 195.566406 259.3125 C 195.621094 259.355469 195.628906 259.402344 195.578125 259.453125 L 194.265625 260.828125 C 194.226562 260.867188 194.183594 260.871094 194.136719 260.835938 C 193.949219 260.683594 193.765625 260.519531 193.59375 260.347656 C 192.667969 259.421875 191.863281 258.085938 191.335938 256.589844 C 190.804688 255.09375 190.589844 253.550781 190.726562 252.246094 C 190.753906 252.003906 190.792969 251.765625 190.84375 251.527344 C 190.859375 251.472656 190.890625 251.445312 190.949219 251.453125 Z M 192.832031 251.695312 " fill-opacity="1" fill-rule="nonzero"/></g></g></g><g clip-path="url(#9b8d813f47)"><g clip-path="url(#faffd65235)"><g clip-path="url(#251b4bec98)"><path fill="#211f1e" d="M 178.867188 115.089844 C 178.820312 115.144531 178.828125 115.191406 178.890625 115.230469 C 179.792969 115.78125 180.738281 116.960938 181.398438 118.476562 C 182.054688 119.992188 182.273438 121.488281 182.0625 122.527344 C 182.046875 122.597656 182.074219 122.632812 182.148438 122.636719 L 184.042969 122.746094 C 184.101562 122.75 184.132812 122.722656 184.140625 122.667969 C 184.179688 122.425781 184.199219 122.183594 184.210938 121.941406 C 184.253906 120.628906 183.933594 119.109375 183.300781 117.652344 C 182.667969 116.195312 181.773438 114.917969 180.785156 114.058594 C 180.601562 113.898438 180.40625 113.75 180.207031 113.613281 C 180.160156 113.578125 180.117188 113.585938 180.082031 113.628906 Z M 178.867188 115.089844 " fill-opacity="1" fill-rule="nonzero"/></g></g></g><g clip-path="url(#51d114977d)"><g clip-path="url(#87e22f690c)"><g clip-path="url(#fabeb626b9)"><path fill="#211f1e" d="M 192.925781 121.652344 C 192.996094 121.65625 193.027344 121.621094 193.019531 121.550781 C 192.910156 120.5 193.265625 119.03125 194.0625 117.582031 C 194.863281 116.136719 195.917969 115.050781 196.867188 114.585938 C 196.929688 114.554688 196.941406 114.507812 196.902344 114.449219 L 195.832031 112.878906 C 195.800781 112.832031 195.757812 112.824219 195.707031 112.851562 C 195.496094 112.96875 195.289062 113.101562 195.089844 113.242188 C 194.027344 114.003906 193.015625 115.191406 192.25 116.582031 C 191.480469 117.96875 191.015625 119.457031 190.9375 120.765625 C 190.921875 121.007812 190.921875 121.25 190.933594 121.496094 C 190.9375 121.550781 190.96875 121.582031 191.023438 121.582031 Z M 192.925781 121.652344 " fill-opacity="1" fill-rule="nonzero"/></g></g></g><path fill="#ffffff" d="M 187.097656 192.078125 C 186.890625 192.078125 186.695312 192.117188 186.503906 192.195312 C 186.316406 192.273438 186.148438 192.382812 186.003906 192.53125 C 185.859375 192.675781 185.746094 192.839844 185.667969 193.03125 C 185.589844 193.21875 185.550781 193.417969 185.550781 193.621094 L 185.550781 199.808594 C 185.550781 200.015625 185.589844 200.210938 185.667969 200.402344 C 185.746094 200.589844 185.859375 200.757812 186.003906 200.902344 C 186.148438 201.046875 186.316406 201.160156 186.503906 201.238281 C 186.695312 201.316406 186.890625 201.355469 187.097656 201.355469 C 187.300781 201.355469 187.5 201.316406 187.6875 201.238281 C 187.878906 201.160156 188.046875 201.046875 188.191406 200.902344 C 188.335938 200.757812 188.445312 200.589844 188.527344 200.402344 C 188.605469 200.210938 188.644531 200.015625 188.644531 199.808594 L 188.644531 193.621094 C 188.644531 193.417969 188.605469 193.21875 188.527344 193.03125 C 188.445312 192.839844 188.335938 192.675781 188.191406 192.53125 C 188.046875 192.382812 187.878906 192.273438 187.6875 192.195312 C 187.5 192.117188 187.300781 192.078125 187.097656 192.078125 Z M 187.097656 192.078125 " fill-opacity="1" fill-rule="nonzero"/><path fill="#ffffff" d="M 187.097656 207.542969 C 186.890625 207.542969 186.695312 207.582031 186.503906 207.660156 C 186.316406 207.738281 186.148438 207.847656 186.003906 207.992188 C 185.859375 208.140625 185.746094 208.304688 185.667969 208.496094 C 185.589844 208.683594 185.550781 208.882812 185.550781 209.085938 L 185.550781 215.273438 C 185.550781 215.476562 185.589844 215.675781 185.667969 215.863281 C 185.746094 216.054688 185.859375 216.222656 186.003906 216.367188 C 186.148438 216.511719 186.316406 216.625 186.503906 216.703125 C 186.695312 216.78125 186.890625 216.820312 187.097656 216.820312 C 187.300781 216.820312 187.5 216.78125 187.6875 216.703125 C 187.878906 216.625 188.046875 216.511719 188.191406 216.367188 C 188.335938 216.222656 188.445312 216.054688 188.527344 215.863281 C 188.605469 215.675781 188.644531 215.476562 188.644531 215.273438 L 188.644531 209.085938 C 188.644531 208.882812 188.605469 208.683594 188.527344 208.496094 C 188.445312 208.304688 188.335938 208.140625 188.191406 207.992188 C 188.046875 207.847656 187.878906 207.738281 187.6875 207.660156 C 187.5 207.582031 187.300781 207.542969 187.097656 207.542969 Z M 187.097656 207.542969 " fill-opacity="1" fill-rule="nonzero"/><path fill="#ffffff" d="M 187.097656 223.003906 C 186.890625 223.003906 186.695312 223.042969 186.503906 223.125 C 186.316406 223.203125 186.148438 223.3125 186.003906 223.457031 C 185.859375 223.605469 185.746094 223.769531 185.667969 223.960938 C 185.589844 224.148438 185.550781 224.347656 185.550781 224.550781 L 185.550781 230.738281 C 185.550781 230.941406 185.589844 231.140625 185.667969 231.328125 C 185.746094 231.519531 185.859375 231.6875 186.003906 231.832031 C 186.148438 231.976562 186.316406 232.089844 186.503906 232.167969 C 186.695312 232.246094 186.890625 232.285156 187.097656 232.285156 C 187.300781 232.285156 187.5 232.246094 187.6875 232.167969 C 187.878906 232.089844 188.046875 231.976562 188.191406 231.832031 C 188.335938 231.6875 188.445312 231.519531 188.527344 231.328125 C 188.605469 231.140625 188.644531 230.941406 188.644531 230.738281 L 188.644531 224.550781 C 188.644531 224.347656 188.605469 224.148438 188.527344 223.960938 C 188.445312 223.769531 188.335938 223.605469 188.191406 223.457031 C 188.046875 223.3125 187.878906 223.203125 187.6875 223.125 C 187.5 223.042969 187.300781 223.003906 187.097656 223.003906 Z M 187.097656 223.003906 " fill-opacity="1" fill-rule="nonzero"/><path fill="#ffffff" d="M 187.097656 238.46875 C 186.890625 238.46875 186.695312 238.507812 186.503906 238.589844 C 186.316406 238.667969 186.148438 238.777344 186.003906 238.921875 C 185.859375 239.066406 185.746094 239.234375 185.667969 239.425781 C 185.589844 239.613281 185.550781 239.8125 185.550781 240.015625 L 185.550781 246.203125 C 185.550781 246.40625 185.589844 246.605469 185.667969 246.792969 C 185.746094 246.984375 185.859375 247.152344 186.003906 247.296875 C 186.148438 247.441406 186.316406 247.554688 186.503906 247.632812 C 186.695312 247.710938 186.890625 247.75 187.097656 247.75 C 187.300781 247.75 187.5 247.710938 187.6875 247.632812 C 187.878906 247.554688 188.046875 247.441406 188.191406 247.296875 C 188.335938 247.152344 188.445312 246.984375 188.527344 246.792969 C 188.605469 246.605469 188.644531 246.40625 188.644531 246.203125 L 188.644531 240.015625 C 188.644531 239.8125 188.605469 239.613281 188.527344 239.425781 C 188.445312 239.234375 188.335938 239.066406 188.191406 238.921875 C 188.046875 238.777344 187.878906 238.667969 187.6875 238.589844 C 187.5 238.507812 187.300781 238.46875 187.097656 238.46875 Z M 187.097656 238.46875 " fill-opacity="1" fill-rule="nonzero"/><path fill="#ffffff" d="M 187.097656 128.359375 C 186.890625 128.359375 186.695312 128.398438 186.503906 128.476562 C 186.316406 128.558594 186.148438 128.667969 186.003906 128.8125 C 185.859375 128.957031 185.746094 129.125 185.667969 129.316406 C 185.589844 129.503906 185.550781 129.703125 185.550781 129.90625 L 185.550781 136.09375 C 185.550781 136.296875 185.589844 136.496094 185.667969 136.683594 C 185.746094 136.875 185.859375 137.042969 186.003906 137.1875 C 186.148438 137.332031 186.316406 137.441406 186.503906 137.523438 C 186.695312 137.601562 186.890625 137.640625 187.097656 137.640625 C 187.300781 137.640625 187.5 137.601562 187.6875 137.523438 C 187.878906 137.441406 188.046875 137.332031 188.191406 137.1875 C 188.335938 137.042969 188.445312 136.875 188.527344 136.683594 C 188.605469 136.496094 188.644531 136.296875 188.644531 136.09375 L 188.644531 129.90625 C 188.644531 129.703125 188.605469 129.503906 188.527344 129.316406 C 188.445312 129.125 188.335938 128.957031 188.191406 128.8125 C 188.046875 128.667969 187.878906 128.558594 187.6875 128.476562 C 187.5 128.398438 187.300781 128.359375 187.097656 128.359375 Z M 187.097656 128.359375 " fill-opacity="1" fill-rule="nonzero"/><path fill="#ffffff" d="M 187.097656 143.824219 C 186.890625 143.824219 186.695312 143.863281 186.503906 143.941406 C 186.316406 144.019531 186.148438 144.132812 186.003906 144.277344 C 185.859375 144.421875 185.746094 144.589844 185.667969 144.78125 C 185.589844 144.96875 185.550781 145.167969 185.550781 145.371094 L 185.550781 151.558594 C 185.550781 151.761719 185.589844 151.960938 185.667969 152.148438 C 185.746094 152.339844 185.859375 152.507812 186.003906 152.652344 C 186.148438 152.796875 186.316406 152.90625 186.503906 152.984375 C 186.695312 153.066406 186.890625 153.105469 187.097656 153.105469 C 187.300781 153.105469 187.5 153.066406 187.6875 152.984375 C 187.878906 152.90625 188.046875 152.796875 188.191406 152.652344 C 188.335938 152.507812 188.445312 152.339844 188.527344 152.148438 C 188.605469 151.960938 188.644531 151.761719 188.644531 151.558594 L 188.644531 145.371094 C 188.644531 145.167969 188.605469 144.96875 188.527344 144.78125 C 188.445312 144.589844 188.335938 144.421875 188.191406 144.277344 C 188.046875 144.132812 187.878906 144.019531 187.6875 143.941406 C 187.5 143.863281 187.300781 143.824219 187.097656 143.824219 Z M 187.097656 143.824219 " fill-opacity="1" fill-rule="nonzero"/><path fill="#ffffff" d="M 187.097656 159.289062 C 186.890625 159.289062 186.695312 159.328125 186.503906 159.40625 C 186.316406 159.484375 186.148438 159.597656 186.003906 159.742188 C 185.859375 159.886719 185.746094 160.054688 185.667969 160.246094 C 185.589844 160.433594 185.550781 160.632812 185.550781 160.835938 L 185.550781 167.023438 C 185.550781 167.226562 185.589844 167.425781 185.667969 167.613281 C 185.746094 167.804688 185.859375 167.96875 186.003906 168.117188 C 186.148438 168.261719 186.316406 168.371094 186.503906 168.449219 C 186.695312 168.527344 186.890625 168.570312 187.097656 168.570312 C 187.300781 168.570312 187.5 168.527344 187.6875 168.449219 C 187.878906 168.371094 188.046875 168.261719 188.191406 168.117188 C 188.335938 167.96875 188.445312 167.804688 188.527344 167.613281 C 188.605469 167.425781 188.644531 167.226562 188.644531 167.023438 L 188.644531 160.835938 C 188.644531 160.632812 188.605469 160.433594 188.527344 160.246094 C 188.445312 160.054688 188.335938 159.886719 188.191406 159.742188 C 188.046875 159.597656 187.878906 159.484375 187.6875 159.40625 C 187.5 159.328125 187.300781 159.289062 187.097656 159.289062 Z M 187.097656 159.289062 " fill-opacity="1" fill-rule="nonzero"/><path fill="#ffffff" d="M 187.097656 174.753906 C 186.890625 174.753906 186.695312 174.792969 186.503906 174.871094 C 186.316406 174.949219 186.148438 175.0625 186.003906 175.207031 C 185.859375 175.351562 185.746094 175.519531 185.667969 175.710938 C 185.589844 175.898438 185.550781 176.097656 185.550781 176.300781 L 185.550781 182.488281 C 185.550781 182.691406 185.589844 182.890625 185.667969 183.078125 C 185.746094 183.269531 185.859375 183.433594 186.003906 183.582031 C 186.148438 183.726562 186.316406 183.835938 186.503906 183.914062 C 186.695312 183.992188 186.890625 184.03125 187.097656 184.03125 C 187.300781 184.03125 187.5 183.992188 187.6875 183.914062 C 187.878906 183.835938 188.046875 183.726562 188.191406 183.582031 C 188.335938 183.433594 188.445312 183.269531 188.527344 183.078125 C 188.605469 182.890625 188.644531 182.691406 188.644531 182.488281 L 188.644531 176.300781 C 188.644531 176.097656 188.605469 175.898438 188.527344 175.710938 C 188.445312 175.519531 188.335938 175.351562 188.191406 175.207031 C 188.046875 175.0625 187.878906 174.949219 187.6875 174.871094 C 187.5 174.792969 187.300781 174.753906 187.097656 174.753906 Z M 187.097656 174.753906 " fill-opacity="1" fill-rule="nonzero"/><g clip-path="url(#d9f40ad137)"><path fill="#ffa7b4" d="M 140.414062 175.601562 L 181.28125 175.601562 L 181.28125 219.980469 L 140.414062 219.980469 Z M 140.414062 175.601562 " fill-opacity="1" fill-rule="nonzero"/></g><g clip-path="url(#4a886a71df)"><path fill="#ffa7b4" d="M 192.796875 202.394531 L 222.851562 202.394531 L 222.851562 246.65625 L 192.796875 246.65625 Z M 192.796875 202.394531 " fill-opacity="1" fill-rule="nonzero"/></g><g clip-path="url(#f18027cbd0)"><path fill="#ffa7b4" d="M 193.925781 144.054688 L 234.449219 144.054688 L 234.449219 187.742188 L 193.925781 187.742188 Z M 193.925781 144.054688 " fill-opacity="1" fill-rule="nonzero"/></g><path stroke-linecap="round" transform="matrix(0.75, 0.000000000000000825, -0.000000000000000825, 0.75, 146.559619, 188.771121)" fill="none" stroke-linejoin="miter" d="M 5.498634 5.49788 L 46.14447 5.49788 " stroke="#211f1e" stroke-width="11" stroke-opacity="1" stroke-miterlimit="4"/><path stroke-linecap="round" transform="matrix(0.75, 0.000000000000001651, -0.000000000000001651, 0.75, 189.830426, 162.6979)" fill="none" stroke-linejoin="miter" d="M 5.502141 5.501759 L 46.147977 5.501759 " stroke="#211f1e" stroke-width="11" stroke-opacity="1" stroke-miterlimit="4"/><path stroke-linecap="round" transform="matrix(0.75, 0, 0, 0.75, 189.830426, 219.707856)" fill="none" stroke-linejoin="miter" d="M 5.502141 5.498901 L 33.95006 5.498901 " stroke="#211f1e" stroke-width="11" stroke-opacity="1" stroke-miterlimit="4"/></svg>