<svg xmlns="http://www.w3.org/2000/svg" xmlns:xlink="http://www.w3.org/1999/xlink" width="1080" zoomAndPan="magnify" viewBox="0 0 810 809.999993" height="1080" preserveAspectRatio="xMidYMid meet" version="1.0"><defs><clipPath id="64e143e0f4"><path d="M 129.257812 365.335938 L 668 365.335938 L 668 567 L 129.257812 567 Z M 129.257812 365.335938 " clip-rule="nonzero"/></clipPath><clipPath id="de155d9901"><path d="M 236 535 L 560 535 L 560 678.835938 L 236 678.835938 Z M 236 535 " clip-rule="nonzero"/></clipPath><clipPath id="019ed13dac"><path d="M 639 480 L 680.507812 480 L 680.507812 601 L 639 601 Z M 639 480 " clip-rule="nonzero"/></clipPath><clipPath id="07f64f175c"><path d="M 311.910156 81 L 497.910156 81 L 497.910156 267 L 311.910156 267 Z M 311.910156 81 " clip-rule="nonzero"/></clipPath></defs><g clip-path="url(#64e143e0f4)"><path fill="#015030" d="M 398.410156 365.367188 L 129.257812 466.136719 L 144.238281 471.742188 L 398.421875 566.894531 L 634.648438 478.460938 L 667.574219 466.136719 Z M 398.410156 365.367188 " fill-opacity="1" fill-rule="nonzero"/></g><g clip-path="url(#de155d9901)"><path fill="#015030" d="M 236.988281 535.816406 L 236.988281 620.511719 C 236.988281 652.78125 309.261719 678.929688 398.410156 678.929688 C 458.863281 678.929688 511.503906 666.90625 539.164062 649.109375 C 552.3125 640.660156 559.84375 630.910156 559.84375 620.511719 L 559.84375 535.816406 L 398.429688 596.238281 Z M 236.988281 535.816406 " fill-opacity="1" fill-rule="nonzero"/></g><g clip-path="url(#019ed13dac)"><path fill="#015030" d="M 667.121094 480.878906 L 655.367188 485.246094 L 651.347656 514.726562 L 639.652344 600.480469 L 680.75 580.710938 C 676.214844 547.4375 671.667969 514.160156 667.121094 480.878906 Z M 667.121094 480.878906 " fill-opacity="1" fill-rule="nonzero"/></g><g clip-path="url(#07f64f175c)"><path fill="#000000" d="M 404.910156 81 C 353.550781 81 311.910156 122.640625 311.910156 174 C 311.910156 225.359375 353.550781 267 404.910156 267 C 456.269531 267 497.910156 225.359375 497.910156 174 C 497.910156 122.640625 456.269531 81 404.910156 81 Z M 399.945312 135.78125 L 422.363281 135.78125 L 422.363281 185.578125 L 432.371094 185.578125 L 432.371094 198.871094 L 422.363281 198.871094 L 422.363281 212.21875 L 407.089844 212.21875 L 407.089844 198.871094 L 369.6875 198.871094 L 369.6875 184.730469 C 376.578125 171.75 386.546875 155.960938 399.945312 135.78125 Z M 406.621094 148.222656 C 399.632812 158.660156 392.792969 169.359375 384.054688 185.203125 L 384.054688 186.050781 L 407.46875 186.050781 L 407.46875 148.222656 Z M 406.621094 148.222656 " fill-opacity="1" fill-rule="nonzero"/></g></svg>