<svg xmlns="http://www.w3.org/2000/svg" xmlns:xlink="http://www.w3.org/1999/xlink" width="1080" zoomAndPan="magnify" viewBox="0 0 810 809.999993" height="1080" preserveAspectRatio="xMidYMid meet" version="1.0"><defs><clipPath id="f99ad2d3ce"><path d="M 207.875 334.746094 L 602.375 334.746094 L 602.375 729 L 207.875 729 Z M 207.875 334.746094 " clip-rule="nonzero"/></clipPath><clipPath id="a1a05e09c2"><path d="M 314.007812 81 L 496.257812 81 L 496.257812 263.25 L 314.007812 263.25 Z M 314.007812 81 " clip-rule="nonzero"/></clipPath></defs><g clip-path="url(#f99ad2d3ce)"><path fill="#015030" d="M 602.117188 522.65625 C 602.117188 514.761719 591.0625 510.023438 591.0625 510.023438 L 557.375 500.023438 C 556.320312 494.234375 554.742188 488.441406 552.636719 482.652344 L 576.851562 457.386719 C 576.851562 457.386719 584.21875 447.914062 580.007812 440.542969 L 576.324219 434.753906 L 574.746094 431.597656 L 571.058594 425.804688 C 566.847656 418.964844 555.269531 420.015625 555.269531 420.015625 L 521.054688 428.4375 C 517.371094 424.226562 513.160156 420.015625 508.421875 415.804688 L 516.84375 381.59375 C 516.84375 381.59375 518.425781 369.484375 511.054688 365.800781 L 505.265625 362.117188 L 501.582031 360.011719 L 495.792969 356.328125 C 488.949219 352.117188 478.949219 359.484375 478.949219 359.484375 L 454.207031 384.222656 C 448.417969 382.117188 443.15625 381.066406 436.839844 379.488281 L 427.363281 345.800781 C 427.363281 345.800781 422.628906 334.746094 414.730469 334.746094 L 396.835938 334.746094 C 388.941406 334.746094 384.203125 345.800781 384.203125 345.800781 L 373.675781 379.488281 C 367.886719 380.539062 362.097656 382.117188 356.304688 384.222656 L 331.039062 360.011719 C 331.039062 360.011719 321.566406 352.640625 314.199219 356.851562 L 308.40625 360.539062 L 305.25 362.117188 L 299.460938 365.800781 C 292.617188 370.011719 293.667969 381.59375 293.667969 381.59375 L 302.089844 415.804688 C 297.878906 419.488281 293.667969 423.699219 289.457031 428.4375 L 255.246094 420.015625 C 255.246094 420.015625 243.140625 418.4375 239.453125 425.804688 L 235.769531 431.597656 L 233.664062 435.28125 L 229.980469 441.070312 C 225.769531 447.914062 233.136719 457.914062 233.136719 457.914062 L 257.351562 483.179688 C 255.246094 488.96875 254.191406 494.234375 252.613281 500.550781 L 218.925781 510.023438 C 218.925781 510.023438 207.875 514.761719 207.875 522.65625 L 207.875 540.550781 C 207.875 548.449219 218.925781 553.183594 218.925781 553.183594 L 252.613281 562.660156 C 253.667969 568.449219 255.246094 574.238281 257.351562 580.027344 L 233.136719 605.292969 C 233.136719 605.292969 225.769531 614.769531 229.980469 622.136719 L 233.664062 627.925781 L 235.769531 631.613281 L 239.453125 637.402344 C 243.664062 644.246094 255.246094 643.191406 255.246094 643.191406 L 289.457031 634.769531 C 293.144531 638.980469 297.355469 643.191406 302.089844 647.402344 L 293.667969 681.617188 C 293.667969 681.617188 292.089844 693.722656 299.460938 697.40625 L 305.25 701.089844 L 308.933594 703.195312 L 314.722656 706.882812 C 321.566406 711.09375 331.566406 703.722656 331.566406 703.722656 L 356.832031 679.511719 C 362.621094 681.089844 367.886719 682.667969 374.203125 684.246094 L 383.675781 717.933594 C 383.675781 717.933594 388.414062 728.988281 396.308594 728.988281 L 414.207031 728.988281 C 422.101562 728.988281 426.839844 717.933594 426.839844 717.933594 L 436.3125 684.246094 C 442.101562 683.195312 447.890625 681.617188 453.683594 679.511719 L 478.949219 703.722656 C 478.949219 703.722656 488.421875 711.09375 495.789062 706.882812 L 501.582031 703.195312 L 505.265625 701.089844 L 511.054688 697.40625 C 517.898438 693.195312 516.84375 681.617188 516.84375 681.617188 L 508.421875 647.402344 C 512.632812 643.71875 516.84375 639.507812 521.054688 634.769531 L 555.269531 643.191406 C 555.269531 643.191406 567.375 644.769531 571.058594 637.402344 L 574.746094 631.613281 L 576.851562 627.929688 L 580.535156 622.136719 C 584.746094 615.296875 577.375 605.292969 577.375 605.292969 L 552.636719 580.554688 C 554.742188 574.765625 555.796875 569.503906 557.375 563.1875 L 591.0625 553.710938 C 591.0625 553.710938 602.117188 548.972656 602.117188 541.078125 L 602.117188 530.023438 C 602.117188 529.5 602.117188 522.65625 602.117188 522.65625 Z M 405.257812 648.980469 C 340.515625 648.980469 287.878906 596.347656 287.878906 531.605469 C 287.878906 466.863281 340.515625 414.226562 405.257812 414.226562 C 470 414.226562 522.636719 466.863281 522.636719 531.605469 C 522.636719 596.347656 470 648.980469 405.257812 648.980469 Z M 405.257812 648.980469 " fill-opacity="1" fill-rule="nonzero"/></g><path fill="#015030" d="M 391.570312 565.816406 L 436.3125 512.128906 C 448.945312 516.867188 463.683594 513.183594 473.15625 502.128906 C 480.527344 493.707031 482.632812 482.125 480 472.125 L 459.472656 496.863281 C 458.417969 497.917969 456.839844 497.917969 455.789062 497.390625 L 430.523438 476.335938 C 429.46875 475.285156 429.46875 473.703125 429.996094 472.652344 L 450.523438 447.914062 C 439.996094 446.859375 429.46875 451.070312 422.101562 459.492188 C 412.625 470.546875 412.101562 485.8125 418.417969 497.390625 L 373.675781 551.078125 C 361.042969 546.34375 346.304688 550.027344 336.832031 561.082031 C 329.460938 569.503906 327.355469 581.082031 329.988281 591.082031 L 350.515625 566.34375 C 351.570312 565.292969 353.148438 565.292969 354.199219 565.816406 L 379.464844 586.871094 C 380.519531 587.925781 380.519531 589.503906 379.992188 590.554688 L 359.464844 615.296875 C 369.992188 616.347656 380.519531 612.136719 387.886719 603.714844 C 397.363281 592.660156 398.414062 577.398438 391.570312 565.816406 Z M 391.570312 565.816406 " fill-opacity="1" fill-rule="nonzero"/><g clip-path="url(#a1a05e09c2)"><path fill="#000000" d="M 405.132812 81 C 354.808594 81 314.007812 121.800781 314.007812 172.125 C 314.007812 222.449219 354.808594 263.25 405.132812 263.25 C 455.457031 263.25 496.257812 222.449219 496.257812 172.125 C 496.257812 121.800781 455.457031 81 405.132812 81 Z M 432.59375 210.09375 L 378.554688 210.09375 L 378.554688 199.144531 L 403.007812 175.214844 C 413.546875 164.933594 416.191406 161.046875 416.191406 156.164062 C 416.191406 150.140625 411.308594 145.882812 404.457031 145.882812 C 397.191406 145.882812 392.210938 150.65625 392.210938 157.558594 L 392.210938 157.871094 L 377.675781 157.871094 L 377.675781 157.613281 C 377.675781 143.132812 388.785156 133.269531 404.980469 133.269531 C 420.609375 133.269531 431.507812 142.25 431.507812 155.121094 C 431.507812 163.269531 427.09375 170.28125 414.117188 182.484375 L 399.789062 196.136719 L 399.789062 197.070312 L 432.59375 197.070312 Z M 432.59375 210.09375 " fill-opacity="1" fill-rule="nonzero"/></g></svg>