<svg xmlns="http://www.w3.org/2000/svg" xmlns:xlink="http://www.w3.org/1999/xlink" width="252" zoomAndPan="magnify" viewBox="0 0 189 54" height="72" preserveAspectRatio="xMidYMid meet" version="1.0"><defs><g/><clipPath id="de1f418e69"><path d="M 9.066406 2.652344 L 55.667969 2.652344 L 55.667969 50.796875 L 9.066406 50.796875 Z M 9.066406 2.652344 " clip-rule="nonzero"/></clipPath><clipPath id="9f15363119"><path d="M 25.46875 6.914062 C 26.414062 6.449219 26.835938 9.226562 26.527344 9.382812 C 26.1875 9.550781 24.339844 7.464844 23.941406 6.886719 C 23.773438 6.644531 23.746094 6.53125 23.6875 6.292969 C 23.605469 5.953125 23.578125 5.359375 23.617188 5.007812 C 23.648438 4.753906 23.703125 4.613281 23.816406 4.386719 C 23.984375 4.078125 24.351562 3.609375 24.621094 3.386719 C 24.804688 3.230469 24.945312 3.144531 25.183594 3.0625 C 25.507812 2.933594 26.03125 2.804688 26.453125 2.835938 C 26.863281 2.863281 27.328125 3.003906 27.683594 3.230469 C 28.035156 3.441406 28.628906 4.078125 28.570312 4.148438 C 28.488281 4.261719 25.804688 3.019531 25.847656 2.863281 C 25.90625 2.695312 28.429688 2.890625 29.40625 3.328125 C 30.265625 3.722656 30.898438 4.472656 31.492188 5.175781 C 32.101562 5.910156 32.691406 6.785156 33.03125 7.660156 C 33.355469 8.507812 33.414062 9.253906 33.539062 10.34375 C 33.738281 11.949219 33.851562 14.238281 33.878906 16.4375 C 33.90625 19.035156 33.976562 22.703125 33.582031 24.917969 C 33.3125 26.414062 32.464844 27.445312 32.367188 28.589844 C 32.285156 29.5625 32.691406 30.269531 32.75 31.355469 C 32.832031 32.863281 32.59375 34.96875 32.636719 36.832031 C 32.679688 38.761719 33.101562 41.148438 33.03125 42.757812 C 32.988281 43.871094 32.832031 44.664062 32.609375 45.566406 C 32.382812 46.441406 32.183594 47.359375 31.675781 48.078125 C 31.152344 48.824219 30.292969 49.515625 29.460938 49.96875 C 28.65625 50.40625 27.710938 50.714844 26.78125 50.757812 C 25.804688 50.800781 24.523438 50.601562 23.730469 50.109375 C 23.011719 49.671875 22.476562 48.851562 22.121094 48.105469 C 21.769531 47.359375 22.136719 45.890625 21.644531 45.59375 C 21.136719 45.28125 19.964844 46.257812 19.101562 46.339844 C 18.226562 46.425781 17.226562 46.496094 16.421875 46.101562 C 15.503906 45.648438 14.488281 44.449219 14.066406 43.503906 C 13.699219 42.6875 13.78125 41.785156 13.8125 40.878906 C 13.839844 39.921875 14.644531 38.621094 14.261719 37.902344 C 13.882812 37.167969 12.257812 37.125 11.46875 36.546875 C 10.734375 36.011719 10.015625 35.363281 9.632812 34.613281 C 9.265625 33.878906 9.140625 32.949219 9.210938 32.089844 C 9.28125 31.144531 9.621094 30.015625 10.183594 29.152344 C 10.789062 28.222656 12.894531 27.488281 12.867188 26.769531 C 12.851562 26.148438 11.1875 25.808594 10.707031 25.089844 C 10.226562 24.355469 10.097656 23.382812 9.988281 22.394531 C 9.859375 21.207031 9.621094 19.417969 10.171875 18.441406 C 10.664062 17.566406 12.414062 17.453125 12.851562 16.648438 C 13.246094 15.917969 12.738281 14.828125 12.894531 13.941406 C 13.050781 13.039062 13.316406 12.09375 13.769531 11.273438 C 14.234375 10.425781 15.023438 9.679688 15.6875 8.972656 C 16.308594 8.308594 16.84375 7.476562 17.59375 7.125 C 18.328125 6.773438 19.328125 7.109375 20.148438 6.828125 C 21.023438 6.519531 21.769531 5.65625 22.628906 5.261719 C 23.449219 4.882812 24.308594 4.371094 25.171875 4.472656 C 26.171875 4.585938 27.429688 5.503906 28.234375 6.207031 C 28.925781 6.8125 29.375 7.5625 29.8125 8.324219 C 30.25 9.085938 30.546875 9.90625 30.828125 10.765625 C 31.125 11.683594 31.378906 12.671875 31.492188 13.660156 C 31.605469 14.675781 31.550781 15.71875 31.507812 16.777344 C 31.449219 17.890625 31.378906 18.613281 31.183594 20.207031 C 30.730469 23.902344 28.8125 34.277344 28.472656 38.59375 C 28.289062 40.9375 28.910156 42.53125 28.417969 44.027344 C 27.992188 45.296875 27.089844 46.949219 26.128906 47.175781 C 25.171875 47.398438 23.519531 46.554688 22.660156 45.410156 C 21.289062 43.589844 21.121094 38.183594 20.867188 35.699219 C 20.710938 34.175781 20.796875 33.175781 20.78125 31.988281 C 20.769531 30.890625 20.699219 29.902344 20.78125 28.816406 C 20.882812 27.65625 21.078125 26.570312 21.359375 25.230469 C 21.726562 23.480469 22.558594 20.910156 22.898438 19.261719 C 23.140625 18.105469 22.886719 17.085938 23.363281 16.296875 C 23.832031 15.519531 25.199219 14.292969 25.691406 14.546875 C 26.582031 15 25.691406 21.859375 25.59375 24.074219 C 25.539062 25.273438 25.496094 25.722656 25.367188 26.839844 C 25.171875 28.5625 24.804688 31.015625 24.410156 33.402344 C 23.929688 36.25 23.757812 40.878906 22.628906 42.785156 C 21.96875 43.898438 21.007812 44.675781 20.078125 44.875 C 19.203125 45.058594 17.972656 44.632812 17.238281 44.070312 C 16.492188 43.503906 16 42.375 15.671875 41.445312 C 15.363281 40.542969 15.40625 39.792969 15.320312 38.59375 C 15.179688 36.546875 14.617188 30.464844 15.164062 30.28125 C 15.476562 30.183594 15.96875 32.144531 16.675781 32.46875 C 17.394531 32.808594 19.03125 31.933594 19.457031 32.214844 C 19.679688 32.355469 19.695312 32.667969 19.695312 32.949219 C 19.695312 33.332031 19.457031 33.964844 19.285156 34.316406 C 19.160156 34.570312 19.058594 34.714844 18.847656 34.898438 C 18.566406 35.164062 18.074219 35.503906 17.636719 35.644531 C 17.199219 35.785156 16.660156 35.828125 16.210938 35.757812 C 15.757812 35.6875 15.265625 35.476562 14.898438 35.191406 C 14.53125 34.910156 14.191406 34.417969 14.007812 34.078125 C 13.882812 33.839844 13.824219 33.625 13.78125 33.386719 C 13.742188 33.148438 13.710938 32.992188 13.726562 32.667969 C 13.753906 31.976562 13.964844 30.707031 14.304688 29.476562 C 14.796875 27.726562 16.378906 25.300781 16.730469 23.226562 C 17.054688 21.308594 16.449219 19.035156 16.507812 17.484375 C 16.535156 16.425781 16.5625 15.535156 16.789062 14.800781 C 16.972656 14.222656 17.339844 13.699219 17.59375 13.347656 C 17.761719 13.121094 17.859375 12.980469 18.085938 12.824219 C 18.410156 12.601562 18.933594 12.304688 19.398438 12.21875 C 19.851562 12.132812 20.457031 12.203125 20.839844 12.289062 C 21.105469 12.359375 21.289062 12.460938 21.5 12.585938 C 21.714844 12.714844 21.898438 12.8125 22.082031 13.023438 C 22.347656 13.304688 22.703125 13.800781 22.84375 14.238281 C 22.984375 14.675781 22.996094 15.070312 22.941406 15.675781 C 22.84375 16.761719 22.066406 18.851562 21.785156 20.191406 C 21.558594 21.238281 21.417969 22.167969 21.304688 23.027344 C 21.21875 23.75 21.261719 24.554688 21.148438 25.03125 C 21.078125 25.316406 21.035156 25.46875 20.894531 25.695312 C 20.699219 26.019531 20.316406 26.5 19.933594 26.753906 C 19.554688 27.007812 19.058594 27.191406 18.59375 27.25 C 18.144531 27.304688 17.605469 27.234375 17.183594 27.066406 C 16.746094 26.894531 16.324219 26.597656 16.011719 26.246094 C 15.714844 25.90625 15.476562 25.355469 15.363281 24.992188 C 15.277344 24.722656 15.25 24.582031 15.277344 24.269531 C 15.347656 23.636719 15.84375 22.324219 16.210938 21.449219 C 16.546875 20.628906 16.832031 19.855469 17.394531 19.175781 C 18.015625 18.414062 18.878906 17.554688 19.863281 17.1875 C 20.9375 16.777344 22.703125 16.890625 23.675781 17.015625 C 24.296875 17.101562 24.734375 17.242188 25.171875 17.46875 C 25.59375 17.695312 26.019531 17.992188 26.300781 18.359375 C 26.582031 18.726562 26.808594 19.21875 26.890625 19.671875 C 26.976562 20.121094 26.90625 20.714844 26.808594 21.09375 C 26.738281 21.363281 26.667969 21.53125 26.511719 21.757812 C 26.285156 22.082031 25.820312 22.550781 25.496094 22.773438 C 25.269531 22.929688 25.101562 23 24.832031 23.070312 C 24.453125 23.167969 23.421875 23.253906 23.394531 23.15625 C 23.363281 23.027344 26.089844 21.957031 26.117188 22.011719 C 26.144531 22.070312 24.492188 23.226562 23.71875 23.4375 C 23.066406 23.605469 22.375 23.535156 21.828125 23.394531 C 21.347656 23.269531 20.851562 22.988281 20.542969 22.746094 C 20.316406 22.578125 20.1875 22.449219 20.046875 22.210938 C 19.835938 21.871094 19.597656 21.25 19.527344 20.871094 C 19.46875 20.601562 19.46875 20.417969 19.511719 20.148438 C 19.582031 19.769531 19.753906 19.175781 20.007812 18.796875 C 20.273438 18.398438 20.667969 18.046875 21.078125 17.820312 C 21.488281 17.597656 21.898438 17.722656 22.460938 17.46875 C 23.5625 16.960938 25.621094 15.550781 26.921875 14.320312 C 28.203125 13.109375 29.433594 11.542969 30.222656 10.1875 C 30.859375 9.085938 30.800781 8 31.519531 6.957031 C 32.425781 5.644531 34.273438 3.824219 35.558594 3.203125 C 36.433594 2.777344 37.25 2.722656 38.113281 2.792969 C 39 2.863281 40.03125 3.144531 40.792969 3.652344 C 41.570312 4.175781 42.21875 5.105469 42.710938 5.925781 C 43.175781 6.703125 43.429688 7.5625 43.726562 8.410156 C 44.023438 9.253906 44.601562 10.964844 44.476562 11.019531 C 44.347656 11.074219 43.671875 9.085938 42.980469 8.789062 C 42.289062 8.492188 40.453125 9.539062 40.296875 9.269531 C 40.144531 9 41.34375 7.605469 42.078125 7.167969 C 42.796875 6.730469 43.796875 6.644531 44.660156 6.617188 C 45.519531 6.589844 46.492188 6.6875 47.269531 7.027344 C 48.046875 7.363281 48.78125 8 49.34375 8.664062 C 49.910156 9.328125 50.332031 10.160156 50.644531 10.976562 C 50.953125 11.808594 51.109375 12.742188 51.207031 13.617188 C 51.292969 14.464844 50.855469 15.449219 51.207031 16.171875 C 51.601562 16.976562 53.113281 17.328125 53.761719 18.089844 C 54.355469 18.796875 55.300781 20.148438 55.046875 20.488281 C 54.707031 20.925781 51.234375 18.964844 50.558594 19.488281 C 50.035156 19.894531 50.613281 22.222656 50.488281 22.253906 C 50.445312 22.265625 50.429688 22.070312 50.332031 21.984375 C 50.105469 21.816406 49.246094 21.785156 48.878906 21.617188 C 48.625 21.492188 48.46875 21.390625 48.273438 21.179688 C 47.988281 20.882812 47.59375 20.390625 47.425781 19.9375 C 47.253906 19.488281 47.214844 18.9375 47.269531 18.457031 C 47.328125 17.976562 47.523438 17.453125 47.804688 17.058594 C 48.089844 16.664062 48.511719 16.296875 48.933594 16.085938 C 49.371094 15.859375 49.824219 15.746094 50.386719 15.746094 C 51.179688 15.746094 52.492188 15.917969 53.210938 16.410156 C 53.886719 16.875 54.324219 17.765625 54.621094 18.542969 C 54.917969 19.332031 54.917969 20.292969 54.945312 21.109375 C 54.976562 21.84375 54.960938 22.71875 54.863281 23.226562 C 54.804688 23.535156 54.75 23.679688 54.59375 23.933594 C 54.382812 24.285156 53.988281 24.765625 53.59375 25.046875 C 53.195312 25.316406 52.675781 25.527344 52.195312 25.582031 C 51.714844 25.640625 51.164062 25.570312 50.714844 25.398438 C 50.261719 25.230469 49.769531 24.835938 49.484375 24.554688 C 49.289062 24.355469 49.175781 24.199219 49.0625 23.933594 C 48.894531 23.566406 48.566406 23 48.695312 22.476562 C 48.90625 21.632812 50.332031 19.855469 51.261719 19.640625 C 52.039062 19.457031 53.226562 19.953125 53.746094 20.617188 C 54.367188 21.40625 54.707031 23.507812 54.296875 24.441406 C 53.945312 25.246094 52.730469 25.710938 51.871094 26.0625 C 51.050781 26.402344 49.359375 26.726562 49.289062 26.558594 C 49.203125 26.359375 51.730469 24.59375 51.914062 24.75 C 52.082031 24.90625 51.191406 27.09375 50.628906 27.175781 C 50.023438 27.277344 48.203125 25.214844 48.328125 24.976562 C 48.457031 24.75 50.21875 25.1875 51.082031 25.609375 C 52.011719 26.078125 53.027344 26.9375 53.675781 27.742188 C 54.253906 28.460938 54.621094 29.28125 54.917969 30.113281 C 55.214844 30.960938 55.554688 31.90625 55.441406 32.824219 C 55.300781 33.867188 54.679688 35.304688 53.902344 36.039062 C 53.183594 36.71875 51.941406 36.660156 51.09375 37.195312 C 50.261719 37.71875 49.203125 39.371094 48.863281 39.199219 C 48.511719 39.03125 48.78125 36.152344 49.078125 36.082031 C 49.386719 36.011719 50.386719 37.859375 50.699219 38.804688 C 50.996094 39.679688 50.980469 40.597656 50.980469 41.542969 C 50.980469 42.558594 51.09375 43.84375 50.613281 44.71875 C 50.121094 45.609375 49.089844 46.398438 47.976562 46.808594 C 46.59375 47.316406 43.953125 46.410156 42.78125 47.003906 C 41.9375 47.429688 41.792969 48.570312 41.117188 49.078125 C 40.441406 49.574219 39.59375 49.910156 38.71875 50.039062 C 37.746094 50.179688 36.472656 50.09375 35.515625 49.714844 C 34.542969 49.332031 33.554688 48.527344 32.902344 47.710938 C 32.285156 46.921875 31.972656 46.015625 31.632812 44.929688 C 31.195312 43.503906 30.929688 41.542969 30.746094 39.792969 C 30.5625 37.972656 30.476562 36.179688 30.546875 34.207031 C 30.632812 31.960938 31.378906 28.914062 31.351562 27.023438 C 31.324219 25.792969 31.042969 25.144531 30.898438 23.972656 C 30.71875 22.40625 30.40625 19.953125 30.421875 18.429688 C 30.433594 17.371094 30.519531 16.636719 30.703125 15.734375 C 30.886719 14.789062 31.195312 13.757812 31.550781 12.882812 C 31.875 12.0625 32.128906 11.289062 32.71875 10.609375 C 33.441406 9.792969 34.710938 8.875 35.769531 8.507812 C 36.714844 8.183594 38.265625 7.871094 38.703125 8.324219 C 39.128906 8.761719 38.816406 10.441406 38.464844 11.089844 C 38.195312 11.585938 37.617188 12.035156 37.164062 12.09375 C 36.742188 12.132812 36.234375 11.78125 35.867188 11.484375 C 35.5 11.1875 35.175781 10.695312 34.992188 10.34375 C 34.867188 10.089844 34.808594 9.917969 34.78125 9.636719 C 34.738281 9.242188 34.753906 8.636719 34.894531 8.199219 C 35.035156 7.761719 35.386719 7.265625 35.65625 6.984375 C 35.839844 6.773438 35.980469 6.671875 36.234375 6.546875 C 36.585938 6.363281 37.011719 6.179688 37.617188 6.136719 C 38.703125 6.066406 40.863281 6.503906 42.21875 6.914062 C 43.375 7.265625 44.378906 7.832031 45.324219 8.324219 C 46.15625 8.761719 46.890625 9.113281 47.582031 9.691406 C 48.328125 10.3125 49.203125 11.148438 49.597656 12.007812 C 49.964844 12.796875 50.132812 13.699219 49.964844 14.574219 C 49.769531 15.621094 48.976562 17.160156 48.160156 17.808594 C 47.46875 18.359375 46.507812 18.542969 45.632812 18.554688 C 44.6875 18.570312 43.175781 18.089844 42.667969 17.765625 C 42.445312 17.625 42.472656 17.453125 42.289062 17.3125 C 42.007812 17.085938 41.355469 16.960938 41.003906 16.664062 C 40.652344 16.367188 40.339844 15.929688 40.171875 15.507812 C 40.003906 15.070312 39.972656 14.476562 39.988281 14.082031 C 40.003906 13.800781 40.03125 13.628906 40.144531 13.375 C 40.296875 13.023438 40.609375 12.5 40.949219 12.191406 C 41.285156 11.878906 41.753906 11.613281 42.203125 11.5 C 42.65625 11.386719 43.261719 11.175781 43.644531 11.484375 C 44.378906 12.078125 44.957031 15.335938 44.742188 16.804688 C 44.574219 17.949219 44.011719 18.683594 43.175781 19.683594 C 41.921875 21.207031 38.875 23.410156 37.265625 24.511719 C 36.261719 25.1875 35.628906 25.9375 34.667969 25.964844 C 33.523438 25.992188 31.367188 25.074219 30.828125 24.085938 C 30.335938 23.183594 30.675781 21.714844 31.253906 20.445312 C 32.140625 18.527344 35.964844 15.082031 36.941406 14.308594 C 37.222656 14.082031 37.292969 14.054688 37.546875 13.953125 C 37.898438 13.828125 38.464844 13.6875 38.914062 13.714844 C 39.367188 13.742188 39.890625 13.96875 40.226562 14.152344 C 40.46875 14.28125 40.625 14.421875 40.777344 14.589844 C 40.949219 14.757812 41.074219 14.914062 41.203125 15.15625 C 41.371094 15.492188 41.582031 16.03125 41.597656 16.480469 C 41.609375 16.933594 41.457031 17.496094 41.316406 17.851562 C 41.214844 18.105469 41.1875 18.273438 40.949219 18.441406 C 40.46875 18.78125 38.746094 18.542969 38.039062 19.035156 C 37.417969 19.472656 37.179688 20.671875 36.8125 21.082031 C 36.617188 21.292969 36.488281 21.378906 36.25 21.492188 C 35.910156 21.644531 35.34375 21.84375 34.894531 21.84375 C 34.441406 21.84375 33.933594 21.730469 33.523438 21.519531 C 33.117188 21.308594 32.734375 20.96875 32.464844 20.601562 C 32.210938 20.234375 32.027344 19.671875 31.957031 19.304688 C 31.902344 19.035156 31.929688 18.824219 31.957031 18.597656 C 31.988281 18.359375 32 18.160156 32.113281 17.90625 C 32.269531 17.554688 32.621094 17.230469 32.902344 16.75 C 33.328125 16.042969 33.625 14.828125 34.328125 14.039062 C 35.132812 13.136719 36.53125 12.175781 37.601562 11.796875 C 38.476562 11.484375 39.351562 11.441406 40.1875 11.597656 C 41.019531 11.753906 41.964844 12.148438 42.597656 12.742188 C 43.261719 13.363281 43.683594 14.40625 44.011719 15.28125 C 44.320312 16.128906 44.476562 16.945312 44.519531 17.90625 C 44.558594 19.078125 44.304688 20.617188 44.082031 21.816406 C 43.882812 22.859375 43.644531 23.789062 43.320312 24.722656 C 42.992188 25.625 42.65625 26.332031 42.148438 27.320312 C 41.425781 28.730469 40.226562 30.988281 39.28125 32.285156 C 38.589844 33.230469 37.914062 34.121094 37.207031 34.542969 C 36.714844 34.839844 36.179688 34.925781 35.699219 34.925781 C 35.246094 34.925781 34.796875 34.828125 34.414062 34.628906 C 34.03125 34.429688 33.667969 34.105469 33.425781 33.753906 C 33.1875 33.402344 33.015625 32.964844 32.960938 32.539062 C 32.902344 32.117188 32.945312 31.621094 33.101562 31.226562 C 33.257812 30.832031 33.59375 30.394531 33.851562 30.140625 C 34.03125 29.957031 34.230469 30.015625 34.386719 29.773438 C 34.765625 29.195312 34.542969 27.289062 35.160156 25.992188 C 35.996094 24.257812 37.984375 22.195312 39.578125 20.601562 C 41.089844 19.089844 42.867188 17.074219 44.460938 16.636719 C 45.675781 16.296875 47.214844 16.566406 48.03125 17.144531 C 48.738281 17.636719 49.117188 18.640625 49.316406 19.570312 C 49.542969 20.65625 49.148438 22.082031 49.003906 23.351562 C 48.863281 24.636719 48.765625 26.359375 48.441406 27.25 C 48.257812 27.769531 48.058594 28.082031 47.75 28.390625 C 47.4375 28.703125 46.945312 28.96875 46.605469 29.097656 C 46.367188 29.195312 46.199219 29.222656 45.945312 29.222656 C 45.578125 29.222656 44.96875 29.109375 44.632812 28.984375 C 44.390625 28.898438 44.25 28.816406 44.050781 28.644531 C 43.785156 28.40625 43.390625 27.925781 43.21875 27.601562 C 43.09375 27.375 43.078125 27.261719 43.007812 26.953125 C 42.839844 26.191406 42.726562 24.171875 42.515625 22.914062 C 42.332031 21.800781 41.824219 20.585938 41.851562 19.769531 C 41.863281 19.234375 42.007812 18.851562 42.21875 18.46875 C 42.429688 18.089844 42.78125 17.722656 43.148438 17.484375 C 43.515625 17.242188 43.980469 17.085938 44.417969 17.046875 C 44.855469 17.003906 45.351562 17.085938 45.761719 17.257812 C 46.167969 17.425781 46.59375 17.792969 46.847656 18.0625 C 47.03125 18.257812 47.085938 18.359375 47.214844 18.640625 C 47.496094 19.304688 47.835938 20.941406 48.074219 22.152344 C 48.328125 23.453125 48.527344 24.695312 48.652344 26.203125 C 48.808594 28.082031 48.878906 30.789062 48.808594 32.539062 C 48.75 33.769531 48.652344 34.5 48.457031 35.6875 C 48.1875 37.296875 47.804688 39.78125 47.183594 41.273438 C 46.707031 42.402344 46.210938 43.492188 45.421875 44.054688 C 44.6875 44.578125 43.601562 44.632812 42.683594 44.703125 C 41.765625 44.773438 40.847656 44.507812 39.933594 44.464844 C 39 44.421875 37.660156 44.335938 37.136719 44.464844 C 36.910156 44.519531 36.871094 44.648438 36.699219 44.703125 C 36.503906 44.773438 36.261719 44.804688 35.996094 44.789062 C 35.613281 44.761719 35.035156 44.648438 34.625 44.4375 C 34.230469 44.226562 33.820312 43.800781 33.582031 43.492188 C 33.414062 43.277344 33.339844 43.125 33.257812 42.855469 C 33.144531 42.488281 33.03125 41.910156 33.085938 41.457031 C 33.144531 41.007812 33.398438 40.457031 33.59375 40.132812 C 33.738281 39.90625 33.863281 39.78125 34.074219 39.609375 C 34.386719 39.371094 34.824219 39.03125 35.332031 38.960938 C 36.007812 38.863281 37.390625 39.792969 37.84375 39.425781 C 38.367188 39.003906 37.675781 37.351562 37.929688 36.125 C 38.28125 34.445312 39.75 32.074219 40.3125 30.394531 C 40.734375 29.140625 40.863281 27.050781 41.203125 27.035156 C 41.554688 27.023438 42.273438 29.324219 42.414062 30.777344 C 42.597656 32.738281 41.992188 36.027344 41.570312 37.804688 C 41.300781 38.945312 41.171875 39.820312 40.582031 40.527344 C 39.960938 41.261719 38.816406 41.855469 37.871094 42.09375 C 36.96875 42.320312 35.910156 42.292969 35.019531 42.007812 C 34.105469 41.710938 32.960938 40.824219 32.464844 40.316406 C 32.199219 40.035156 32.101562 39.808594 31.988281 39.527344 C 31.875 39.242188 31.789062 38.933594 31.773438 38.621094 C 31.761719 38.324219 31.789062 38 31.875 37.703125 C 31.957031 37.410156 32.085938 37.113281 32.253906 36.859375 C 32.425781 36.605469 32.636719 36.363281 32.875 36.179688 C 33.117188 35.996094 33.414062 35.84375 33.695312 35.742188 C 33.992188 35.644531 34.300781 35.574219 34.613281 35.574219 C 34.921875 35.574219 35.246094 35.617188 35.527344 35.714844 C 35.824219 35.8125 36.109375 35.96875 36.347656 36.152344 C 36.585938 36.335938 36.828125 36.5625 36.996094 36.816406 C 37.164062 37.070312 37.308594 37.351562 37.390625 37.648438 C 37.476562 37.945312 37.503906 38.253906 37.492188 38.566406 C 37.476562 38.875 37.417969 39.199219 37.308594 39.484375 C 37.195312 39.765625 37.039062 40.046875 36.839844 40.273438 C 36.644531 40.511719 36.402344 40.726562 36.136719 40.878906 C 35.882812 41.035156 35.570312 41.164062 35.273438 41.234375 C 34.980469 41.304688 34.652344 41.316406 34.359375 41.289062 C 34.046875 41.261719 33.738281 41.175781 33.453125 41.050781 C 33.171875 40.921875 32.902344 40.753906 32.679688 40.542969 C 32.453125 40.328125 32.253906 40.074219 32.113281 39.808594 C 31.972656 39.539062 31.875 39.230469 31.816406 38.933594 C 31.761719 38.636719 31.761719 38.296875 31.804688 38 C 31.847656 37.703125 31.945312 37.394531 32.085938 37.125 C 32.226562 36.859375 32.425781 36.589844 32.648438 36.378906 C 32.875 36.167969 33.144531 35.984375 33.414062 35.855469 C 33.695312 35.730469 34.003906 35.628906 34.300781 35.601562 C 34.597656 35.574219 34.851562 35.574219 35.21875 35.644531 C 35.824219 35.757812 37.378906 35.96875 37.519531 36.433594 C 37.675781 36.929688 36.191406 38.691406 35.894531 38.578125 C 35.304688 38.339844 36.488281 30.761719 37.054688 27.980469 C 37.433594 26.121094 37.785156 24.582031 38.421875 23.425781 C 38.886719 22.5625 39.367188 21.898438 40.128906 21.449219 C 41.003906 20.941406 42.457031 20.585938 43.503906 20.757812 C 44.519531 20.925781 45.71875 21.617188 46.324219 22.4375 C 46.945312 23.269531 47.101562 24.539062 47.128906 25.765625 C 47.171875 27.289062 46.523438 29.507812 46.15625 30.902344 C 45.902344 31.890625 45.632812 32.566406 45.335938 33.386719 C 45.039062 34.207031 44.816406 34.839844 44.40625 35.828125 C 43.742188 37.421875 42.515625 40.429688 41.609375 41.996094 C 41.003906 43.054688 40.679688 44.027344 39.820312 44.507812 C 38.859375 45.042969 36.941406 44.875 35.996094 44.789062 C 35.417969 44.734375 34.980469 44.589844 34.625 44.4375 C 34.386719 44.324219 34.230469 44.226562 34.046875 44.027344 C 33.777344 43.757812 33.414062 43.277344 33.257812 42.855469 C 33.101562 42.433594 33.03125 41.910156 33.085938 41.457031 C 33.144531 41.007812 33.398438 40.457031 33.59375 40.132812 C 33.738281 39.90625 33.863281 39.78125 34.074219 39.609375 C 34.386719 39.371094 34.9375 39.117188 35.332031 38.960938 C 35.65625 38.832031 35.839844 38.75 36.234375 38.679688 C 36.984375 38.550781 38.449219 38.691406 39.480469 38.59375 C 40.410156 38.507812 41.527344 38.792969 42.148438 38.183594 C 43.066406 37.308594 43.066406 34.078125 43.207031 32.554688 C 43.304688 31.539062 43.234375 30.890625 43.21875 29.984375 C 43.207031 28.957031 43.21875 27.796875 43.121094 26.699219 C 43.023438 25.597656 42.824219 24.523438 42.628906 23.394531 C 42.414062 22.210938 41.824219 20.671875 41.851562 19.769531 C 41.863281 19.21875 42.007812 18.851562 42.21875 18.46875 C 42.429688 18.089844 42.78125 17.722656 43.148438 17.484375 C 43.515625 17.242188 43.980469 17.085938 44.417969 17.046875 C 44.855469 17.003906 45.351562 17.085938 45.761719 17.257812 C 46.167969 17.425781 46.59375 17.792969 46.847656 18.0625 C 47.03125 18.257812 47.101562 18.371094 47.214844 18.640625 C 47.425781 19.132812 47.636719 20.09375 47.804688 20.898438 C 48.003906 21.816406 48.160156 22.914062 48.285156 23.890625 C 48.398438 24.808594 48.566406 25.992188 48.554688 26.585938 C 48.539062 26.882812 48.527344 27.007812 48.441406 27.25 C 48.3125 27.585938 47.988281 28.125 47.75 28.390625 C 47.582031 28.589844 47.453125 28.6875 47.226562 28.816406 C 46.902344 28.984375 46.308594 29.179688 45.945312 29.222656 C 45.6875 29.253906 45.519531 29.238281 45.265625 29.179688 C 44.914062 29.097656 44.390625 28.914062 44.050781 28.644531 C 43.714844 28.378906 43.402344 27.996094 43.21875 27.601562 C 43.035156 27.207031 42.964844 26.882812 42.964844 26.273438 C 42.964844 24.992188 43.21875 20.644531 44.082031 20.261719 C 44.671875 20.007812 46.523438 21.265625 46.550781 21.816406 C 46.578125 22.335938 45.140625 22.875 44.449219 23.480469 C 43.714844 24.117188 43.023438 24.75 42.300781 25.554688 C 41.457031 26.515625 40.46875 27.882812 39.75 28.886719 C 39.183594 29.660156 38.71875 30.183594 38.28125 31.015625 C 37.757812 32.03125 37.589844 34.035156 36.96875 34.601562 C 36.601562 34.925781 36.121094 34.925781 35.699219 34.925781 C 35.273438 34.925781 34.796875 34.828125 34.414062 34.628906 C 34.03125 34.429688 33.652344 34.035156 33.425781 33.753906 C 33.269531 33.554688 33.1875 33.414062 33.117188 33.175781 C 33.003906 32.835938 32.933594 32.230469 32.945312 31.875 C 32.960938 31.621094 33.015625 31.4375 33.101562 31.226562 C 33.171875 31.03125 33.257812 30.847656 33.414062 30.648438 C 33.636719 30.367188 34.089844 30.097656 34.386719 29.773438 C 34.683594 29.433594 34.878906 29.125 35.191406 28.632812 C 35.726562 27.785156 36.644531 26.289062 37.207031 25.046875 C 37.773438 23.804688 38.394531 22.378906 38.5625 21.167969 C 38.703125 20.148438 38.632812 18.359375 38.367188 18.300781 C 38.082031 18.230469 37.25 20.585938 36.8125 21.082031 C 36.601562 21.308594 36.488281 21.378906 36.25 21.492188 C 35.910156 21.644531 35.34375 21.84375 34.894531 21.84375 C 34.441406 21.84375 33.933594 21.730469 33.523438 21.519531 C 33.117188 21.308594 32.734375 20.96875 32.464844 20.601562 C 32.210938 20.234375 32.015625 19.753906 31.957031 19.304688 C 31.902344 18.851562 32 18.273438 32.113281 17.90625 C 32.199219 17.652344 32.3125 17.484375 32.4375 17.285156 C 32.566406 17.085938 32.664062 16.960938 32.902344 16.75 C 33.382812 16.3125 34.386719 15.464844 35.316406 15.011719 C 36.363281 14.503906 38.902344 13.898438 38.914062 13.925781 C 38.914062 13.941406 36.488281 14.886719 36.433594 14.789062 C 36.390625 14.71875 37.207031 14.125 37.546875 13.953125 C 37.785156 13.84375 37.984375 13.800781 38.210938 13.757812 C 38.4375 13.714844 38.648438 13.6875 38.914062 13.714844 C 39.296875 13.757812 39.847656 13.914062 40.226562 14.152344 C 40.609375 14.390625 40.976562 14.757812 41.203125 15.15625 C 41.425781 15.535156 41.554688 16.113281 41.597656 16.480469 C 41.625 16.75 41.582031 16.945312 41.539062 17.171875 C 41.5 17.398438 41.425781 17.609375 41.316406 17.851562 C 41.160156 18.175781 40.917969 18.511719 40.609375 18.90625 C 40.144531 19.515625 39.464844 20.503906 38.660156 21.066406 C 37.785156 21.6875 36.277344 22.632812 35.472656 22.367188 C 34.710938 22.113281 33.765625 20.472656 33.90625 19.726562 C 34.046875 18.980469 35.558594 18.554688 36.363281 17.878906 C 37.207031 17.160156 38.097656 16.4375 38.832031 15.535156 C 39.605469 14.574219 40.285156 12.203125 40.835938 12.277344 C 41.484375 12.359375 42.65625 17.003906 42.289062 17.3125 C 42.089844 17.46875 41.355469 16.960938 41.003906 16.664062 C 40.652344 16.367188 40.339844 15.929688 40.171875 15.507812 C 40.003906 15.070312 39.945312 14.546875 39.988281 14.082031 C 40.03125 13.617188 40.214844 13.109375 40.46875 12.726562 C 40.722656 12.347656 41.132812 11.992188 41.539062 11.769531 C 41.949219 11.542969 42.527344 11.429688 42.921875 11.402344 C 43.207031 11.386719 43.359375 11.386719 43.644531 11.484375 C 44.09375 11.65625 45.335938 12.21875 45.308594 12.558594 C 45.28125 12.953125 43.683594 13.6875 42.851562 13.699219 C 41.992188 13.714844 41.160156 12.839844 40.242188 12.570312 C 39.269531 12.289062 37.957031 12.332031 37.164062 12.09375 C 36.628906 11.921875 36.234375 11.78125 35.867188 11.484375 C 35.5 11.1875 35.175781 10.695312 34.992188 10.34375 C 34.867188 10.089844 34.808594 9.917969 34.78125 9.636719 C 34.738281 9.242188 34.753906 8.636719 34.894531 8.199219 C 35.035156 7.761719 35.386719 7.265625 35.65625 6.984375 C 35.839844 6.773438 36.023438 6.671875 36.234375 6.546875 C 36.445312 6.417969 36.644531 6.304688 36.910156 6.25 C 37.292969 6.164062 37.816406 6.109375 38.351562 6.195312 C 39.058594 6.304688 39.933594 6.703125 40.722656 7.082031 C 41.554688 7.476562 42.78125 7.773438 43.21875 8.550781 C 43.714844 9.425781 43.726562 11.34375 43.191406 12.277344 C 42.65625 13.191406 41.089844 13.699219 40.03125 14.097656 C 39.097656 14.449219 37.855469 14.125 37.25 14.675781 C 36.644531 15.226562 36.53125 16.425781 36.402344 17.382812 C 36.261719 18.398438 36.402344 19.515625 36.515625 20.617188 C 36.628906 21.773438 36.953125 22.988281 37.082031 24.128906 C 37.207031 25.214844 37.292969 26.019531 37.277344 27.304688 C 37.265625 29.324219 36.742188 33.046875 36.6875 35.050781 C 36.644531 36.320312 36.628906 37.011719 36.726562 38.183594 C 36.871094 39.695312 36.871094 43.109375 37.589844 43.363281 C 38.183594 43.574219 39.28125 41.429688 40.269531 41.007812 C 41.160156 40.625 42.230469 40.695312 43.175781 40.753906 C 44.082031 40.808594 45.648438 41.558594 45.816406 41.289062 C 45.984375 41.019531 44.488281 39.921875 44.164062 39.089844 C 43.828125 38.226562 43.683594 37.070312 43.867188 36.195312 C 44.039062 35.375 44.546875 34.585938 45.109375 33.964844 C 45.6875 33.332031 46.492188 32.933594 47.296875 32.457031 C 48.1875 31.917969 49.769531 30.675781 50.246094 30.972656 C 50.726562 31.269531 50.5 34.105469 50.21875 34.175781 C 49.851562 34.261719 47.566406 29.660156 47.75 29.535156 C 47.890625 29.433594 50.035156 31.46875 49.894531 31.707031 C 49.753906 31.949219 47.835938 31.511719 47 31.042969 C 46.167969 30.578125 45.28125 29.832031 44.886719 28.941406 C 44.460938 27.980469 44.488281 26.484375 44.714844 25.386719 C 44.925781 24.328125 45.363281 23.167969 46.113281 22.421875 C 46.902344 21.617188 48.792969 20.472656 49.441406 20.8125 C 50.078125 21.136719 49.441406 23.566406 50.035156 24.3125 C 50.53125 24.933594 51.628906 25.457031 52.378906 25.285156 C 53.296875 25.089844 54.734375 22.367188 54.945312 22.476562 C 55.085938 22.550781 54.761719 23.566406 54.59375 23.933594 C 54.46875 24.199219 54.367188 24.339844 54.15625 24.554688 C 53.859375 24.835938 53.378906 25.230469 52.929688 25.398438 C 52.476562 25.570312 51.925781 25.640625 51.445312 25.582031 C 50.96875 25.527344 50.402344 25.257812 50.050781 25.046875 C 49.808594 24.890625 49.667969 24.777344 49.484375 24.554688 C 49.230469 24.226562 48.964844 23.789062 48.792969 23.226562 C 48.539062 22.367188 48.1875 19.882812 48.496094 19.753906 C 48.78125 19.640625 50.472656 21.773438 50.332031 21.984375 C 50.234375 22.140625 49.300781 21.84375 48.878906 21.617188 C 48.457031 21.390625 48.046875 21.011719 47.777344 20.617188 C 47.511719 20.207031 47.3125 19.683594 47.253906 19.203125 C 47.199219 18.726562 47.328125 18.105469 47.453125 17.722656 C 47.539062 17.453125 47.621094 17.285156 47.804688 17.058594 C 48.058594 16.75 48.511719 16.296875 48.933594 16.085938 C 49.371094 15.859375 49.910156 15.789062 50.386719 15.746094 C 50.839844 15.703125 51.222656 15.675781 51.714844 15.832031 C 52.449219 16.058594 53.632812 16.523438 54.253906 17.285156 C 54.988281 18.1875 55.695312 20.09375 55.523438 21.207031 C 55.382812 22.140625 54.679688 23.210938 53.875 23.605469 C 52.984375 24.042969 51.445312 23.875 50.277344 23.410156 C 48.851562 22.84375 47 21.207031 46.125 19.925781 C 45.421875 18.894531 45.167969 17.667969 44.996094 16.609375 C 44.855469 15.703125 44.886719 14.84375 45.011719 13.996094 C 45.140625 13.136719 45.886719 11.542969 45.761719 11.484375 C 45.632812 11.429688 44.855469 13.277344 44.152344 13.800781 C 43.472656 14.292969 42.5 14.675781 41.683594 14.605469 C 40.792969 14.519531 39.636719 13.871094 39.015625 13.179688 C 38.40625 12.5 38.011719 11.414062 37.957031 10.539062 C 37.898438 9.707031 38.730469 8.097656 38.605469 8.042969 C 38.464844 7.984375 37.546875 9.46875 37.125 10.242188 C 36.6875 11.046875 36.585938 11.878906 36.007812 12.8125 C 35.175781 14.167969 33.285156 16.199219 32.226562 17.355469 C 31.519531 18.132812 31.195312 18.570312 30.390625 19.203125 C 29.179688 20.164062 26.878906 21.449219 25.425781 22.210938 C 24.351562 22.761719 23.351562 23.410156 22.546875 23.480469 C 22.011719 23.535156 21.5 23.3125 21.148438 23.15625 C 20.894531 23.042969 20.738281 22.945312 20.542969 22.746094 C 20.261719 22.476562 19.878906 22.011719 19.710938 21.574219 C 19.539062 21.136719 19.46875 20.617188 19.511719 20.148438 C 19.554688 19.683594 19.808594 19.132812 20.007812 18.796875 C 20.148438 18.554688 20.273438 18.414062 20.484375 18.246094 C 20.796875 18.003906 21.375 17.667969 21.742188 17.554688 C 22.011719 17.46875 22.40625 17.371094 22.460938 17.46875 C 22.546875 17.609375 21.542969 18.597656 21.644531 18.710938 C 21.785156 18.878906 23.84375 17.3125 24.480469 17.257812 C 24.777344 17.230469 24.929688 17.339844 25.171875 17.46875 C 25.523438 17.652344 26.046875 18.0625 26.300781 18.359375 C 26.484375 18.570312 26.582031 18.726562 26.679688 18.980469 C 26.820312 19.34375 26.964844 19.925781 26.933594 20.390625 C 26.90625 20.855469 26.75 21.363281 26.511719 21.757812 C 26.273438 22.152344 25.820312 22.550781 25.496094 22.773438 C 25.269531 22.929688 25.101562 23 24.832031 23.070312 C 24.453125 23.167969 23.757812 23.339844 23.394531 23.15625 C 23.027344 22.972656 22.914062 22.011719 22.628906 22.011719 C 22.234375 22.027344 21.53125 23.621094 21.246094 24.3125 C 21.035156 24.820312 21.050781 25.34375 20.894531 25.695312 C 20.78125 25.949219 20.683594 26.089844 20.484375 26.289062 C 20.203125 26.558594 19.738281 26.9375 19.300781 27.09375 C 18.863281 27.25 18.339844 27.304688 17.890625 27.25 C 17.421875 27.191406 16.886719 26.921875 16.546875 26.726562 C 16.308594 26.585938 16.183594 26.457031 16.011719 26.246094 C 15.773438 25.9375 15.476562 25.46875 15.363281 24.992188 C 15.222656 24.410156 15.308594 23.71875 15.347656 22.988281 C 15.40625 22.082031 15.503906 21.152344 15.714844 19.980469 C 16.027344 18.316406 16.832031 14.957031 17.226562 13.984375 C 17.367188 13.644531 17.453125 13.546875 17.59375 13.347656 C 17.734375 13.152344 17.859375 12.980469 18.085938 12.824219 C 18.410156 12.601562 18.933594 12.304688 19.398438 12.21875 C 19.851562 12.132812 20.386719 12.164062 20.839844 12.289062 C 21.289062 12.417969 21.742188 12.699219 22.082031 13.023438 C 22.417969 13.347656 22.703125 13.800781 22.84375 14.238281 C 22.984375 14.675781 22.984375 15.28125 22.941406 15.675781 C 22.914062 15.957031 22.828125 16.339844 22.730469 16.367188 C 22.660156 16.382812 22.558594 16.128906 22.488281 16.15625 C 22.136719 16.3125 22.589844 22.773438 22.335938 24.808594 C 22.191406 25.9375 21.996094 26.585938 21.714844 27.417969 C 21.445312 28.234375 21.007812 28.898438 20.683594 29.800781 C 20.289062 30.917969 19.964844 32.738281 19.570312 33.65625 C 19.328125 34.207031 19.171875 34.558594 18.847656 34.898438 C 18.523438 35.222656 18.074219 35.503906 17.636719 35.644531 C 17.199219 35.785156 16.660156 35.828125 16.210938 35.757812 C 15.757812 35.6875 15.265625 35.476562 14.898438 35.191406 C 14.53125 34.910156 14.207031 34.5 14.007812 34.078125 C 13.8125 33.65625 13.726562 33.105469 13.726562 32.667969 C 13.726562 32.273438 13.824219 31.976562 13.9375 31.539062 C 14.105469 30.875 14.207031 29.832031 14.742188 29.125 C 15.390625 28.265625 16.859375 27.035156 17.832031 27.007812 C 18.664062 26.980469 19.667969 27.769531 20.21875 28.417969 C 20.738281 29.039062 20.9375 29.84375 21.105469 30.804688 C 21.359375 32.1875 21.332031 34.5 21.09375 35.996094 C 20.910156 37.183594 20.753906 38.523438 20.078125 39.117188 C 19.457031 39.667969 17.804688 40.089844 17.324219 39.597656 C 16.4375 38.691406 18.695312 32.496094 19.058594 30.226562 C 19.273438 28.925781 19.355469 28.195312 19.46875 27.148438 C 19.582031 26.0625 19.652344 25.117188 19.710938 23.789062 C 19.78125 21.84375 19.667969 18.484375 19.753906 16.578125 C 19.808594 15.324219 19.78125 14.433594 20.007812 13.476562 C 20.21875 12.570312 20.386719 11.597656 20.992188 10.964844 C 21.671875 10.257812 23.082031 9.734375 24.097656 9.59375 C 24.988281 9.46875 25.933594 9.550781 26.722656 9.945312 C 27.597656 10.382812 28.613281 11.402344 29.039062 12.304688 C 29.433594 13.152344 29.332031 14.179688 29.332031 15.140625 C 29.332031 16.128906 29.234375 16.902344 29.023438 18.144531 C 28.671875 20.25 27.414062 24.355469 27.035156 26.558594 C 26.792969 27.953125 26.710938 28.671875 26.652344 30.027344 C 26.582031 31.890625 26.652344 34.882812 26.890625 36.730469 C 27.0625 38.058594 27.472656 38.976562 27.640625 40.132812 C 27.824219 41.332031 28.542969 43.335938 27.949219 43.800781 C 27.21875 44.378906 23.222656 42.984375 22.488281 41.9375 C 21.96875 41.203125 22.476562 40.105469 22.53125 39.117188 C 22.589844 38 22.671875 37.226562 22.855469 35.601562 C 23.28125 31.917969 25.101562 21.082031 25.324219 17.554688 C 25.425781 16.101562 25.4375 15.449219 25.3125 14.464844 C 25.183594 13.503906 24.988281 12.542969 24.578125 11.695312 C 24.15625 10.835938 22.617188 9.609375 22.8125 9.328125 C 23.027344 9.015625 26.046875 9.707031 26.160156 10.171875 C 26.257812 10.582031 25 11.457031 24.183594 11.824219 C 23.195312 12.261719 21.402344 11.753906 20.5 12.332031 C 19.679688 12.855469 19.300781 13.882812 18.878906 14.941406 C 18.3125 16.339844 18.59375 19.007812 17.777344 20.109375 C 17.15625 20.941406 15.5625 21.816406 15.109375 21.5625 C 14.6875 21.320312 14.757812 18.980469 14.96875 18.90625 C 15.207031 18.835938 15.984375 20.871094 16.621094 21.703125 C 17.210938 22.476562 18.226562 22.957031 18.636719 23.761719 C 19.046875 24.566406 19.144531 25.570312 19.101562 26.515625 C 19.058594 27.53125 18.917969 28.828125 18.285156 29.675781 C 17.59375 30.621094 14.839844 31.257812 14.898438 31.765625 C 14.941406 32.1875 16.761719 32.117188 17.492188 32.625 C 18.242188 33.148438 18.804688 33.964844 19.300781 34.867188 C 19.878906 35.925781 20.894531 37.761719 20.597656 38.664062 C 20.34375 39.414062 18.3125 39.949219 18.382812 40.175781 C 18.453125 40.398438 20.132812 40.003906 21.007812 40.0625 C 21.898438 40.117188 22.871094 40.203125 23.6875 40.554688 C 24.507812 40.921875 25.425781 41.515625 25.917969 42.234375 C 26.414062 42.941406 26.484375 44.84375 26.667969 44.832031 C 26.851562 44.816406 27.019531 42.984375 27.019531 42.066406 C 27.019531 41.148438 26.722656 40.5 26.667969 39.328125 C 26.566406 37.265625 26.679688 33.359375 26.890625 30.789062 C 27.074219 28.644531 27.511719 27.050781 27.710938 24.917969 C 27.949219 22.378906 28.121094 19.121094 28.132812 16.566406 C 28.148438 14.390625 28.261719 12.050781 27.910156 10.527344 C 27.683594 9.523438 27.472656 8.734375 26.878906 8.140625 C 26.214844 7.476562 24.4375 7.449219 23.941406 6.886719 C 23.632812 6.53125 23.617188 6.011719 23.578125 5.65625 C 23.546875 5.402344 23.5625 5.246094 23.617188 5.007812 C 23.703125 4.667969 23.957031 4.117188 24.15625 3.835938 C 24.296875 3.640625 24.453125 3.511719 24.621094 3.386719 C 24.789062 3.257812 24.945312 3.144531 25.183594 3.0625 C 25.507812 2.933594 26.03125 2.804688 26.453125 2.835938 C 26.863281 2.863281 27.328125 3.003906 27.683594 3.230469 C 28.035156 3.441406 28.515625 4.191406 28.570312 4.148438 C 28.601562 4.132812 28.417969 3.765625 28.445312 3.753906 C 28.53125 3.710938 30.222656 5.277344 30.449219 6.277344 C 30.703125 7.394531 30.054688 9.398438 29.546875 10.203125 C 29.234375 10.679688 28.714844 10.921875 28.375 11.105469 C 28.164062 11.230469 28.035156 11.289062 27.796875 11.332031 C 27.472656 11.386719 26.890625 11.386719 26.566406 11.332031 C 26.328125 11.289062 26.171875 11.203125 25.988281 11.105469 C 25.804688 11.003906 25.652344 10.933594 25.480469 10.765625 C 25.242188 10.527344 24.917969 10.117188 24.777344 9.75 C 24.632812 9.367188 24.578125 8.917969 24.621094 8.523438 C 24.664062 8.125 24.886719 7.660156 25.058594 7.378906 C 25.183594 7.179688 25.46875 6.914062 25.46875 6.914062 " clip-rule="nonzero"/></clipPath><clipPath id="90003b1f4b"><path d="M 8.101562 1.765625 L 34 1.765625 L 34 51.839844 L 8.101562 51.839844 Z M 8.101562 1.765625 " clip-rule="nonzero"/></clipPath><clipPath id="755e213af9"><path d="M 31 1.765625 L 56.703125 1.765625 L 56.703125 51.839844 L 31 51.839844 Z M 31 1.765625 " clip-rule="nonzero"/></clipPath><clipPath id="60715c7ee7"><path d="M 31.265625 5.4375 L 31.804688 5.4375 L 31.804688 5.894531 L 31.265625 5.894531 Z M 31.265625 5.4375 " clip-rule="nonzero"/></clipPath><clipPath id="3aaced3e5c"><path d="M 31.804688 5.601562 C 31.5625 5.980469 31.351562 5.910156 31.296875 5.828125 C 31.238281 5.742188 31.28125 5.515625 31.351562 5.460938 C 31.421875 5.402344 31.734375 5.488281 31.734375 5.488281 " clip-rule="nonzero"/></clipPath><clipPath id="8bf5f812c7"><path d="M 29 46 L 32 46 L 32 50 L 29 50 Z M 29 46 " clip-rule="nonzero"/></clipPath><clipPath id="e4e3b1225f"><path d="M 31.878906 46.800781 L 30.660156 49.484375 L 29.988281 49.179688 L 31.207031 46.496094 Z M 31.878906 46.800781 " clip-rule="nonzero"/></clipPath><clipPath id="77ce1f1060"><path d="M 31.878906 46.800781 L 30.660156 49.484375 L 29.988281 49.179688 L 31.207031 46.496094 Z M 31.878906 46.800781 " clip-rule="nonzero"/></clipPath><clipPath id="210efe72ac"><path d="M 33 46 L 35 46 L 35 50 L 33 50 Z M 33 46 " clip-rule="nonzero"/></clipPath><clipPath id="eea578cc6a"><path d="M 34.121094 46.109375 L 35.101562 48.886719 L 34.40625 49.132812 L 33.425781 46.355469 Z M 34.121094 46.109375 " clip-rule="nonzero"/></clipPath><clipPath id="c9b97c6b7d"><path d="M 33.230469 46.421875 L 34.210938 49.199219 L 34.90625 48.953125 L 33.925781 46.179688 Z M 33.230469 46.421875 " clip-rule="nonzero"/></clipPath><clipPath id="1343961b1d"><path d="M 29 4 L 32 4 L 32 7 L 29 7 Z M 29 4 " clip-rule="nonzero"/></clipPath><clipPath id="e18cc85de3"><path d="M 30.664062 3.894531 L 31.835938 6.597656 L 31.160156 6.890625 L 29.988281 4.1875 Z M 30.664062 3.894531 " clip-rule="nonzero"/></clipPath><clipPath id="b01c93cb06"><path d="M 30.664062 3.894531 L 31.835938 6.597656 L 31.160156 6.890625 L 29.988281 4.1875 Z M 30.664062 3.894531 " clip-rule="nonzero"/></clipPath><clipPath id="68aac27b43"><path d="M 33 3 L 36 3 L 36 7 L 33 7 Z M 33 3 " clip-rule="nonzero"/></clipPath><clipPath id="3133425c57"><path d="M 33.28125 6.300781 L 34.703125 3.722656 L 35.347656 4.078125 L 33.925781 6.65625 Z M 33.28125 6.300781 " clip-rule="nonzero"/></clipPath><clipPath id="6f54c806ea"><path d="M 33.28125 6.300781 L 34.703125 3.722656 L 35.347656 4.078125 L 33.925781 6.65625 Z M 33.28125 6.300781 " clip-rule="nonzero"/></clipPath><clipPath id="03431b0423"><path d="M 18.140625 23.050781 L 30.660156 23.050781 L 30.660156 36.628906 L 18.140625 36.628906 Z M 18.140625 23.050781 " clip-rule="nonzero"/></clipPath><clipPath id="7add1209ae"><path d="M 34.1875 31.261719 L 43.398438 31.261719 L 43.398438 44.839844 L 34.1875 44.839844 Z M 34.1875 31.261719 " clip-rule="nonzero"/></clipPath><clipPath id="69b41359db"><path d="M 34.535156 13.386719 L 46.949219 13.386719 L 46.949219 26.777344 L 34.535156 26.777344 Z M 34.535156 13.386719 " clip-rule="nonzero"/></clipPath></defs><g clip-path="url(#de1f418e69)"><g clip-path="url(#9f15363119)"><path fill="#ffa7b4" d="M 8.644531 2.226562 L 56.089844 2.226562 L 56.089844 51.359375 L 8.644531 51.359375 Z M 8.644531 2.226562 " fill-opacity="1" fill-rule="nonzero"/></g></g><g clip-path="url(#90003b1f4b)"><path fill="#211f1e" d="M 21.554688 45.21875 C 21.695312 45.21875 21.832031 45.25 21.957031 45.3125 C 22.226562 45.449219 22.414062 45.710938 22.453125 46.011719 C 22.75 48.289062 24.683594 50.007812 26.941406 50.007812 C 29.453125 50.007812 31.496094 47.941406 31.496094 45.40625 L 31.496094 8.199219 C 31.496094 5.660156 29.453125 3.59375 26.941406 3.59375 C 24.683594 3.59375 22.75 5.3125 22.453125 7.589844 C 22.414062 7.890625 22.226562 8.152344 21.957031 8.289062 C 21.691406 8.425781 21.375 8.417969 21.109375 8.265625 C 20.398438 7.859375 19.652344 7.652344 18.886719 7.652344 C 16.375 7.652344 14.335938 9.71875 14.335938 12.257812 C 14.335938 13.332031 14.710938 14.347656 15.421875 15.203125 C 15.652344 15.480469 15.699219 15.871094 15.539062 16.195312 C 15.378906 16.523438 15.03125 16.726562 14.6875 16.707031 C 14.660156 16.703125 14.515625 16.6875 14.488281 16.683594 C 14.484375 16.683594 14.480469 16.683594 14.476562 16.683594 C 11.949219 16.683594 9.910156 18.746094 9.910156 21.28125 C 9.910156 23.820312 11.953125 25.886719 14.464844 25.886719 C 14.964844 25.886719 15.367188 26.296875 15.367188 26.800781 C 15.367188 27.308594 14.964844 27.714844 14.464844 27.714844 C 11.953125 27.714844 9.910156 29.78125 9.910156 32.320312 C 9.910156 34.855469 11.953125 36.921875 14.464844 36.921875 L 14.6875 36.898438 C 15.035156 36.867188 15.378906 37.078125 15.539062 37.40625 C 15.699219 37.730469 15.652344 38.121094 15.421875 38.398438 C 14.710938 39.253906 14.335938 40.273438 14.335938 41.347656 C 14.335938 43.882812 16.375 45.949219 18.886719 45.949219 C 19.652344 45.949219 20.398438 45.742188 21.109375 45.335938 C 21.25 45.257812 21.402344 45.21875 21.554688 45.21875 Z M 26.941406 51.835938 C 24.179688 51.835938 21.769531 50.007812 20.925781 47.425781 C 20.265625 47.660156 19.582031 47.777344 18.886719 47.777344 C 15.378906 47.777344 12.527344 44.894531 12.527344 41.347656 C 12.527344 40.386719 12.734375 39.464844 13.140625 38.613281 C 10.265625 37.996094 8.101562 35.410156 8.101562 32.320312 C 8.101562 29.980469 9.34375 27.925781 11.195312 26.800781 C 9.34375 25.675781 8.101562 23.625 8.101562 21.28125 C 8.101562 18.195312 10.265625 15.605469 13.140625 14.988281 C 12.734375 14.140625 12.527344 13.214844 12.527344 12.257812 C 12.527344 8.710938 15.378906 5.824219 18.886719 5.824219 C 19.582031 5.824219 20.265625 5.941406 20.925781 6.175781 C 21.769531 3.59375 24.179688 1.765625 26.941406 1.765625 C 30.449219 1.765625 33.304688 4.652344 33.304688 8.199219 L 33.304688 45.40625 C 33.304688 48.953125 30.449219 51.835938 26.941406 51.835938 " fill-opacity="1" fill-rule="nonzero"/></g><g clip-path="url(#755e213af9)"><path fill="#211f1e" d="M 37.855469 3.59375 C 35.347656 3.59375 33.304688 5.660156 33.304688 8.199219 L 33.304688 45.40625 C 33.304688 47.941406 35.347656 50.007812 37.855469 50.007812 C 40.117188 50.007812 42.046875 48.289062 42.347656 46.011719 C 42.386719 45.710938 42.574219 45.449219 42.839844 45.3125 C 43.109375 45.179688 43.429688 45.1875 43.6875 45.335938 C 44.402344 45.742188 45.148438 45.949219 45.910156 45.949219 C 48.421875 45.949219 50.464844 43.882812 50.464844 41.347656 C 50.464844 40.273438 50.089844 39.253906 49.378906 38.398438 C 49.148438 38.121094 49.101562 37.730469 49.261719 37.402344 C 49.417969 37.078125 49.753906 36.863281 50.117188 36.898438 C 50.140625 36.898438 50.289062 36.914062 50.316406 36.917969 C 50.320312 36.917969 50.320312 36.917969 50.324219 36.917969 C 52.851562 36.917969 54.890625 34.855469 54.890625 32.320312 C 54.890625 29.78125 52.847656 27.714844 50.335938 27.714844 C 49.835938 27.714844 49.433594 27.308594 49.433594 26.800781 C 49.433594 26.296875 49.835938 25.886719 50.335938 25.886719 C 52.847656 25.886719 54.890625 23.820312 54.890625 21.28125 C 54.890625 18.746094 52.847656 16.679688 50.335938 16.679688 C 50.25 16.695312 50.183594 16.703125 50.117188 16.707031 C 49.757812 16.730469 49.417969 16.523438 49.261719 16.199219 C 49.101562 15.871094 49.148438 15.480469 49.378906 15.203125 C 50.089844 14.347656 50.464844 13.332031 50.464844 12.257812 C 50.464844 9.71875 48.421875 7.652344 45.910156 7.652344 C 45.148438 7.652344 44.402344 7.859375 43.6875 8.265625 C 43.425781 8.417969 43.109375 8.421875 42.839844 8.289062 C 42.574219 8.152344 42.386719 7.890625 42.347656 7.589844 C 42.046875 5.3125 40.117188 3.59375 37.855469 3.59375 Z M 37.855469 51.835938 C 34.347656 51.835938 31.496094 48.953125 31.496094 45.40625 L 31.496094 8.199219 C 31.496094 4.652344 34.347656 1.765625 37.855469 1.765625 C 40.617188 1.765625 43.027344 3.59375 43.875 6.175781 C 44.535156 5.941406 45.214844 5.824219 45.910156 5.824219 C 49.417969 5.824219 52.273438 8.710938 52.273438 12.257812 C 52.273438 13.214844 52.0625 14.140625 51.65625 14.988281 C 54.535156 15.605469 56.699219 18.195312 56.699219 21.28125 C 56.699219 23.625 55.457031 25.675781 53.605469 26.800781 C 55.457031 27.925781 56.699219 29.980469 56.699219 32.320312 C 56.699219 35.410156 54.535156 37.996094 51.65625 38.613281 C 52.0625 39.464844 52.273438 40.386719 52.273438 41.347656 C 52.273438 44.894531 49.417969 47.777344 45.910156 47.777344 C 45.214844 47.777344 44.535156 47.660156 43.875 47.425781 C 43.027344 50.007812 40.617188 51.835938 37.855469 51.835938 " fill-opacity="1" fill-rule="nonzero"/></g><path fill="#211f1e" d="M 21.574219 21.777344 C 21.074219 21.777344 20.667969 21.367188 20.667969 20.863281 C 20.667969 16.988281 14.488281 16.679688 14.425781 16.679688 C 13.925781 16.65625 13.539062 16.230469 13.558594 15.726562 C 13.582031 15.222656 13.914062 14.816406 14.503906 14.851562 C 14.828125 14.863281 22.476562 15.257812 22.476562 20.863281 C 22.476562 21.367188 22.074219 21.777344 21.574219 21.777344 " fill-opacity="1" fill-rule="nonzero"/><path fill="#211f1e" d="M 23.003906 35.527344 C 22.503906 35.527344 22.101562 35.117188 22.101562 34.613281 C 22.101562 32.734375 22.734375 31.167969 23.988281 29.960938 C 26.921875 27.136719 32.222656 27.355469 32.441406 27.367188 C 32.941406 27.390625 33.328125 27.820312 33.304688 28.324219 C 33.28125 28.828125 32.863281 29.242188 32.359375 29.195312 C 32.3125 29.195312 27.59375 29.003906 25.230469 31.289062 C 24.34375 32.148438 23.910156 33.234375 23.910156 34.613281 C 23.910156 35.117188 23.503906 35.527344 23.003906 35.527344 " fill-opacity="1" fill-rule="nonzero"/><path fill="#211f1e" d="M 40.273438 40.773438 C 39.773438 40.773438 39.371094 40.367188 39.371094 39.859375 C 39.371094 39.238281 39.128906 38.976562 38.917969 38.820312 C 37.71875 37.921875 34.445312 38.460938 32.664062 39.015625 C 32.195312 39.164062 31.683594 38.894531 31.535156 38.410156 C 31.390625 37.925781 31.65625 37.414062 32.136719 37.265625 C 32.695312 37.09375 37.679688 35.621094 39.992188 37.347656 C 40.769531 37.925781 41.179688 38.796875 41.179688 39.859375 C 41.179688 40.367188 40.773438 40.773438 40.273438 40.773438 " fill-opacity="1" fill-rule="nonzero"/><path fill="#211f1e" d="M 50.335938 38.75 C 50.269531 38.75 50.207031 38.746094 50.136719 38.730469 C 49.875 38.667969 43.65625 37.199219 43.65625 31.996094 C 43.65625 31.492188 44.058594 31.082031 44.558594 31.082031 C 45.058594 31.082031 45.464844 31.492188 45.464844 31.996094 C 45.464844 35.75 50.484375 36.933594 50.535156 36.945312 C 51.023438 37.054688 51.328125 37.542969 51.21875 38.039062 C 51.125 38.464844 50.75 38.75 50.335938 38.75 " fill-opacity="1" fill-rule="nonzero"/><path fill="#211f1e" d="M 37.082031 21.933594 C 34.316406 21.933594 32.066406 20.640625 31.945312 20.566406 C 31.515625 20.316406 31.367188 19.757812 31.617188 19.320312 C 31.867188 18.882812 32.417969 18.734375 32.851562 18.984375 C 32.882812 19.003906 36.03125 20.796875 39.03125 19.800781 C 40.820312 19.207031 42.246094 17.726562 43.269531 15.394531 C 43.472656 14.929688 44.011719 14.722656 44.460938 14.929688 C 44.921875 15.132812 45.125 15.671875 44.921875 16.136719 C 43.683594 18.96875 41.886719 20.789062 39.578125 21.546875 C 38.730469 21.824219 37.882812 21.933594 37.082031 21.933594 " fill-opacity="1" fill-rule="nonzero"/><path stroke-linecap="round" transform="matrix(0.0000000012852, 0.736364, -0.736364, 0.0000000012852, 34.405182, 4.795419)" fill="none" stroke-linejoin="miter" d="M 2.500531 2.502408 L 56.6889 2.502408 " stroke="#211f1e" stroke-width="5" stroke-opacity="1" stroke-miterlimit="4"/><g clip-path="url(#60715c7ee7)"><g clip-path="url(#3aaced3e5c)"><path fill="#231f20" d="M 30.730469 4.894531 L 32.363281 4.894531 L 32.363281 6.503906 L 30.730469 6.503906 Z M 30.730469 4.894531 " fill-opacity="1" fill-rule="nonzero"/></g></g><g clip-path="url(#8bf5f812c7)"><g clip-path="url(#e4e3b1225f)"><g clip-path="url(#77ce1f1060)"><path fill="#211f1e" d="M 30.921875 46.667969 C 30.898438 46.667969 30.890625 46.679688 30.894531 46.699219 C 30.953125 47.015625 30.878906 47.472656 30.671875 47.929688 C 30.464844 48.386719 30.171875 48.742188 29.894531 48.90625 C 29.875 48.917969 29.871094 48.929688 29.886719 48.949219 L 30.246094 49.398438 C 30.257812 49.410156 30.269531 49.414062 30.285156 49.40625 C 30.347656 49.363281 30.40625 49.320312 30.464844 49.269531 C 30.769531 49.015625 31.046875 48.628906 31.246094 48.191406 C 31.445312 47.75 31.554688 47.289062 31.546875 46.890625 C 31.542969 46.816406 31.539062 46.742188 31.527344 46.667969 C 31.527344 46.652344 31.515625 46.640625 31.5 46.644531 Z M 30.921875 46.667969 " fill-opacity="1" fill-rule="nonzero"/></g></g></g><g clip-path="url(#210efe72ac)"><g clip-path="url(#eea578cc6a)"><g clip-path="url(#c9b97c6b7d)"><path fill="#211f1e" d="M 34.195312 46.371094 C 34.214844 46.375 34.222656 46.386719 34.21875 46.40625 C 34.132812 46.71875 34.164062 47.175781 34.332031 47.648438 C 34.5 48.125 34.765625 48.503906 35.027344 48.691406 C 35.042969 48.703125 35.046875 48.71875 35.03125 48.734375 L 34.628906 49.152344 C 34.617188 49.164062 34.605469 49.164062 34.59375 49.152344 C 34.535156 49.105469 34.476562 49.058594 34.425781 49.003906 C 34.144531 48.722656 33.898438 48.316406 33.738281 47.859375 C 33.578125 47.40625 33.511719 46.9375 33.554688 46.539062 C 33.5625 46.464844 33.574219 46.390625 33.589844 46.320312 C 33.59375 46.300781 33.601562 46.296875 33.621094 46.296875 Z M 34.195312 46.371094 " fill-opacity="1" fill-rule="nonzero"/></g></g></g><g clip-path="url(#1343961b1d)"><g clip-path="url(#e18cc85de3)"><g clip-path="url(#b01c93cb06)"><path fill="#211f1e" d="M 29.921875 4.515625 C 29.90625 4.53125 29.910156 4.546875 29.929688 4.558594 C 30.203125 4.726562 30.492188 5.085938 30.691406 5.546875 C 30.890625 6.007812 30.957031 6.464844 30.894531 6.777344 C 30.890625 6.800781 30.898438 6.8125 30.917969 6.8125 L 31.496094 6.847656 C 31.515625 6.847656 31.523438 6.839844 31.527344 6.820312 C 31.539062 6.75 31.546875 6.675781 31.546875 6.601562 C 31.5625 6.203125 31.464844 5.738281 31.269531 5.292969 C 31.078125 4.851562 30.804688 4.460938 30.503906 4.199219 C 30.449219 4.152344 30.390625 4.105469 30.328125 4.066406 C 30.316406 4.054688 30.300781 4.058594 30.292969 4.070312 Z M 29.921875 4.515625 " fill-opacity="1" fill-rule="nonzero"/></g></g></g><g clip-path="url(#68aac27b43)"><g clip-path="url(#3133425c57)"><g clip-path="url(#6f54c806ea)"><path fill="#211f1e" d="M 34.222656 6.511719 C 34.246094 6.511719 34.253906 6.5 34.253906 6.480469 C 34.21875 6.160156 34.328125 5.710938 34.570312 5.273438 C 34.8125 4.832031 35.132812 4.5 35.421875 4.359375 C 35.445312 4.351562 35.445312 4.335938 35.433594 4.316406 L 35.109375 3.839844 C 35.097656 3.824219 35.085938 3.824219 35.070312 3.832031 C 35.007812 3.867188 34.945312 3.90625 34.882812 3.949219 C 34.558594 4.183594 34.25 4.542969 34.019531 4.964844 C 33.785156 5.390625 33.640625 5.84375 33.617188 6.242188 C 33.613281 6.316406 33.613281 6.390625 33.617188 6.464844 C 33.617188 6.480469 33.628906 6.488281 33.644531 6.488281 Z M 34.222656 6.511719 " fill-opacity="1" fill-rule="nonzero"/></g></g></g><path fill="#ffffff" d="M 32.441406 28.097656 C 32.3125 28.097656 32.199219 28.144531 32.105469 28.238281 C 32.015625 28.332031 31.96875 28.441406 31.96875 28.574219 L 31.96875 30.46875 C 31.96875 30.597656 32.015625 30.710938 32.105469 30.804688 C 32.199219 30.894531 32.3125 30.941406 32.441406 30.941406 C 32.574219 30.941406 32.683594 30.894531 32.777344 30.804688 C 32.867188 30.710938 32.914062 30.597656 32.914062 30.46875 L 32.914062 28.574219 C 32.914062 28.441406 32.867188 28.332031 32.777344 28.238281 C 32.683594 28.144531 32.574219 28.097656 32.441406 28.097656 Z M 32.441406 28.097656 " fill-opacity="1" fill-rule="nonzero"/><path fill="#ffffff" d="M 32.441406 32.835938 C 32.3125 32.835938 32.199219 32.882812 32.105469 32.976562 C 32.015625 33.066406 31.96875 33.179688 31.96875 33.308594 L 31.96875 35.207031 C 31.96875 35.335938 32.015625 35.449219 32.105469 35.539062 C 32.199219 35.632812 32.3125 35.679688 32.441406 35.679688 C 32.574219 35.679688 32.683594 35.632812 32.777344 35.539062 C 32.867188 35.449219 32.914062 35.335938 32.914062 35.207031 L 32.914062 33.308594 C 32.914062 33.179688 32.867188 33.066406 32.777344 32.976562 C 32.683594 32.882812 32.574219 32.835938 32.441406 32.835938 Z M 32.441406 32.835938 " fill-opacity="1" fill-rule="nonzero"/><path fill="#ffffff" d="M 32.441406 37.574219 C 32.3125 37.574219 32.199219 37.621094 32.105469 37.710938 C 32.015625 37.804688 31.96875 37.917969 31.96875 38.046875 L 31.96875 39.941406 C 31.96875 40.074219 32.015625 40.183594 32.105469 40.277344 C 32.199219 40.371094 32.3125 40.417969 32.441406 40.417969 C 32.574219 40.417969 32.683594 40.371094 32.777344 40.277344 C 32.867188 40.183594 32.914062 40.074219 32.914062 39.941406 L 32.914062 38.046875 C 32.914062 37.917969 32.867188 37.804688 32.777344 37.710938 C 32.683594 37.621094 32.574219 37.574219 32.441406 37.574219 Z M 32.441406 37.574219 " fill-opacity="1" fill-rule="nonzero"/><path fill="#ffffff" d="M 32.441406 42.3125 C 32.3125 42.3125 32.199219 42.359375 32.105469 42.449219 C 32.015625 42.542969 31.96875 42.65625 31.96875 42.785156 L 31.96875 44.679688 C 31.96875 44.8125 32.015625 44.921875 32.105469 45.015625 C 32.199219 45.109375 32.3125 45.152344 32.441406 45.152344 C 32.574219 45.152344 32.683594 45.109375 32.777344 45.015625 C 32.867188 44.921875 32.914062 44.8125 32.914062 44.679688 L 32.914062 42.785156 C 32.914062 42.65625 32.867188 42.542969 32.777344 42.449219 C 32.683594 42.359375 32.574219 42.3125 32.441406 42.3125 Z M 32.441406 42.3125 " fill-opacity="1" fill-rule="nonzero"/><path fill="#ffffff" d="M 32.441406 8.578125 C 32.3125 8.578125 32.199219 8.625 32.105469 8.714844 C 32.015625 8.808594 31.96875 8.921875 31.96875 9.050781 L 31.96875 10.945312 C 31.96875 11.078125 32.015625 11.1875 32.105469 11.28125 C 32.199219 11.375 32.3125 11.421875 32.441406 11.421875 C 32.574219 11.421875 32.683594 11.375 32.777344 11.28125 C 32.867188 11.1875 32.914062 11.078125 32.914062 10.945312 L 32.914062 9.050781 C 32.914062 8.921875 32.867188 8.808594 32.777344 8.714844 C 32.683594 8.625 32.574219 8.578125 32.441406 8.578125 Z M 32.441406 8.578125 " fill-opacity="1" fill-rule="nonzero"/><path fill="#ffffff" d="M 32.441406 13.316406 C 32.3125 13.316406 32.199219 13.359375 32.105469 13.453125 C 32.015625 13.546875 31.96875 13.65625 31.96875 13.789062 L 31.96875 15.683594 C 31.96875 15.816406 32.015625 15.925781 32.105469 16.019531 C 32.199219 16.109375 32.3125 16.15625 32.441406 16.15625 C 32.574219 16.15625 32.683594 16.109375 32.777344 16.019531 C 32.867188 15.925781 32.914062 15.816406 32.914062 15.683594 L 32.914062 13.789062 C 32.914062 13.65625 32.867188 13.546875 32.777344 13.453125 C 32.683594 13.359375 32.574219 13.316406 32.441406 13.316406 Z M 32.441406 13.316406 " fill-opacity="1" fill-rule="nonzero"/><path fill="#ffffff" d="M 32.441406 18.050781 C 32.3125 18.050781 32.199219 18.097656 32.105469 18.191406 C 32.015625 18.285156 31.96875 18.394531 31.96875 18.527344 L 31.96875 20.421875 C 31.96875 20.550781 32.015625 20.664062 32.105469 20.757812 C 32.199219 20.847656 32.3125 20.894531 32.441406 20.894531 C 32.574219 20.894531 32.683594 20.847656 32.777344 20.757812 C 32.867188 20.664062 32.914062 20.550781 32.914062 20.421875 L 32.914062 18.527344 C 32.914062 18.394531 32.867188 18.285156 32.777344 18.191406 C 32.683594 18.097656 32.574219 18.050781 32.441406 18.050781 Z M 32.441406 18.050781 " fill-opacity="1" fill-rule="nonzero"/><path fill="#ffffff" d="M 32.441406 22.789062 C 32.3125 22.789062 32.199219 22.835938 32.105469 22.929688 C 32.015625 23.019531 31.96875 23.132812 31.96875 23.265625 L 31.96875 25.160156 C 31.96875 25.289062 32.015625 25.402344 32.105469 25.492188 C 32.199219 25.585938 32.3125 25.632812 32.441406 25.632812 C 32.574219 25.632812 32.683594 25.585938 32.777344 25.492188 C 32.867188 25.402344 32.914062 25.289062 32.914062 25.160156 L 32.914062 23.265625 C 32.914062 23.132812 32.867188 23.019531 32.777344 22.929688 C 32.683594 22.835938 32.574219 22.789062 32.441406 22.789062 Z M 32.441406 22.789062 " fill-opacity="1" fill-rule="nonzero"/><g clip-path="url(#03431b0423)"><path fill="#ffa7b4" d="M 18.140625 23.050781 L 30.660156 23.050781 L 30.660156 36.648438 L 18.140625 36.648438 Z M 18.140625 23.050781 " fill-opacity="1" fill-rule="nonzero"/></g><g clip-path="url(#7add1209ae)"><path fill="#ffa7b4" d="M 34.1875 31.261719 L 43.398438 31.261719 L 43.398438 44.824219 L 34.1875 44.824219 Z M 34.1875 31.261719 " fill-opacity="1" fill-rule="nonzero"/></g><g clip-path="url(#69b41359db)"><path fill="#ffa7b4" d="M 34.535156 13.386719 L 46.949219 13.386719 L 46.949219 26.773438 L 34.535156 26.773438 Z M 34.535156 13.386719 " fill-opacity="1" fill-rule="nonzero"/></g><path stroke-linecap="round" transform="matrix(0.736364, 0.000000000000001948, -0.000000000000001948, 0.736364, 20.021955, 27.246604)" fill="none" stroke-linejoin="miter" d="M 1.497963 1.500561 L 14.616694 1.500561 " stroke="#211f1e" stroke-width="3" stroke-opacity="1" stroke-miterlimit="4"/><path stroke-linecap="round" transform="matrix(0.736364, 0.000000000000000974, -0.000000000000000974, 0.736364, 33.279463, 19.258172)" fill="none" stroke-linejoin="miter" d="M 1.498376 1.500766 L 14.617108 1.500766 " stroke="#211f1e" stroke-width="3" stroke-opacity="1" stroke-miterlimit="4"/><path stroke-linecap="round" transform="matrix(0.736364, 0, 0, 0.736364, 33.279463, 36.725148)" fill="none" stroke-linejoin="miter" d="M 1.498376 1.49787 L 10.808273 1.49787 " stroke="#211f1e" stroke-width="3" stroke-opacity="1" stroke-miterlimit="4"/><g fill="#1a3d6b" fill-opacity="1"><g transform="translate(67.593946, 36.242023)"><g><path d="M 13.90625 -21.546875 L 13.90625 -17.25 L 6.484375 -17.25 L 6.484375 -12.953125 L 13.578125 -12.953125 L 13.578125 -8.640625 L 6.484375 -8.640625 L 6.484375 -4.3125 L 13.90625 -4.3125 L 13.90625 0 L 1.5625 0 L 1.5625 -21.546875 Z M 13.90625 -21.546875 "/></g></g></g><g fill="#1a3d6b" fill-opacity="1"><g transform="translate(81.437671, 36.242023)"><g><path d="M 1.5625 0 L 1.5625 -22.46875 L 6.1875 -22.46875 L 6.1875 0 Z M 1.5625 0 "/></g></g></g><g fill="#1a3d6b" fill-opacity="1"><g transform="translate(87.88937, 36.242023)"><g><path d="M 2.015625 -20.875 C 2.554688 -21.414062 3.195312 -21.6875 3.9375 -21.6875 C 4.6875 -21.6875 5.332031 -21.414062 5.875 -20.875 C 6.414062 -20.332031 6.6875 -19.6875 6.6875 -18.9375 C 6.6875 -18.1875 6.414062 -17.539062 5.875 -17 C 5.332031 -16.46875 4.6875 -16.203125 3.9375 -16.203125 C 3.195312 -16.203125 2.554688 -16.46875 2.015625 -17 C 1.472656 -17.539062 1.203125 -18.1875 1.203125 -18.9375 C 1.203125 -19.6875 1.472656 -20.332031 2.015625 -20.875 Z M 1.5625 -13.40625 L 1.5625 0 L 6.1875 0 L 6.1875 -13.40625 Z M 1.5625 -13.40625 "/></g></g></g><g fill="#1a3d6b" fill-opacity="1"><g transform="translate(94.47167, 36.242023)"><g><path d="M 2.34375 -13.40625 L 2.34375 -18.390625 L 6.96875 -18.390625 L 6.96875 -13.40625 L 9.796875 -13.40625 L 9.796875 -9.875 L 6.96875 -9.875 L 6.96875 -5.609375 C 6.96875 -4.378906 7.316406 -3.765625 8.015625 -3.765625 C 8.191406 -3.765625 8.375 -3.796875 8.5625 -3.859375 C 8.757812 -3.929688 8.910156 -4.003906 9.015625 -4.078125 L 9.171875 -4.1875 L 10.3125 -0.4375 C 9.320312 0.113281 8.191406 0.390625 6.921875 0.390625 C 6.046875 0.390625 5.296875 0.238281 4.671875 -0.0625 C 4.046875 -0.363281 3.570312 -0.769531 3.25 -1.28125 C 2.925781 -1.800781 2.691406 -2.34375 2.546875 -2.90625 C 2.410156 -3.476562 2.34375 -4.085938 2.34375 -4.734375 L 2.34375 -9.875 L 0.421875 -9.875 L 0.421875 -13.40625 Z M 2.34375 -13.40625 "/></g></g></g><g fill="#1a3d6b" fill-opacity="1"><g transform="translate(103.483153, 36.242023)"><g><path d="M 15.125 -6.0625 L 5.40625 -6.0625 C 5.40625 -5.125 5.707031 -4.425781 6.3125 -3.96875 C 6.925781 -3.519531 7.59375 -3.296875 8.3125 -3.296875 C 9.0625 -3.296875 9.648438 -3.394531 10.078125 -3.59375 C 10.515625 -3.789062 11.015625 -4.1875 11.578125 -4.78125 L 14.921875 -3.109375 C 13.523438 -0.773438 11.207031 0.390625 7.96875 0.390625 C 5.945312 0.390625 4.210938 -0.300781 2.765625 -1.6875 C 1.316406 -3.070312 0.59375 -4.738281 0.59375 -6.6875 C 0.59375 -8.632812 1.316406 -10.304688 2.765625 -11.703125 C 4.210938 -13.097656 5.945312 -13.796875 7.96875 -13.796875 C 10.09375 -13.796875 11.820312 -13.179688 13.15625 -11.953125 C 14.488281 -10.722656 15.15625 -8.96875 15.15625 -6.6875 C 15.15625 -6.375 15.144531 -6.164062 15.125 -6.0625 Z M 5.53125 -8.625 L 10.640625 -8.625 C 10.523438 -9.320312 10.242188 -9.859375 9.796875 -10.234375 C 9.359375 -10.609375 8.789062 -10.796875 8.09375 -10.796875 C 7.332031 -10.796875 6.722656 -10.59375 6.265625 -10.1875 C 5.816406 -9.789062 5.570312 -9.269531 5.53125 -8.625 Z M 5.53125 -8.625 "/></g></g></g><g fill="#1a3d6b" fill-opacity="1"><g transform="translate(117.927641, 36.242023)"><g><path d="M 21.734375 0 L 15.390625 0 L 10.296875 -7.34375 L 5.203125 0 L -0.890625 0 L 7.265625 -11.59375 L 0.46875 -21.546875 L 6.328125 -21.546875 L 10.296875 -15.671875 L 14.265625 -21.546875 L 20.375 -21.546875 L 13.328125 -11.59375 Z M 21.734375 0 "/></g></g></g></svg>