<svg xmlns="http://www.w3.org/2000/svg" xmlns:xlink="http://www.w3.org/1999/xlink" width="72" zoomAndPan="magnify" viewBox="0 0 54 54" height="72" preserveAspectRatio="xMidYMid meet" version="1.0"><defs><clipPath id="10d71d2f82"><path d="M 2.015625 1 L 51.566406 1 L 51.566406 52.136719 L 2.015625 52.136719 Z M 2.015625 1 " clip-rule="nonzero"/></clipPath><clipPath id="6c430a43e8"><path d="M 19.453125 5.472656 C 20.457031 4.976562 20.90625 7.933594 20.578125 8.097656 C 20.21875 8.277344 18.25 6.058594 17.832031 5.441406 C 17.652344 5.1875 17.621094 5.066406 17.5625 4.8125 C 17.472656 4.453125 17.441406 3.820312 17.488281 3.445312 C 17.515625 3.175781 17.578125 3.027344 17.695312 2.785156 C 17.875 2.457031 18.265625 1.960938 18.550781 1.71875 C 18.746094 1.554688 18.898438 1.464844 19.152344 1.375 C 19.496094 1.238281 20.050781 1.105469 20.503906 1.136719 C 20.9375 1.164062 21.433594 1.316406 21.808594 1.554688 C 22.183594 1.78125 22.8125 2.457031 22.753906 2.53125 C 22.664062 2.652344 19.8125 1.332031 19.859375 1.164062 C 19.917969 0.984375 22.601562 1.195312 23.640625 1.660156 C 24.554688 2.082031 25.230469 2.875 25.859375 3.625 C 26.503906 4.40625 27.136719 5.335938 27.496094 6.265625 C 27.839844 7.167969 27.898438 7.960938 28.035156 9.117188 C 28.246094 10.828125 28.367188 13.257812 28.394531 15.601562 C 28.425781 18.359375 28.5 22.261719 28.082031 24.617188 C 27.796875 26.210938 26.894531 27.304688 26.789062 28.519531 C 26.699219 29.554688 27.136719 30.304688 27.195312 31.460938 C 27.285156 33.066406 27.03125 35.300781 27.074219 37.28125 C 27.121094 39.339844 27.570312 41.875 27.496094 43.585938 C 27.449219 44.769531 27.285156 45.609375 27.046875 46.570312 C 26.804688 47.5 26.59375 48.476562 26.054688 49.242188 C 25.5 50.039062 24.585938 50.773438 23.699219 51.253906 C 22.84375 51.71875 21.839844 52.046875 20.847656 52.09375 C 19.8125 52.136719 18.445312 51.929688 17.605469 51.402344 C 16.839844 50.9375 16.269531 50.066406 15.894531 49.273438 C 15.519531 48.476562 15.910156 46.917969 15.386719 46.601562 C 14.847656 46.269531 13.601562 47.304688 12.683594 47.394531 C 11.753906 47.488281 10.6875 47.5625 9.832031 47.140625 C 8.859375 46.660156 7.777344 45.386719 7.328125 44.378906 C 6.9375 43.511719 7.027344 42.550781 7.058594 41.589844 C 7.089844 40.570312 7.941406 39.1875 7.539062 38.421875 C 7.132812 37.644531 5.40625 37.597656 4.566406 36.984375 C 3.785156 36.414062 3.023438 35.722656 2.617188 34.925781 C 2.226562 34.148438 2.089844 33.15625 2.167969 32.242188 C 2.242188 31.234375 2.601562 30.035156 3.203125 29.121094 C 3.847656 28.128906 6.082031 27.347656 6.050781 26.585938 C 6.039062 25.925781 4.265625 25.5625 3.757812 24.796875 C 3.246094 24.019531 3.113281 22.984375 2.992188 21.933594 C 2.855469 20.671875 2.601562 18.765625 3.1875 17.730469 C 3.710938 16.800781 5.574219 16.679688 6.039062 15.824219 C 6.457031 15.046875 5.917969 13.890625 6.082031 12.945312 C 6.246094 11.984375 6.53125 10.980469 7.011719 10.109375 C 7.507812 9.207031 8.347656 8.414062 9.054688 7.664062 C 9.714844 6.957031 10.285156 6.070312 11.078125 5.695312 C 11.859375 5.320312 12.925781 5.683594 13.796875 5.382812 C 14.726562 5.050781 15.519531 4.136719 16.4375 3.714844 C 17.304688 3.3125 18.222656 2.769531 19.136719 2.875 C 20.203125 2.996094 21.539062 3.972656 22.394531 4.722656 C 23.128906 5.367188 23.609375 6.160156 24.074219 6.972656 C 24.539062 7.78125 24.855469 8.652344 25.15625 9.566406 C 25.46875 10.542969 25.738281 11.59375 25.859375 12.644531 C 25.980469 13.722656 25.917969 14.835938 25.875 15.960938 C 25.816406 17.144531 25.738281 17.910156 25.53125 19.605469 C 25.050781 23.539062 23.007812 34.566406 22.648438 39.160156 C 22.453125 41.648438 23.113281 43.34375 22.589844 44.9375 C 22.136719 46.285156 21.179688 48.042969 20.15625 48.28125 C 19.136719 48.523438 17.382812 47.621094 16.464844 46.40625 C 15.011719 44.46875 14.832031 38.722656 14.5625 36.082031 C 14.394531 34.460938 14.484375 33.398438 14.46875 32.136719 C 14.457031 30.964844 14.378906 29.914062 14.46875 28.761719 C 14.574219 27.53125 14.785156 26.375 15.085938 24.949219 C 15.476562 23.089844 16.359375 20.355469 16.722656 18.601562 C 16.976562 17.371094 16.707031 16.289062 17.214844 15.449219 C 17.710938 14.625 19.167969 13.320312 19.691406 13.589844 C 20.636719 14.070312 19.691406 21.363281 19.585938 23.71875 C 19.527344 24.992188 19.480469 25.472656 19.347656 26.660156 C 19.136719 28.488281 18.746094 31.101562 18.328125 33.636719 C 17.816406 36.667969 17.636719 41.589844 16.4375 43.613281 C 15.730469 44.800781 14.710938 45.625 13.71875 45.835938 C 12.789062 46.03125 11.484375 45.582031 10.703125 44.980469 C 9.910156 44.378906 9.382812 43.179688 9.039062 42.191406 C 8.707031 41.230469 8.753906 40.433594 8.664062 39.160156 C 8.511719 36.984375 7.914062 30.515625 8.5 30.320312 C 8.828125 30.214844 9.355469 32.300781 10.105469 32.644531 C 10.871094 33.007812 12.609375 32.074219 13.058594 32.375 C 13.300781 32.527344 13.316406 32.855469 13.316406 33.15625 C 13.316406 33.5625 13.058594 34.238281 12.878906 34.613281 C 12.746094 34.882812 12.640625 35.03125 12.414062 35.226562 C 12.113281 35.511719 11.589844 35.871094 11.125 36.023438 C 10.660156 36.171875 10.089844 36.21875 9.609375 36.140625 C 9.128906 36.066406 8.605469 35.84375 8.214844 35.542969 C 7.824219 35.242188 7.464844 34.71875 7.269531 34.355469 C 7.132812 34.101562 7.074219 33.875 7.027344 33.621094 C 6.984375 33.367188 6.953125 33.203125 6.96875 32.855469 C 6.996094 32.121094 7.222656 30.769531 7.582031 29.464844 C 8.109375 27.605469 9.789062 25.023438 10.164062 22.816406 C 10.507812 20.777344 9.863281 18.359375 9.925781 16.710938 C 9.953125 15.585938 9.984375 14.640625 10.222656 13.859375 C 10.417969 13.246094 10.808594 12.6875 11.078125 12.3125 C 11.257812 12.074219 11.363281 11.925781 11.605469 11.757812 C 11.949219 11.519531 12.503906 11.203125 13 11.113281 C 13.480469 11.023438 14.125 11.097656 14.53125 11.1875 C 14.816406 11.265625 15.011719 11.367188 15.234375 11.503906 C 15.460938 11.640625 15.65625 11.742188 15.851562 11.96875 C 16.136719 12.269531 16.511719 12.792969 16.660156 13.257812 C 16.8125 13.722656 16.828125 14.144531 16.765625 14.789062 C 16.660156 15.945312 15.835938 18.167969 15.535156 19.589844 C 15.296875 20.703125 15.144531 21.691406 15.027344 22.609375 C 14.9375 23.371094 14.980469 24.226562 14.859375 24.738281 C 14.785156 25.039062 14.742188 25.203125 14.589844 25.445312 C 14.378906 25.789062 13.976562 26.300781 13.570312 26.570312 C 13.164062 26.839844 12.640625 27.035156 12.144531 27.09375 C 11.664062 27.15625 11.09375 27.078125 10.644531 26.898438 C 10.179688 26.71875 9.730469 26.402344 9.398438 26.027344 C 9.082031 25.667969 8.828125 25.082031 8.707031 24.695312 C 8.617188 24.410156 8.589844 24.257812 8.617188 23.929688 C 8.695312 23.253906 9.21875 21.859375 9.609375 20.925781 C 9.96875 20.058594 10.269531 19.230469 10.871094 18.511719 C 11.53125 17.699219 12.445312 16.785156 13.496094 16.394531 C 14.636719 15.960938 16.511719 16.082031 17.546875 16.214844 C 18.207031 16.304688 18.671875 16.457031 19.136719 16.695312 C 19.585938 16.9375 20.039062 17.25 20.335938 17.640625 C 20.636719 18.03125 20.878906 18.554688 20.96875 19.035156 C 21.058594 19.515625 20.984375 20.148438 20.878906 20.550781 C 20.804688 20.835938 20.726562 21.015625 20.5625 21.257812 C 20.324219 21.601562 19.828125 22.097656 19.480469 22.335938 C 19.242188 22.503906 19.0625 22.578125 18.777344 22.652344 C 18.371094 22.757812 17.277344 22.847656 17.246094 22.742188 C 17.214844 22.609375 20.113281 21.46875 20.144531 21.527344 C 20.171875 21.585938 18.417969 22.816406 17.589844 23.042969 C 16.902344 23.222656 16.167969 23.148438 15.582031 22.996094 C 15.070312 22.863281 14.546875 22.5625 14.214844 22.308594 C 13.976562 22.128906 13.839844 21.992188 13.691406 21.738281 C 13.464844 21.378906 13.210938 20.71875 13.136719 20.3125 C 13.074219 20.027344 13.074219 19.832031 13.121094 19.546875 C 13.195312 19.140625 13.375 18.511719 13.644531 18.105469 C 13.929688 17.6875 14.351562 17.3125 14.785156 17.070312 C 15.222656 16.832031 15.65625 16.964844 16.257812 16.695312 C 17.425781 16.15625 19.617188 14.65625 20.996094 13.347656 C 22.363281 12.058594 23.667969 10.394531 24.507812 8.953125 C 25.183594 7.78125 25.125 6.628906 25.890625 5.515625 C 26.851562 4.121094 28.816406 2.1875 30.179688 1.523438 C 31.113281 1.074219 31.980469 1.015625 32.898438 1.089844 C 33.84375 1.164062 34.9375 1.464844 35.75 2.003906 C 36.574219 2.5625 37.261719 3.550781 37.789062 4.421875 C 38.285156 5.246094 38.554688 6.160156 38.871094 7.0625 C 39.183594 7.960938 39.800781 9.777344 39.664062 9.839844 C 39.53125 9.898438 38.808594 7.78125 38.074219 7.46875 C 37.339844 7.152344 35.386719 8.261719 35.222656 7.976562 C 35.058594 7.691406 36.332031 6.207031 37.113281 5.742188 C 37.878906 5.277344 38.945312 5.1875 39.859375 5.15625 C 40.773438 5.125 41.808594 5.230469 42.636719 5.589844 C 43.460938 5.953125 44.242188 6.628906 44.839844 7.332031 C 45.441406 8.039062 45.890625 8.921875 46.222656 9.792969 C 46.550781 10.679688 46.71875 11.667969 46.820312 12.597656 C 46.910156 13.5 46.445312 14.550781 46.820312 15.316406 C 47.242188 16.171875 48.847656 16.546875 49.539062 17.355469 C 50.167969 18.105469 51.171875 19.546875 50.902344 19.90625 C 50.542969 20.371094 46.851562 18.285156 46.132812 18.839844 C 45.578125 19.277344 46.191406 21.753906 46.058594 21.78125 C 46.011719 21.796875 45.996094 21.585938 45.890625 21.496094 C 45.652344 21.316406 44.734375 21.289062 44.347656 21.105469 C 44.074219 20.972656 43.910156 20.867188 43.699219 20.640625 C 43.402344 20.328125 42.980469 19.800781 42.800781 19.320312 C 42.621094 18.839844 42.574219 18.257812 42.636719 17.746094 C 42.695312 17.234375 42.90625 16.679688 43.207031 16.261719 C 43.503906 15.839844 43.957031 15.449219 44.40625 15.226562 C 44.871094 14.984375 45.351562 14.863281 45.953125 14.863281 C 46.792969 14.863281 48.1875 15.046875 48.953125 15.570312 C 49.671875 16.066406 50.136719 17.011719 50.453125 17.835938 C 50.769531 18.675781 50.769531 19.695312 50.796875 20.566406 C 50.828125 21.347656 50.8125 22.277344 50.707031 22.816406 C 50.648438 23.148438 50.589844 23.296875 50.421875 23.566406 C 50.199219 23.941406 49.777344 24.453125 49.359375 24.753906 C 48.9375 25.039062 48.382812 25.261719 47.871094 25.324219 C 47.363281 25.382812 46.777344 25.308594 46.296875 25.128906 C 45.816406 24.949219 45.292969 24.527344 44.992188 24.226562 C 44.78125 24.019531 44.660156 23.851562 44.542969 23.566406 C 44.359375 23.179688 44.015625 22.578125 44.152344 22.023438 C 44.375 21.121094 45.890625 19.230469 46.882812 19.007812 C 47.707031 18.8125 48.96875 19.335938 49.523438 20.042969 C 50.183594 20.882812 50.542969 23.117188 50.109375 24.109375 C 49.734375 24.964844 48.441406 25.457031 47.527344 25.832031 C 46.65625 26.195312 44.855469 26.539062 44.78125 26.359375 C 44.691406 26.148438 47.378906 24.273438 47.570312 24.4375 C 47.753906 24.601562 46.808594 26.929688 46.207031 27.019531 C 45.5625 27.125 43.625 24.933594 43.761719 24.679688 C 43.894531 24.4375 45.773438 24.902344 46.6875 25.355469 C 47.675781 25.847656 48.757812 26.765625 49.449219 27.621094 C 50.0625 28.382812 50.453125 29.253906 50.769531 30.140625 C 51.082031 31.039062 51.445312 32.046875 51.324219 33.019531 C 51.171875 34.132812 50.511719 35.664062 49.6875 36.441406 C 48.921875 37.164062 47.601562 37.101562 46.703125 37.671875 C 45.816406 38.226562 44.691406 39.984375 44.332031 39.804688 C 43.957031 39.625 44.242188 36.5625 44.554688 36.488281 C 44.886719 36.414062 45.953125 38.378906 46.28125 39.382812 C 46.597656 40.3125 46.582031 41.289062 46.582031 42.292969 C 46.582031 43.375 46.703125 44.742188 46.191406 45.671875 C 45.667969 46.617188 44.570312 47.457031 43.386719 47.890625 C 41.914062 48.433594 39.109375 47.472656 37.863281 48.101562 C 36.964844 48.550781 36.8125 49.765625 36.09375 50.308594 C 35.371094 50.832031 34.472656 51.191406 33.542969 51.328125 C 32.507812 51.476562 31.15625 51.386719 30.136719 50.984375 C 29.101562 50.578125 28.050781 49.722656 27.359375 48.851562 C 26.699219 48.011719 26.371094 47.050781 26.007812 45.894531 C 25.542969 44.378906 25.257812 42.292969 25.0625 40.433594 C 24.871094 38.5 24.777344 36.59375 24.855469 34.492188 C 24.945312 32.105469 25.738281 28.863281 25.710938 26.855469 C 25.679688 25.546875 25.378906 24.859375 25.230469 23.613281 C 25.035156 21.949219 24.703125 19.335938 24.71875 17.714844 C 24.734375 16.589844 24.824219 15.808594 25.019531 14.851562 C 25.214844 13.84375 25.542969 12.75 25.917969 11.820312 C 26.265625 10.949219 26.535156 10.125 27.164062 9.402344 C 27.929688 8.53125 29.28125 7.558594 30.40625 7.167969 C 31.410156 6.820312 33.0625 6.492188 33.527344 6.972656 C 33.976562 7.4375 33.648438 9.222656 33.273438 9.914062 C 32.988281 10.4375 32.371094 10.917969 31.890625 10.980469 C 31.441406 11.023438 30.902344 10.648438 30.511719 10.332031 C 30.121094 10.019531 29.777344 9.492188 29.582031 9.117188 C 29.445312 8.847656 29.386719 8.667969 29.355469 8.367188 C 29.3125 7.949219 29.324219 7.300781 29.476562 6.835938 C 29.625 6.371094 30 5.847656 30.285156 5.546875 C 30.480469 5.320312 30.632812 5.214844 30.902344 5.082031 C 31.277344 4.886719 31.726562 4.691406 32.371094 4.644531 C 33.527344 4.570312 35.824219 5.035156 37.261719 5.472656 C 38.492188 5.847656 39.558594 6.445312 40.566406 6.972656 C 41.449219 7.4375 42.230469 7.8125 42.964844 8.429688 C 43.761719 9.089844 44.691406 9.972656 45.113281 10.886719 C 45.5 11.730469 45.679688 12.6875 45.5 13.621094 C 45.292969 14.730469 44.449219 16.367188 43.582031 17.054688 C 42.84375 17.640625 41.824219 17.835938 40.894531 17.851562 C 39.890625 17.867188 38.285156 17.355469 37.742188 17.011719 C 37.503906 16.859375 37.535156 16.679688 37.339844 16.53125 C 37.039062 16.289062 36.347656 16.15625 35.972656 15.839844 C 35.597656 15.523438 35.269531 15.058594 35.085938 14.609375 C 34.90625 14.144531 34.878906 13.515625 34.894531 13.09375 C 34.90625 12.792969 34.9375 12.613281 35.058594 12.34375 C 35.222656 11.96875 35.554688 11.414062 35.914062 11.082031 C 36.273438 10.753906 36.769531 10.46875 37.25 10.347656 C 37.730469 10.226562 38.375 10.003906 38.777344 10.332031 C 39.558594 10.964844 40.175781 14.429688 39.949219 15.992188 C 39.769531 17.207031 39.167969 17.984375 38.285156 19.050781 C 36.949219 20.671875 33.707031 23.011719 31.996094 24.183594 C 30.929688 24.902344 30.257812 25.699219 29.234375 25.730469 C 28.019531 25.757812 25.722656 24.785156 25.15625 23.734375 C 24.628906 22.773438 24.988281 21.210938 25.605469 19.863281 C 26.550781 17.820312 30.617188 14.160156 31.652344 13.335938 C 31.953125 13.09375 32.027344 13.0625 32.296875 12.960938 C 32.671875 12.824219 33.273438 12.675781 33.753906 12.703125 C 34.234375 12.734375 34.789062 12.972656 35.148438 13.167969 C 35.402344 13.304688 35.566406 13.453125 35.734375 13.632812 C 35.914062 13.816406 36.046875 13.980469 36.183594 14.234375 C 36.363281 14.59375 36.589844 15.164062 36.601562 15.644531 C 36.617188 16.125 36.453125 16.726562 36.304688 17.101562 C 36.199219 17.371094 36.167969 17.550781 35.914062 17.730469 C 35.402344 18.089844 33.574219 17.835938 32.820312 18.359375 C 32.160156 18.828125 31.90625 20.101562 31.515625 20.535156 C 31.304688 20.761719 31.171875 20.851562 30.917969 20.972656 C 30.554688 21.136719 29.957031 21.347656 29.476562 21.347656 C 28.996094 21.347656 28.457031 21.226562 28.019531 21.003906 C 27.585938 20.777344 27.179688 20.417969 26.894531 20.027344 C 26.625 19.636719 26.429688 19.035156 26.355469 18.644531 C 26.292969 18.359375 26.324219 18.136719 26.355469 17.894531 C 26.386719 17.640625 26.398438 17.429688 26.519531 17.160156 C 26.683594 16.785156 27.058594 16.441406 27.359375 15.929688 C 27.808594 15.179688 28.125 13.890625 28.875 13.050781 C 29.730469 12.089844 31.214844 11.070312 32.355469 10.664062 C 33.289062 10.332031 34.21875 10.289062 35.101562 10.453125 C 35.988281 10.617188 36.992188 11.039062 37.667969 11.667969 C 38.375 12.328125 38.824219 13.441406 39.167969 14.371094 C 39.5 15.269531 39.664062 16.140625 39.710938 17.160156 C 39.753906 18.40625 39.484375 20.042969 39.246094 21.316406 C 39.035156 22.425781 38.777344 23.417969 38.433594 24.410156 C 38.089844 25.367188 37.730469 26.117188 37.1875 27.167969 C 36.421875 28.667969 35.148438 31.070312 34.140625 32.453125 C 33.40625 33.457031 32.6875 34.402344 31.9375 34.851562 C 31.410156 35.167969 30.839844 35.257812 30.332031 35.257812 C 29.851562 35.257812 29.371094 35.152344 28.964844 34.941406 C 28.558594 34.730469 28.171875 34.386719 27.914062 34.011719 C 27.660156 33.636719 27.480469 33.171875 27.421875 32.722656 C 27.359375 32.269531 27.40625 31.746094 27.570312 31.324219 C 27.734375 30.90625 28.09375 30.441406 28.367188 30.171875 C 28.558594 29.976562 28.769531 30.035156 28.9375 29.78125 C 29.339844 29.164062 29.101562 27.140625 29.761719 25.757812 C 30.644531 23.914062 32.761719 21.722656 34.457031 20.027344 C 36.0625 18.421875 37.953125 16.277344 39.648438 15.808594 C 40.941406 15.449219 42.574219 15.734375 43.445312 16.351562 C 44.195312 16.875 44.601562 17.941406 44.8125 18.929688 C 45.050781 20.085938 44.632812 21.601562 44.480469 22.953125 C 44.332031 24.316406 44.226562 26.148438 43.882812 27.09375 C 43.6875 27.648438 43.476562 27.980469 43.144531 28.308594 C 42.816406 28.640625 42.289062 28.925781 41.929688 29.058594 C 41.675781 29.164062 41.496094 29.195312 41.226562 29.195312 C 40.835938 29.195312 40.191406 29.074219 39.828125 28.941406 C 39.574219 28.851562 39.425781 28.761719 39.214844 28.578125 C 38.929688 28.324219 38.507812 27.816406 38.328125 27.46875 C 38.195312 27.230469 38.179688 27.109375 38.105469 26.777344 C 37.925781 25.96875 37.804688 23.824219 37.578125 22.488281 C 37.382812 21.300781 36.84375 20.011719 36.875 19.140625 C 36.886719 18.570312 37.039062 18.167969 37.261719 17.761719 C 37.488281 17.355469 37.863281 16.964844 38.253906 16.710938 C 38.644531 16.457031 39.140625 16.289062 39.605469 16.246094 C 40.070312 16.199219 40.59375 16.289062 41.03125 16.46875 C 41.464844 16.652344 41.914062 17.039062 42.183594 17.324219 C 42.378906 17.535156 42.441406 17.640625 42.574219 17.941406 C 42.875 18.644531 43.234375 20.386719 43.492188 21.675781 C 43.761719 23.058594 43.972656 24.378906 44.105469 25.984375 C 44.269531 27.980469 44.347656 30.859375 44.269531 32.722656 C 44.210938 34.027344 44.105469 34.808594 43.894531 36.066406 C 43.609375 37.777344 43.207031 40.417969 42.546875 42.007812 C 42.035156 43.210938 41.511719 44.367188 40.667969 44.964844 C 39.890625 45.519531 38.734375 45.582031 37.757812 45.65625 C 36.785156 45.730469 35.808594 45.445312 34.832031 45.402344 C 33.84375 45.355469 32.417969 45.265625 31.863281 45.402344 C 31.621094 45.460938 31.578125 45.597656 31.398438 45.65625 C 31.1875 45.730469 30.929688 45.761719 30.644531 45.746094 C 30.242188 45.714844 29.625 45.597656 29.191406 45.371094 C 28.769531 45.144531 28.335938 44.695312 28.082031 44.367188 C 27.898438 44.140625 27.824219 43.976562 27.734375 43.691406 C 27.613281 43.300781 27.496094 42.683594 27.554688 42.203125 C 27.613281 41.722656 27.886719 41.140625 28.09375 40.792969 C 28.246094 40.554688 28.378906 40.417969 28.605469 40.238281 C 28.9375 39.984375 29.402344 39.625 29.941406 39.546875 C 30.660156 39.445312 32.132812 40.433594 32.613281 40.042969 C 33.167969 39.59375 32.433594 37.839844 32.703125 36.53125 C 33.078125 34.746094 34.636719 32.226562 35.238281 30.441406 C 35.6875 29.105469 35.824219 26.882812 36.183594 26.871094 C 36.558594 26.855469 37.324219 29.300781 37.472656 30.84375 C 37.667969 32.929688 37.023438 36.425781 36.574219 38.316406 C 36.289062 39.535156 36.152344 40.464844 35.523438 41.214844 C 34.863281 41.996094 33.648438 42.625 32.640625 42.878906 C 31.683594 43.121094 30.554688 43.089844 29.609375 42.789062 C 28.636719 42.476562 27.421875 41.53125 26.894531 40.988281 C 26.609375 40.6875 26.503906 40.449219 26.386719 40.148438 C 26.265625 39.847656 26.175781 39.519531 26.160156 39.1875 C 26.144531 38.875 26.175781 38.527344 26.265625 38.214844 C 26.355469 37.898438 26.488281 37.582031 26.667969 37.3125 C 26.851562 37.042969 27.074219 36.789062 27.332031 36.59375 C 27.585938 36.398438 27.898438 36.234375 28.199219 36.128906 C 28.515625 36.023438 28.84375 35.949219 29.175781 35.949219 C 29.507812 35.949219 29.851562 35.992188 30.152344 36.097656 C 30.464844 36.203125 30.765625 36.367188 31.019531 36.5625 C 31.277344 36.757812 31.53125 36.996094 31.710938 37.269531 C 31.890625 37.539062 32.042969 37.839844 32.132812 38.152344 C 32.222656 38.46875 32.25 38.796875 32.238281 39.128906 C 32.222656 39.457031 32.160156 39.804688 32.042969 40.105469 C 31.921875 40.402344 31.757812 40.703125 31.546875 40.945312 C 31.335938 41.199219 31.082031 41.425781 30.796875 41.589844 C 30.527344 41.753906 30.195312 41.890625 29.882812 41.964844 C 29.566406 42.039062 29.222656 42.054688 28.90625 42.023438 C 28.574219 41.996094 28.246094 41.90625 27.945312 41.769531 C 27.644531 41.632812 27.359375 41.453125 27.121094 41.230469 C 26.878906 41.003906 26.667969 40.734375 26.519531 40.449219 C 26.371094 40.164062 26.265625 39.832031 26.203125 39.519531 C 26.144531 39.203125 26.144531 38.84375 26.191406 38.527344 C 26.234375 38.214844 26.339844 37.882812 26.488281 37.597656 C 26.640625 37.3125 26.851562 37.027344 27.089844 36.800781 C 27.332031 36.578125 27.613281 36.382812 27.898438 36.246094 C 28.199219 36.113281 28.53125 36.007812 28.84375 35.976562 C 29.160156 35.949219 29.429688 35.949219 29.820312 36.023438 C 30.464844 36.140625 32.117188 36.367188 32.265625 36.863281 C 32.433594 37.386719 30.855469 39.261719 30.542969 39.144531 C 29.910156 38.886719 31.171875 30.832031 31.773438 27.875 C 32.175781 25.894531 32.550781 24.257812 33.226562 23.027344 C 33.722656 22.113281 34.234375 21.40625 35.042969 20.925781 C 35.972656 20.386719 37.519531 20.011719 38.628906 20.191406 C 39.710938 20.371094 40.984375 21.105469 41.628906 21.976562 C 42.289062 22.863281 42.457031 24.214844 42.484375 25.519531 C 42.53125 27.140625 41.839844 29.496094 41.449219 30.980469 C 41.179688 32.03125 40.894531 32.75 40.578125 33.621094 C 40.265625 34.492188 40.023438 35.167969 39.589844 36.21875 C 38.882812 37.914062 37.578125 41.109375 36.617188 42.773438 C 35.972656 43.898438 35.628906 44.9375 34.710938 45.445312 C 33.691406 46.015625 31.652344 45.835938 30.644531 45.746094 C 30.03125 45.6875 29.566406 45.535156 29.191406 45.371094 C 28.9375 45.25 28.769531 45.144531 28.574219 44.9375 C 28.289062 44.652344 27.898438 44.140625 27.734375 43.691406 C 27.570312 43.238281 27.496094 42.683594 27.554688 42.203125 C 27.613281 41.722656 27.886719 41.140625 28.09375 40.792969 C 28.246094 40.554688 28.378906 40.417969 28.605469 40.238281 C 28.9375 39.984375 29.519531 39.714844 29.941406 39.546875 C 30.285156 39.414062 30.480469 39.324219 30.902344 39.25 C 31.695312 39.113281 33.257812 39.261719 34.351562 39.160156 C 35.34375 39.070312 36.527344 39.367188 37.1875 38.722656 C 38.164062 37.792969 38.164062 34.355469 38.3125 32.734375 C 38.417969 31.65625 38.34375 30.964844 38.328125 30.003906 C 38.3125 28.910156 38.328125 27.679688 38.222656 26.507812 C 38.117188 25.339844 37.910156 24.199219 37.699219 22.996094 C 37.472656 21.738281 36.84375 20.101562 36.875 19.140625 C 36.886719 18.554688 37.039062 18.167969 37.261719 17.761719 C 37.488281 17.355469 37.863281 16.964844 38.253906 16.710938 C 38.644531 16.457031 39.140625 16.289062 39.605469 16.246094 C 40.070312 16.199219 40.59375 16.289062 41.03125 16.46875 C 41.464844 16.652344 41.914062 17.039062 42.183594 17.324219 C 42.378906 17.535156 42.457031 17.65625 42.574219 17.941406 C 42.800781 18.464844 43.027344 19.488281 43.207031 20.34375 C 43.414062 21.316406 43.582031 22.488281 43.714844 23.523438 C 43.835938 24.5 44.015625 25.757812 44 26.390625 C 43.984375 26.703125 43.972656 26.839844 43.882812 27.09375 C 43.746094 27.453125 43.402344 28.023438 43.144531 28.308594 C 42.964844 28.519531 42.832031 28.625 42.589844 28.761719 C 42.246094 28.941406 41.613281 29.148438 41.226562 29.195312 C 40.953125 29.226562 40.773438 29.210938 40.503906 29.148438 C 40.128906 29.058594 39.574219 28.863281 39.214844 28.578125 C 38.855469 28.292969 38.523438 27.890625 38.328125 27.46875 C 38.132812 27.050781 38.058594 26.703125 38.058594 26.058594 C 38.058594 24.695312 38.328125 20.070312 39.246094 19.667969 C 39.875 19.398438 41.839844 20.730469 41.871094 21.316406 C 41.898438 21.871094 40.371094 22.441406 39.632812 23.089844 C 38.855469 23.761719 38.117188 24.4375 37.355469 25.292969 C 36.453125 26.3125 35.402344 27.769531 34.636719 28.835938 C 34.039062 29.660156 33.542969 30.214844 33.078125 31.101562 C 32.523438 32.179688 32.34375 34.3125 31.683594 34.910156 C 31.292969 35.257812 30.78125 35.257812 30.332031 35.257812 C 29.882812 35.257812 29.371094 35.152344 28.964844 34.941406 C 28.558594 34.730469 28.15625 34.3125 27.914062 34.011719 C 27.75 33.800781 27.660156 33.652344 27.585938 33.398438 C 27.464844 33.035156 27.390625 32.390625 27.40625 32.015625 C 27.421875 31.746094 27.480469 31.550781 27.570312 31.324219 C 27.644531 31.117188 27.734375 30.921875 27.898438 30.710938 C 28.140625 30.410156 28.621094 30.125 28.9375 29.78125 C 29.25 29.421875 29.460938 29.089844 29.789062 28.566406 C 30.359375 27.664062 31.335938 26.074219 31.9375 24.753906 C 32.535156 23.433594 33.195312 21.917969 33.378906 20.628906 C 33.527344 19.546875 33.453125 17.640625 33.167969 17.582031 C 32.867188 17.507812 31.980469 20.011719 31.515625 20.535156 C 31.292969 20.777344 31.171875 20.851562 30.917969 20.972656 C 30.554688 21.136719 29.957031 21.347656 29.476562 21.347656 C 28.996094 21.347656 28.457031 21.226562 28.019531 21.003906 C 27.585938 20.777344 27.179688 20.417969 26.894531 20.027344 C 26.625 19.636719 26.414062 19.125 26.355469 18.644531 C 26.292969 18.167969 26.398438 17.550781 26.519531 17.160156 C 26.609375 16.890625 26.730469 16.710938 26.863281 16.5 C 27 16.289062 27.105469 16.15625 27.359375 15.929688 C 27.871094 15.464844 28.9375 14.566406 29.925781 14.085938 C 31.035156 13.542969 33.738281 12.898438 33.753906 12.929688 C 33.753906 12.945312 31.171875 13.949219 31.113281 13.84375 C 31.066406 13.769531 31.9375 13.140625 32.296875 12.960938 C 32.550781 12.839844 32.761719 12.792969 33.003906 12.75 C 33.242188 12.703125 33.46875 12.675781 33.753906 12.703125 C 34.15625 12.75 34.742188 12.914062 35.148438 13.167969 C 35.554688 13.425781 35.941406 13.816406 36.183594 14.234375 C 36.421875 14.640625 36.558594 15.253906 36.601562 15.644531 C 36.632812 15.929688 36.589844 16.140625 36.542969 16.378906 C 36.5 16.621094 36.421875 16.84375 36.304688 17.101562 C 36.136719 17.445312 35.882812 17.804688 35.554688 18.226562 C 35.058594 18.871094 34.335938 19.921875 33.480469 20.523438 C 32.550781 21.183594 30.945312 22.1875 30.089844 21.902344 C 29.28125 21.632812 28.277344 19.890625 28.425781 19.097656 C 28.574219 18.300781 30.179688 17.851562 31.035156 17.128906 C 31.9375 16.367188 32.882812 15.601562 33.664062 14.640625 C 34.488281 13.621094 35.207031 11.097656 35.792969 11.171875 C 36.484375 11.265625 37.730469 16.199219 37.339844 16.53125 C 37.128906 16.695312 36.347656 16.15625 35.972656 15.839844 C 35.597656 15.523438 35.269531 15.058594 35.085938 14.609375 C 34.90625 14.144531 34.847656 13.589844 34.894531 13.09375 C 34.9375 12.597656 35.132812 12.058594 35.402344 11.652344 C 35.671875 11.25 36.109375 10.875 36.542969 10.632812 C 36.976562 10.394531 37.59375 10.273438 38.015625 10.242188 C 38.3125 10.226562 38.480469 10.226562 38.777344 10.332031 C 39.257812 10.511719 40.578125 11.113281 40.550781 11.472656 C 40.519531 11.894531 38.824219 12.675781 37.9375 12.6875 C 37.023438 12.703125 36.136719 11.773438 35.164062 11.488281 C 34.128906 11.1875 32.730469 11.234375 31.890625 10.980469 C 31.320312 10.796875 30.902344 10.648438 30.511719 10.332031 C 30.121094 10.019531 29.777344 9.492188 29.582031 9.117188 C 29.445312 8.847656 29.386719 8.667969 29.355469 8.367188 C 29.3125 7.949219 29.324219 7.300781 29.476562 6.835938 C 29.625 6.371094 30 5.847656 30.285156 5.546875 C 30.480469 5.320312 30.675781 5.214844 30.902344 5.082031 C 31.125 4.945312 31.335938 4.828125 31.621094 4.765625 C 32.027344 4.675781 32.582031 4.617188 33.152344 4.707031 C 33.902344 4.828125 34.832031 5.246094 35.671875 5.652344 C 36.558594 6.070312 37.863281 6.386719 38.328125 7.210938 C 38.855469 8.144531 38.871094 10.183594 38.300781 11.171875 C 37.730469 12.148438 36.0625 12.6875 34.9375 13.109375 C 33.949219 13.484375 32.628906 13.140625 31.980469 13.722656 C 31.335938 14.308594 31.214844 15.585938 31.082031 16.605469 C 30.929688 17.6875 31.082031 18.871094 31.203125 20.042969 C 31.320312 21.273438 31.667969 22.5625 31.800781 23.777344 C 31.9375 24.933594 32.027344 25.789062 32.011719 27.15625 C 31.996094 29.300781 31.441406 33.261719 31.382812 35.390625 C 31.335938 36.742188 31.320312 37.476562 31.425781 38.722656 C 31.578125 40.328125 31.578125 43.960938 32.34375 44.230469 C 32.972656 44.457031 34.140625 42.175781 35.191406 41.722656 C 36.136719 41.320312 37.277344 41.394531 38.285156 41.453125 C 39.246094 41.515625 40.910156 42.308594 41.089844 42.023438 C 41.269531 41.738281 39.679688 40.570312 39.335938 39.683594 C 38.972656 38.769531 38.824219 37.539062 39.019531 36.609375 C 39.199219 35.738281 39.738281 34.898438 40.339844 34.238281 C 40.953125 33.5625 41.808594 33.140625 42.664062 32.632812 C 43.609375 32.0625 45.292969 30.742188 45.800781 31.054688 C 46.3125 31.371094 46.070312 34.386719 45.773438 34.460938 C 45.382812 34.550781 42.949219 29.660156 43.144531 29.523438 C 43.296875 29.421875 45.578125 31.582031 45.425781 31.835938 C 45.277344 32.089844 43.234375 31.625 42.351562 31.128906 C 41.464844 30.636719 40.519531 29.839844 40.097656 28.894531 C 39.648438 27.875 39.679688 26.285156 39.917969 25.113281 C 40.144531 23.988281 40.609375 22.757812 41.40625 21.960938 C 42.246094 21.105469 44.257812 19.890625 44.945312 20.25 C 45.621094 20.597656 44.945312 23.179688 45.578125 23.972656 C 46.101562 24.632812 47.273438 25.1875 48.066406 25.007812 C 49.042969 24.796875 50.574219 21.902344 50.796875 22.023438 C 50.949219 22.097656 50.601562 23.179688 50.421875 23.566406 C 50.289062 23.851562 50.183594 24.003906 49.957031 24.226562 C 49.644531 24.527344 49.132812 24.949219 48.652344 25.128906 C 48.171875 25.308594 47.585938 25.382812 47.078125 25.324219 C 46.566406 25.261719 45.964844 24.980469 45.589844 24.753906 C 45.335938 24.589844 45.1875 24.46875 44.992188 24.226562 C 44.722656 23.882812 44.4375 23.417969 44.257812 22.816406 C 43.984375 21.902344 43.609375 19.261719 43.941406 19.125 C 44.242188 19.007812 46.042969 21.273438 45.890625 21.496094 C 45.785156 21.664062 44.796875 21.347656 44.347656 21.105469 C 43.894531 20.867188 43.460938 20.460938 43.175781 20.042969 C 42.890625 19.605469 42.679688 19.050781 42.621094 18.542969 C 42.558594 18.03125 42.695312 17.371094 42.832031 16.964844 C 42.921875 16.679688 43.011719 16.5 43.207031 16.261719 C 43.476562 15.929688 43.957031 15.449219 44.40625 15.226562 C 44.871094 14.984375 45.441406 14.910156 45.953125 14.863281 C 46.433594 14.820312 46.835938 14.789062 47.363281 14.953125 C 48.140625 15.195312 49.402344 15.691406 50.0625 16.5 C 50.84375 17.460938 51.59375 19.488281 51.414062 20.671875 C 51.261719 21.664062 50.511719 22.804688 49.65625 23.222656 C 48.710938 23.6875 47.078125 23.507812 45.832031 23.011719 C 44.316406 22.414062 42.351562 20.671875 41.421875 19.304688 C 40.667969 18.210938 40.398438 16.90625 40.21875 15.78125 C 40.070312 14.820312 40.097656 13.90625 40.234375 13.003906 C 40.371094 12.089844 41.164062 10.394531 41.03125 10.332031 C 40.894531 10.273438 40.070312 12.238281 39.320312 12.792969 C 38.597656 13.320312 37.5625 13.722656 36.695312 13.648438 C 35.75 13.558594 34.519531 12.871094 33.855469 12.132812 C 33.210938 11.414062 32.792969 10.257812 32.730469 9.328125 C 32.671875 8.441406 33.558594 6.730469 33.421875 6.671875 C 33.273438 6.613281 32.296875 8.1875 31.847656 9.011719 C 31.382812 9.867188 31.277344 10.753906 30.660156 11.742188 C 29.777344 13.183594 27.765625 15.34375 26.640625 16.574219 C 25.890625 17.402344 25.542969 17.867188 24.6875 18.542969 C 23.398438 19.5625 20.953125 20.925781 19.40625 21.738281 C 18.265625 22.324219 17.203125 23.011719 16.347656 23.089844 C 15.777344 23.148438 15.234375 22.90625 14.859375 22.742188 C 14.589844 22.621094 14.425781 22.519531 14.214844 22.308594 C 13.914062 22.023438 13.511719 21.527344 13.332031 21.0625 C 13.148438 20.597656 13.074219 20.042969 13.121094 19.546875 C 13.164062 19.050781 13.433594 18.464844 13.644531 18.105469 C 13.796875 17.851562 13.929688 17.699219 14.15625 17.519531 C 14.484375 17.265625 15.101562 16.90625 15.492188 16.785156 C 15.777344 16.695312 16.195312 16.589844 16.257812 16.695312 C 16.347656 16.84375 15.28125 17.894531 15.386719 18.015625 C 15.535156 18.195312 17.726562 16.53125 18.402344 16.46875 C 18.71875 16.441406 18.882812 16.5625 19.136719 16.695312 C 19.511719 16.890625 20.066406 17.324219 20.335938 17.640625 C 20.53125 17.867188 20.636719 18.03125 20.742188 18.300781 C 20.894531 18.691406 21.042969 19.304688 21.011719 19.800781 C 20.984375 20.296875 20.816406 20.835938 20.5625 21.257812 C 20.308594 21.675781 19.828125 22.097656 19.480469 22.335938 C 19.242188 22.503906 19.0625 22.578125 18.777344 22.652344 C 18.371094 22.757812 17.636719 22.9375 17.246094 22.742188 C 16.855469 22.546875 16.738281 21.527344 16.4375 21.527344 C 16.015625 21.542969 15.265625 23.238281 14.964844 23.972656 C 14.742188 24.511719 14.753906 25.070312 14.589844 25.445312 C 14.46875 25.714844 14.367188 25.863281 14.15625 26.074219 C 13.855469 26.359375 13.359375 26.765625 12.894531 26.929688 C 12.429688 27.09375 11.875 27.15625 11.394531 27.09375 C 10.898438 27.035156 10.328125 26.75 9.96875 26.539062 C 9.714844 26.390625 9.578125 26.253906 9.398438 26.027344 C 9.144531 25.699219 8.828125 25.203125 8.707031 24.695312 C 8.558594 24.078125 8.648438 23.34375 8.695312 22.5625 C 8.753906 21.601562 8.859375 20.613281 9.082031 19.367188 C 9.414062 17.597656 10.269531 14.023438 10.6875 12.988281 C 10.839844 12.628906 10.929688 12.523438 11.078125 12.3125 C 11.230469 12.105469 11.363281 11.925781 11.605469 11.757812 C 11.949219 11.519531 12.503906 11.203125 13 11.113281 C 13.480469 11.023438 14.050781 11.054688 14.53125 11.1875 C 15.011719 11.324219 15.492188 11.625 15.851562 11.96875 C 16.210938 12.3125 16.511719 12.792969 16.660156 13.257812 C 16.8125 13.722656 16.8125 14.371094 16.765625 14.789062 C 16.738281 15.089844 16.644531 15.496094 16.542969 15.523438 C 16.464844 15.539062 16.359375 15.269531 16.285156 15.300781 C 15.910156 15.464844 16.390625 22.335938 16.121094 24.5 C 15.972656 25.699219 15.761719 26.390625 15.460938 27.273438 C 15.175781 28.144531 14.710938 28.851562 14.367188 29.808594 C 13.945312 30.996094 13.601562 32.929688 13.179688 33.90625 C 12.925781 34.492188 12.761719 34.867188 12.414062 35.226562 C 12.070312 35.574219 11.589844 35.871094 11.125 36.023438 C 10.660156 36.171875 10.089844 36.21875 9.609375 36.140625 C 9.128906 36.066406 8.605469 35.84375 8.214844 35.542969 C 7.824219 35.242188 7.476562 34.808594 7.269531 34.355469 C 7.058594 33.90625 6.96875 33.320312 6.96875 32.855469 C 6.96875 32.4375 7.074219 32.121094 7.191406 31.65625 C 7.375 30.949219 7.476562 29.839844 8.046875 29.089844 C 8.738281 28.175781 10.300781 26.871094 11.335938 26.839844 C 12.21875 26.808594 13.285156 27.648438 13.871094 28.339844 C 14.425781 29 14.636719 29.855469 14.816406 30.875 C 15.085938 32.347656 15.054688 34.808594 14.800781 36.398438 C 14.605469 37.65625 14.441406 39.082031 13.71875 39.714844 C 13.058594 40.300781 11.304688 40.75 10.792969 40.222656 C 9.847656 39.261719 12.25 32.675781 12.640625 30.261719 C 12.863281 28.878906 12.953125 28.101562 13.074219 26.988281 C 13.195312 25.832031 13.269531 24.828125 13.332031 23.417969 C 13.40625 21.347656 13.285156 17.777344 13.375 15.75 C 13.433594 14.414062 13.40625 13.46875 13.644531 12.449219 C 13.871094 11.488281 14.050781 10.453125 14.695312 9.777344 C 15.414062 9.027344 16.917969 8.472656 17.996094 8.324219 C 18.941406 8.1875 19.949219 8.277344 20.789062 8.699219 C 21.71875 9.164062 22.796875 10.242188 23.25 11.203125 C 23.667969 12.105469 23.5625 13.199219 23.5625 14.21875 C 23.5625 15.269531 23.457031 16.09375 23.234375 17.414062 C 22.859375 19.652344 21.523438 24.019531 21.117188 26.359375 C 20.863281 27.84375 20.773438 28.609375 20.710938 30.050781 C 20.636719 32.03125 20.710938 35.210938 20.96875 37.179688 C 21.148438 38.589844 21.582031 39.5625 21.761719 40.792969 C 21.957031 42.070312 22.722656 44.199219 22.09375 44.695312 C 21.3125 45.3125 17.066406 43.824219 16.285156 42.714844 C 15.730469 41.933594 16.269531 40.765625 16.332031 39.714844 C 16.390625 38.527344 16.480469 37.703125 16.675781 35.976562 C 17.125 32.0625 19.0625 20.535156 19.300781 16.785156 C 19.40625 15.238281 19.421875 14.550781 19.289062 13.5 C 19.152344 12.480469 18.941406 11.457031 18.507812 10.558594 C 18.058594 9.644531 16.421875 8.335938 16.632812 8.039062 C 16.855469 7.707031 20.066406 8.441406 20.1875 8.9375 C 20.292969 9.375 18.957031 10.304688 18.085938 10.695312 C 17.035156 11.160156 15.128906 10.617188 14.171875 11.234375 C 13.300781 11.789062 12.894531 12.882812 12.445312 14.007812 C 11.84375 15.496094 12.144531 18.332031 11.273438 19.5 C 10.613281 20.386719 8.917969 21.316406 8.4375 21.046875 C 7.988281 20.792969 8.0625 18.300781 8.289062 18.226562 C 8.542969 18.152344 9.367188 20.3125 10.042969 21.195312 C 10.675781 22.023438 11.753906 22.53125 12.191406 23.386719 C 12.625 24.242188 12.730469 25.308594 12.683594 26.3125 C 12.640625 27.394531 12.488281 28.773438 11.816406 29.675781 C 11.078125 30.679688 8.152344 31.355469 8.214844 31.894531 C 8.257812 32.347656 10.195312 32.269531 10.972656 32.8125 C 11.769531 33.367188 12.371094 34.238281 12.894531 35.195312 C 13.511719 36.324219 14.589844 38.273438 14.277344 39.234375 C 14.003906 40.027344 11.84375 40.597656 11.917969 40.839844 C 11.996094 41.078125 13.78125 40.660156 14.710938 40.71875 C 15.65625 40.777344 16.691406 40.867188 17.5625 41.246094 C 18.433594 41.632812 19.40625 42.265625 19.933594 43.03125 C 20.457031 43.78125 20.53125 45.804688 20.726562 45.789062 C 20.921875 45.777344 21.101562 43.824219 21.101562 42.851562 C 21.101562 41.875 20.789062 41.183594 20.726562 39.9375 C 20.621094 37.746094 20.742188 33.589844 20.96875 30.859375 C 21.164062 28.578125 21.628906 26.882812 21.839844 24.617188 C 22.09375 21.917969 22.273438 18.453125 22.289062 15.734375 C 22.304688 13.425781 22.421875 10.933594 22.046875 9.3125 C 21.808594 8.246094 21.582031 7.40625 20.953125 6.777344 C 20.246094 6.070312 18.355469 6.042969 17.832031 5.441406 C 17.5 5.066406 17.488281 4.511719 17.441406 4.136719 C 17.410156 3.867188 17.425781 3.699219 17.488281 3.445312 C 17.578125 3.085938 17.847656 2.5 18.058594 2.199219 C 18.207031 1.992188 18.371094 1.855469 18.550781 1.71875 C 18.730469 1.585938 18.898438 1.464844 19.152344 1.375 C 19.496094 1.238281 20.050781 1.105469 20.503906 1.136719 C 20.9375 1.164062 21.433594 1.316406 21.808594 1.554688 C 22.183594 1.78125 22.695312 2.574219 22.753906 2.53125 C 22.785156 2.515625 22.589844 2.125 22.617188 2.109375 C 22.707031 2.066406 24.507812 3.730469 24.75 4.796875 C 25.019531 5.980469 24.328125 8.113281 23.789062 8.96875 C 23.457031 9.476562 22.902344 9.734375 22.542969 9.929688 C 22.316406 10.0625 22.183594 10.125 21.929688 10.167969 C 21.582031 10.226562 20.96875 10.226562 20.621094 10.167969 C 20.367188 10.125 20.203125 10.035156 20.007812 9.929688 C 19.8125 9.824219 19.648438 9.75 19.46875 9.566406 C 19.210938 9.3125 18.867188 8.878906 18.71875 8.488281 C 18.566406 8.082031 18.507812 7.601562 18.550781 7.183594 C 18.597656 6.761719 18.835938 6.265625 19.015625 5.96875 C 19.152344 5.757812 19.453125 5.472656 19.453125 5.472656 " clip-rule="nonzero"/></clipPath><clipPath id="2f24bb2e6b"><path d="M 0.988281 0 L 28 0 L 28 53.019531 L 0.988281 53.019531 Z M 0.988281 0 " clip-rule="nonzero"/></clipPath><clipPath id="6383713643"><path d="M 25 0 L 52.902344 0 L 52.902344 53.019531 L 25 53.019531 Z M 25 0 " clip-rule="nonzero"/></clipPath><clipPath id="e3b038e629"><path d="M 25.617188 3.902344 L 26.191406 3.902344 L 26.191406 4.386719 L 25.617188 4.386719 Z M 25.617188 3.902344 " clip-rule="nonzero"/></clipPath><clipPath id="ccc7974d54"><path d="M 26.191406 4.078125 C 25.933594 4.480469 25.710938 4.40625 25.648438 4.316406 C 25.589844 4.226562 25.632812 3.984375 25.710938 3.925781 C 25.785156 3.867188 26.113281 3.957031 26.113281 3.957031 " clip-rule="nonzero"/></clipPath><clipPath id="31453b69e4"><path d="M 24 47 L 26 47 L 26 51 L 24 51 Z M 24 47 " clip-rule="nonzero"/></clipPath><clipPath id="a8ad395102"><path d="M 26.269531 47.882812 L 24.898438 50.902344 L 23.894531 50.445312 L 25.265625 47.425781 Z M 26.269531 47.882812 " clip-rule="nonzero"/></clipPath><clipPath id="28fec6cbbf"><path d="M 26.269531 47.882812 L 24.898438 50.902344 L 23.894531 50.445312 L 25.265625 47.425781 Z M 26.269531 47.882812 " clip-rule="nonzero"/></clipPath><clipPath id="0f28c61489"><path d="M 28 47 L 30 47 L 30 51 L 28 51 Z M 28 47 " clip-rule="nonzero"/></clipPath><clipPath id="20c8e5126d"><path d="M 28.652344 47.148438 L 29.757812 50.269531 L 28.714844 50.640625 L 27.609375 47.515625 Z M 28.652344 47.148438 " clip-rule="nonzero"/></clipPath><clipPath id="004a037aab"><path d="M 27.707031 47.480469 L 28.8125 50.605469 L 29.855469 50.238281 L 28.75 47.113281 Z M 27.707031 47.480469 " clip-rule="nonzero"/></clipPath><clipPath id="38ee646538"><path d="M 24 2 L 26 2 L 26 6 L 24 6 Z M 24 2 " clip-rule="nonzero"/></clipPath><clipPath id="4951b5d1c4"><path d="M 24.976562 2.261719 L 26.296875 5.300781 L 25.285156 5.742188 L 23.964844 2.703125 Z M 24.976562 2.261719 " clip-rule="nonzero"/></clipPath><clipPath id="641d8b27c2"><path d="M 24.976562 2.261719 L 26.296875 5.300781 L 25.285156 5.742188 L 23.964844 2.703125 Z M 24.976562 2.261719 " clip-rule="nonzero"/></clipPath><clipPath id="0d2ac829e8"><path d="M 28 2 L 31 2 L 31 6 L 28 6 Z M 28 2 " clip-rule="nonzero"/></clipPath><clipPath id="cc810bc29b"><path d="M 27.761719 4.820312 L 29.363281 1.921875 L 30.332031 2.457031 L 28.730469 5.355469 Z M 27.761719 4.820312 " clip-rule="nonzero"/></clipPath><clipPath id="08dec5e311"><path d="M 27.761719 4.820312 L 29.363281 1.921875 L 30.332031 2.457031 L 28.730469 5.355469 Z M 27.761719 4.820312 " clip-rule="nonzero"/></clipPath><clipPath id="598f11604c"><path d="M 26 43 L 28 43 L 28 46.875 L 26 46.875 Z M 26 43 " clip-rule="nonzero"/></clipPath><clipPath id="3898e99667"><path d="M 11.660156 22.632812 L 24.972656 22.632812 L 24.972656 37.070312 L 11.660156 37.070312 Z M 11.660156 22.632812 " clip-rule="nonzero"/></clipPath><clipPath id="1260a915b5"><path d="M 28.726562 31.363281 L 38.515625 31.363281 L 38.515625 45.800781 L 28.726562 45.800781 Z M 28.726562 31.363281 " clip-rule="nonzero"/></clipPath><clipPath id="3ef5611665"><path d="M 29.09375 12.355469 L 42.292969 12.355469 L 42.292969 26.589844 L 29.09375 26.589844 Z M 29.09375 12.355469 " clip-rule="nonzero"/></clipPath></defs><g clip-path="url(#10d71d2f82)"><g clip-path="url(#6c430a43e8)"><path fill="#ffa7b4" d="M 1.566406 0.488281 L 52.015625 0.488281 L 52.015625 52.734375 L 1.566406 52.734375 Z M 1.566406 0.488281 " fill-opacity="1" fill-rule="nonzero"/></g></g><g clip-path="url(#2f24bb2e6b)"><path fill="#211f1e" d="M 15.359375 46.003906 C 15.507812 46.003906 15.652344 46.035156 15.789062 46.101562 C 16.074219 46.246094 16.273438 46.523438 16.316406 46.84375 C 16.636719 49.253906 18.699219 51.074219 21.113281 51.074219 C 23.796875 51.074219 25.976562 48.886719 25.976562 46.199219 L 25.976562 6.8125 C 25.976562 4.125 23.796875 1.9375 21.113281 1.9375 C 18.699219 1.9375 16.636719 3.757812 16.316406 6.171875 C 16.273438 6.488281 16.074219 6.765625 15.789062 6.910156 C 15.503906 7.050781 15.164062 7.046875 14.882812 6.886719 C 14.121094 6.453125 13.324219 6.234375 12.507812 6.234375 C 9.828125 6.234375 7.644531 8.421875 7.644531 11.109375 C 7.644531 12.246094 8.046875 13.324219 8.804688 14.226562 C 9.054688 14.519531 9.105469 14.933594 8.933594 15.28125 C 8.761719 15.625 8.386719 15.84375 8.019531 15.820312 C 7.992188 15.816406 7.835938 15.800781 7.808594 15.796875 C 7.804688 15.796875 7.800781 15.796875 7.796875 15.796875 C 5.09375 15.796875 2.917969 17.980469 2.917969 20.664062 C 2.917969 23.351562 5.097656 25.539062 7.78125 25.539062 C 8.316406 25.539062 8.75 25.972656 8.75 26.507812 C 8.75 27.042969 8.316406 27.476562 7.78125 27.476562 C 5.097656 27.476562 2.917969 29.660156 2.917969 32.347656 C 2.917969 35.035156 5.097656 37.222656 7.78125 37.222656 L 8.019531 37.195312 C 8.390625 37.160156 8.761719 37.386719 8.933594 37.730469 C 9.105469 38.078125 9.054688 38.492188 8.808594 38.785156 C 8.046875 39.6875 7.644531 40.765625 7.644531 41.90625 C 7.644531 44.589844 9.828125 46.777344 12.507812 46.777344 C 13.324219 46.777344 14.121094 46.558594 14.882812 46.128906 C 15.03125 46.042969 15.195312 46.003906 15.359375 46.003906 Z M 21.113281 53.011719 C 18.164062 53.011719 15.589844 51.074219 14.683594 48.339844 C 13.980469 48.589844 13.25 48.714844 12.507812 48.714844 C 8.761719 48.714844 5.710938 45.660156 5.710938 41.90625 C 5.710938 40.890625 5.9375 39.910156 6.371094 39.011719 C 3.300781 38.359375 0.984375 35.617188 0.984375 32.347656 C 0.984375 29.871094 2.3125 27.699219 4.292969 26.507812 C 2.3125 25.316406 0.984375 23.140625 0.984375 20.664062 C 0.984375 17.394531 3.300781 14.65625 6.371094 14.003906 C 5.9375 13.101562 5.710938 12.125 5.710938 11.109375 C 5.710938 7.355469 8.761719 4.300781 12.507812 4.300781 C 13.25 4.300781 13.980469 4.425781 14.683594 4.671875 C 15.589844 1.9375 18.164062 0.00390625 21.113281 0.00390625 C 24.859375 0.00390625 27.910156 3.058594 27.910156 6.8125 L 27.910156 46.199219 C 27.910156 49.957031 24.859375 53.011719 21.113281 53.011719 " fill-opacity="1" fill-rule="nonzero"/></g><g clip-path="url(#6383713643)"><path fill="#211f1e" d="M 32.773438 1.9375 C 30.089844 1.9375 27.910156 4.125 27.910156 6.8125 L 27.910156 46.199219 C 27.910156 48.886719 30.089844 51.074219 32.773438 51.074219 C 35.183594 51.074219 37.246094 49.253906 37.566406 46.84375 C 37.609375 46.523438 37.808594 46.246094 38.09375 46.101562 C 38.382812 45.960938 38.722656 45.96875 39 46.128906 C 39.761719 46.558594 40.558594 46.777344 41.375 46.777344 C 44.058594 46.777344 46.238281 44.589844 46.238281 41.90625 C 46.238281 40.765625 45.835938 39.6875 45.078125 38.785156 C 44.832031 38.488281 44.78125 38.078125 44.953125 37.730469 C 45.121094 37.386719 45.480469 37.15625 45.867188 37.195312 C 45.894531 37.195312 46.050781 37.210938 46.078125 37.21875 C 46.082031 37.21875 46.085938 37.21875 46.089844 37.21875 C 48.789062 37.21875 50.964844 35.03125 50.964844 32.347656 C 50.964844 29.660156 48.785156 27.476562 46.101562 27.476562 C 45.566406 27.476562 45.136719 27.042969 45.136719 26.507812 C 45.136719 25.972656 45.566406 25.539062 46.101562 25.539062 C 48.785156 25.539062 50.964844 23.351562 50.964844 20.664062 C 50.964844 17.976562 48.785156 15.792969 46.101562 15.792969 C 46.007812 15.804688 45.9375 15.816406 45.867188 15.820312 C 45.484375 15.84375 45.121094 15.625 44.953125 15.28125 C 44.78125 14.9375 44.832031 14.523438 45.078125 14.226562 C 45.835938 13.324219 46.238281 12.246094 46.238281 11.109375 C 46.238281 8.421875 44.058594 6.234375 41.375 6.234375 C 40.558594 6.234375 39.761719 6.453125 39 6.886719 C 38.722656 7.042969 38.382812 7.050781 38.09375 6.910156 C 37.808594 6.765625 37.609375 6.488281 37.566406 6.171875 C 37.246094 3.757812 35.183594 1.9375 32.773438 1.9375 Z M 32.773438 53.011719 C 29.023438 53.011719 25.976562 49.957031 25.976562 46.199219 L 25.976562 6.8125 C 25.976562 3.058594 29.023438 0.00390625 32.773438 0.00390625 C 35.722656 0.00390625 38.296875 1.9375 39.199219 4.671875 C 39.90625 4.425781 40.632812 4.300781 41.375 4.300781 C 45.121094 4.300781 48.171875 7.355469 48.171875 11.109375 C 48.171875 12.125 47.945312 13.101562 47.511719 14.003906 C 50.585938 14.65625 52.898438 17.394531 52.898438 20.664062 C 52.898438 23.140625 51.570312 25.316406 49.59375 26.507812 C 51.570312 27.699219 52.898438 29.871094 52.898438 32.347656 C 52.898438 35.617188 50.585938 38.355469 47.511719 39.011719 C 47.945312 39.910156 48.171875 40.890625 48.171875 41.90625 C 48.171875 45.660156 45.121094 48.714844 41.375 48.714844 C 40.632812 48.714844 39.90625 48.589844 39.199219 48.339844 C 38.296875 51.074219 35.722656 53.011719 32.773438 53.011719 " fill-opacity="1" fill-rule="nonzero"/></g><path fill="#211f1e" d="M 15.378906 21.1875 C 14.84375 21.1875 14.410156 20.753906 14.410156 20.21875 C 14.410156 16.121094 7.808594 15.792969 7.742188 15.789062 C 7.210938 15.765625 6.796875 15.316406 6.816406 14.78125 C 6.839844 14.25 7.195312 13.820312 7.824219 13.855469 C 8.171875 13.871094 16.34375 14.285156 16.34375 20.21875 C 16.34375 20.753906 15.910156 21.1875 15.378906 21.1875 " fill-opacity="1" fill-rule="nonzero"/><path fill="#211f1e" d="M 16.90625 35.742188 C 16.371094 35.742188 15.941406 35.3125 15.941406 34.777344 C 15.941406 32.785156 16.617188 31.128906 17.957031 29.851562 C 21.089844 26.859375 26.753906 27.09375 26.988281 27.105469 C 27.523438 27.132812 27.933594 27.582031 27.90625 28.117188 C 27.882812 28.652344 27.4375 29.089844 26.898438 29.039062 C 26.847656 29.039062 21.808594 28.835938 19.285156 31.257812 C 18.335938 32.167969 17.871094 33.316406 17.871094 34.777344 C 17.871094 35.3125 17.441406 35.742188 16.90625 35.742188 " fill-opacity="1" fill-rule="nonzero"/><path fill="#211f1e" d="M 35.351562 41.296875 C 34.820312 41.296875 34.386719 40.867188 34.386719 40.332031 C 34.386719 39.671875 34.128906 39.394531 33.902344 39.230469 C 32.621094 38.28125 29.125 38.851562 27.226562 39.4375 C 26.722656 39.597656 26.175781 39.308594 26.019531 38.792969 C 25.863281 38.285156 26.148438 37.742188 26.660156 37.585938 C 27.257812 37.402344 32.582031 35.84375 35.054688 37.671875 C 35.882812 38.285156 36.320312 39.203125 36.320312 40.332031 C 36.320312 40.867188 35.886719 41.296875 35.351562 41.296875 " fill-opacity="1" fill-rule="nonzero"/><path fill="#211f1e" d="M 46.101562 39.15625 C 46.03125 39.15625 45.960938 39.148438 45.890625 39.132812 C 45.605469 39.070312 38.964844 37.515625 38.964844 32.007812 C 38.964844 31.472656 39.398438 31.039062 39.929688 31.039062 C 40.464844 31.039062 40.898438 31.472656 40.898438 32.007812 C 40.898438 35.980469 46.257812 37.234375 46.3125 37.246094 C 46.832031 37.363281 47.160156 37.878906 47.042969 38.402344 C 46.941406 38.851562 46.542969 39.15625 46.101562 39.15625 " fill-opacity="1" fill-rule="nonzero"/><path fill="#211f1e" d="M 31.945312 21.355469 C 28.988281 21.355469 26.585938 19.984375 26.457031 19.90625 C 25.996094 19.640625 25.839844 19.050781 26.105469 18.585938 C 26.375 18.121094 26.960938 17.964844 27.425781 18.230469 C 27.460938 18.25 30.820312 20.148438 34.027344 19.097656 C 35.9375 18.46875 37.460938 16.898438 38.554688 14.429688 C 38.769531 13.941406 39.347656 13.722656 39.828125 13.9375 C 40.316406 14.15625 40.535156 14.726562 40.320312 15.214844 C 38.996094 18.214844 37.074219 20.140625 34.613281 20.941406 C 33.703125 21.238281 32.800781 21.355469 31.945312 21.355469 " fill-opacity="1" fill-rule="nonzero"/><path stroke-linecap="round" transform="matrix(0.0000000019278, 1.104545, -1.104545, 0.0000000019278, 28.653601, 3.221841)" fill="none" stroke-linejoin="miter" d="M 1.500224 1.500624 L 40.458559 1.500624 " stroke="#211f1e" stroke-width="3" stroke-opacity="1" stroke-miterlimit="4"/><g clip-path="url(#e3b038e629)"><g clip-path="url(#ccc7974d54)"><path fill="#231f20" d="M 25.050781 3.324219 L 26.785156 3.324219 L 26.785156 5.035156 L 25.050781 5.035156 Z M 25.050781 3.324219 " fill-opacity="1" fill-rule="nonzero"/></g></g><g clip-path="url(#31453b69e4)"><g clip-path="url(#a8ad395102)"><g clip-path="url(#28fec6cbbf)"><path fill="#211f1e" d="M 25.253906 47.746094 C 25.230469 47.746094 25.21875 47.757812 25.226562 47.78125 C 25.289062 48.117188 25.210938 48.597656 24.988281 49.082031 C 24.765625 49.570312 24.457031 49.945312 24.160156 50.121094 C 24.140625 50.132812 24.140625 50.144531 24.152344 50.164062 L 24.539062 50.644531 C 24.550781 50.65625 24.5625 50.660156 24.578125 50.648438 C 24.644531 50.605469 24.707031 50.558594 24.765625 50.507812 C 25.089844 50.234375 25.386719 49.828125 25.597656 49.359375 C 25.8125 48.894531 25.921875 48.402344 25.914062 47.980469 C 25.914062 47.902344 25.90625 47.824219 25.898438 47.746094 C 25.894531 47.726562 25.886719 47.71875 25.867188 47.71875 Z M 25.253906 47.746094 " fill-opacity="1" fill-rule="nonzero"/></g></g></g><g clip-path="url(#0f28c61489)"><g clip-path="url(#20c8e5126d)"><g clip-path="url(#004a037aab)"><path fill="#211f1e" d="M 28.734375 47.429688 C 28.757812 47.433594 28.765625 47.445312 28.757812 47.46875 C 28.667969 47.796875 28.703125 48.285156 28.882812 48.789062 C 29.058594 49.289062 29.335938 49.691406 29.617188 49.890625 C 29.632812 49.902344 29.636719 49.917969 29.621094 49.9375 L 29.195312 50.378906 C 29.183594 50.390625 29.167969 50.394531 29.15625 50.382812 C 29.09375 50.332031 29.035156 50.28125 28.980469 50.226562 C 28.679688 49.925781 28.421875 49.496094 28.25 49.011719 C 28.078125 48.527344 28.007812 48.027344 28.054688 47.609375 C 28.0625 47.53125 28.074219 47.453125 28.089844 47.375 C 28.09375 47.355469 28.105469 47.347656 28.125 47.351562 Z M 28.734375 47.429688 " fill-opacity="1" fill-rule="nonzero"/></g></g></g><g clip-path="url(#38ee646538)"><g clip-path="url(#4951b5d1c4)"><g clip-path="url(#641d8b27c2)"><path fill="#211f1e" d="M 24.191406 2.921875 C 24.175781 2.941406 24.179688 2.957031 24.199219 2.96875 C 24.492188 3.144531 24.796875 3.527344 25.007812 4.015625 C 25.222656 4.507812 25.292969 4.988281 25.222656 5.324219 C 25.21875 5.347656 25.226562 5.359375 25.25 5.359375 L 25.863281 5.394531 C 25.882812 5.398438 25.894531 5.386719 25.894531 5.371094 C 25.90625 5.292969 25.914062 5.214844 25.917969 5.136719 C 25.933594 4.710938 25.828125 4.21875 25.625 3.75 C 25.417969 3.277344 25.128906 2.867188 24.8125 2.589844 C 24.75 2.539062 24.6875 2.488281 24.625 2.445312 C 24.609375 2.433594 24.597656 2.4375 24.585938 2.449219 Z M 24.191406 2.921875 " fill-opacity="1" fill-rule="nonzero"/></g></g></g><g clip-path="url(#0d2ac829e8)"><g clip-path="url(#cc810bc29b)"><g clip-path="url(#08dec5e311)"><path fill="#211f1e" d="M 28.765625 5.039062 C 28.789062 5.039062 28.796875 5.03125 28.796875 5.007812 C 28.761719 4.667969 28.875 4.191406 29.132812 3.726562 C 29.390625 3.257812 29.730469 2.90625 30.039062 2.757812 C 30.058594 2.746094 30.0625 2.734375 30.050781 2.714844 L 29.703125 2.207031 C 29.695312 2.191406 29.679688 2.1875 29.664062 2.195312 C 29.59375 2.234375 29.527344 2.277344 29.464844 2.324219 C 29.121094 2.570312 28.792969 2.953125 28.546875 3.402344 C 28.296875 3.851562 28.148438 4.332031 28.125 4.753906 C 28.117188 4.832031 28.117188 4.910156 28.121094 4.988281 C 28.125 5.007812 28.132812 5.015625 28.152344 5.015625 Z M 28.765625 5.039062 " fill-opacity="1" fill-rule="nonzero"/></g></g></g><path fill="#ffffff" d="M 26.867188 28 C 26.726562 28 26.609375 28.046875 26.507812 28.144531 C 26.410156 28.246094 26.363281 28.363281 26.363281 28.503906 L 26.363281 30.515625 C 26.363281 30.65625 26.410156 30.773438 26.507812 30.871094 C 26.609375 30.96875 26.726562 31.019531 26.867188 31.019531 C 27.003906 31.019531 27.125 30.96875 27.222656 30.871094 C 27.320312 30.773438 27.367188 30.65625 27.367188 30.515625 L 27.367188 28.503906 C 27.367188 28.363281 27.320312 28.246094 27.222656 28.144531 C 27.125 28.046875 27.003906 28 26.867188 28 Z M 26.867188 28 " fill-opacity="1" fill-rule="nonzero"/><path fill="#ffffff" d="M 26.867188 33.035156 C 26.726562 33.035156 26.609375 33.082031 26.507812 33.179688 C 26.410156 33.28125 26.363281 33.398438 26.363281 33.539062 L 26.363281 35.550781 C 26.363281 35.691406 26.410156 35.808594 26.507812 35.90625 C 26.609375 36.003906 26.726562 36.054688 26.867188 36.054688 C 27.003906 36.054688 27.125 36.003906 27.222656 35.90625 C 27.320312 35.808594 27.367188 35.691406 27.367188 35.550781 L 27.367188 33.539062 C 27.367188 33.398438 27.320312 33.28125 27.222656 33.179688 C 27.125 33.082031 27.003906 33.035156 26.867188 33.035156 Z M 26.867188 33.035156 " fill-opacity="1" fill-rule="nonzero"/><path fill="#ffffff" d="M 26.867188 38.070312 C 26.726562 38.070312 26.609375 38.117188 26.507812 38.214844 C 26.410156 38.316406 26.363281 38.433594 26.363281 38.574219 L 26.363281 40.585938 C 26.363281 40.726562 26.410156 40.84375 26.507812 40.941406 C 26.609375 41.039062 26.726562 41.089844 26.867188 41.089844 C 27.003906 41.089844 27.125 41.039062 27.222656 40.941406 C 27.320312 40.84375 27.367188 40.726562 27.367188 40.585938 L 27.367188 38.574219 C 27.367188 38.433594 27.320312 38.316406 27.222656 38.214844 C 27.125 38.117188 27.003906 38.070312 26.867188 38.070312 Z M 26.867188 38.070312 " fill-opacity="1" fill-rule="nonzero"/><g clip-path="url(#598f11604c)"><path fill="#ffffff" d="M 26.867188 43.105469 C 26.726562 43.105469 26.609375 43.152344 26.507812 43.25 C 26.410156 43.351562 26.363281 43.46875 26.363281 43.609375 L 26.363281 45.621094 C 26.363281 45.761719 26.410156 45.878906 26.507812 45.976562 C 26.609375 46.074219 26.726562 46.125 26.867188 46.125 C 27.003906 46.125 27.125 46.074219 27.222656 45.976562 C 27.320312 45.878906 27.367188 45.761719 27.367188 45.621094 L 27.367188 43.609375 C 27.367188 43.46875 27.320312 43.351562 27.222656 43.25 C 27.125 43.152344 27.003906 43.105469 26.867188 43.105469 Z M 26.867188 43.105469 " fill-opacity="1" fill-rule="nonzero"/></g><path fill="#ffffff" d="M 26.867188 7.242188 C 26.726562 7.242188 26.609375 7.289062 26.507812 7.386719 C 26.410156 7.488281 26.363281 7.605469 26.363281 7.746094 L 26.363281 9.757812 C 26.363281 9.898438 26.410156 10.015625 26.507812 10.113281 C 26.609375 10.214844 26.726562 10.261719 26.867188 10.261719 C 27.003906 10.261719 27.125 10.214844 27.222656 10.113281 C 27.320312 10.015625 27.367188 9.898438 27.367188 9.757812 L 27.367188 7.746094 C 27.367188 7.605469 27.320312 7.488281 27.222656 7.386719 C 27.125 7.289062 27.003906 7.242188 26.867188 7.242188 Z M 26.867188 7.242188 " fill-opacity="1" fill-rule="nonzero"/><path fill="#ffffff" d="M 26.867188 12.277344 C 26.726562 12.277344 26.609375 12.324219 26.507812 12.421875 C 26.410156 12.523438 26.363281 12.640625 26.363281 12.78125 L 26.363281 14.792969 C 26.363281 14.933594 26.410156 15.050781 26.507812 15.148438 C 26.609375 15.25 26.726562 15.296875 26.867188 15.296875 C 27.003906 15.296875 27.125 15.25 27.222656 15.148438 C 27.320312 15.050781 27.367188 14.933594 27.367188 14.792969 L 27.367188 12.78125 C 27.367188 12.640625 27.320312 12.523438 27.222656 12.421875 C 27.125 12.324219 27.003906 12.277344 26.867188 12.277344 Z M 26.867188 12.277344 " fill-opacity="1" fill-rule="nonzero"/><path fill="#ffffff" d="M 26.867188 17.3125 C 26.726562 17.3125 26.609375 17.359375 26.507812 17.457031 C 26.410156 17.558594 26.363281 17.675781 26.363281 17.816406 L 26.363281 19.828125 C 26.363281 19.96875 26.410156 20.085938 26.507812 20.183594 C 26.609375 20.285156 26.726562 20.332031 26.867188 20.332031 C 27.003906 20.332031 27.125 20.285156 27.222656 20.183594 C 27.320312 20.085938 27.367188 19.96875 27.367188 19.828125 L 27.367188 17.816406 C 27.367188 17.675781 27.320312 17.558594 27.222656 17.457031 C 27.125 17.359375 27.003906 17.3125 26.867188 17.3125 Z M 26.867188 17.3125 " fill-opacity="1" fill-rule="nonzero"/><path fill="#ffffff" d="M 26.867188 22.347656 C 26.726562 22.347656 26.609375 22.394531 26.507812 22.492188 C 26.410156 22.59375 26.363281 22.710938 26.363281 22.851562 L 26.363281 24.863281 C 26.363281 25.003906 26.410156 25.121094 26.507812 25.21875 C 26.609375 25.320312 26.726562 25.367188 26.867188 25.367188 C 27.003906 25.367188 27.125 25.320312 27.222656 25.21875 C 27.320312 25.121094 27.367188 25.003906 27.367188 24.863281 L 27.367188 22.851562 C 27.367188 22.710938 27.320312 22.59375 27.222656 22.492188 C 27.125 22.394531 27.003906 22.347656 26.867188 22.347656 Z M 26.867188 22.347656 " fill-opacity="1" fill-rule="nonzero"/><g clip-path="url(#3898e99667)"><path fill="#ffa7b4" d="M 11.660156 22.632812 L 24.972656 22.632812 L 24.972656 37.089844 L 11.660156 37.089844 Z M 11.660156 22.632812 " fill-opacity="1" fill-rule="nonzero"/></g><g clip-path="url(#1260a915b5)"><path fill="#ffa7b4" d="M 28.726562 31.363281 L 38.515625 31.363281 L 38.515625 45.78125 L 28.726562 45.78125 Z M 28.726562 31.363281 " fill-opacity="1" fill-rule="nonzero"/></g><g clip-path="url(#3ef5611665)"><path fill="#ffa7b4" d="M 29.09375 12.355469 L 42.292969 12.355469 L 42.292969 26.585938 L 29.09375 26.585938 Z M 29.09375 12.355469 " fill-opacity="1" fill-rule="nonzero"/></g><path stroke-linecap="round" transform="matrix(1.104545, 0.000000000000001374, -0.000000000000001374, 1.104545, 13.662298, 27.162518)" fill="none" stroke-linejoin="miter" d="M 0.998897 0.998698 L 10.42373 0.998698 " stroke="#211f1e" stroke-width="2" stroke-opacity="1" stroke-miterlimit="4"/><path stroke-linecap="round" transform="matrix(1.104545, 0.000000000000002748, -0.000000000000002748, 1.104545, 27.759219, 18.668288)" fill="none" stroke-linejoin="miter" d="M 0.999562 1.000547 L 10.424395 1.000547 " stroke="#211f1e" stroke-width="2" stroke-opacity="1" stroke-miterlimit="4"/><path stroke-linecap="round" transform="matrix(1.104545, 0, 0, 1.104545, 27.759219, 37.241203)" fill="none" stroke-linejoin="miter" d="M 0.999562 1.001727 L 7.726029 1.001727 " stroke="#211f1e" stroke-width="2" stroke-opacity="1" stroke-miterlimit="4"/></svg>