<svg xmlns="http://www.w3.org/2000/svg" xmlns:xlink="http://www.w3.org/1999/xlink" width="1080" zoomAndPan="magnify" viewBox="0 0 810 809.999993" height="1080" preserveAspectRatio="xMidYMid meet" version="1.0"><defs><clipPath id="b4ad19bac4"><path d="M 313.996094 81 L 496.246094 81 L 496.246094 263.25 L 313.996094 263.25 Z M 313.996094 81 " clip-rule="nonzero"/></clipPath><clipPath id="7b897bead7"><path d="M 370.480469 508.863281 L 454.308594 508.863281 L 454.308594 592.691406 L 370.480469 592.691406 Z M 370.480469 508.863281 " clip-rule="nonzero"/></clipPath><clipPath id="81e3a9c18f"><path d="M 412.394531 508.863281 C 389.246094 508.863281 370.480469 527.628906 370.480469 550.777344 C 370.480469 573.925781 389.246094 592.691406 412.394531 592.691406 C 435.542969 592.691406 454.308594 573.925781 454.308594 550.777344 C 454.308594 527.628906 435.542969 508.863281 412.394531 508.863281 Z M 412.394531 508.863281 " clip-rule="nonzero"/></clipPath><clipPath id="84e19b8dce"><path d="M 542.546875 335 L 628 335 L 628 419.496094 L 542.546875 419.496094 Z M 542.546875 335 " clip-rule="nonzero"/></clipPath></defs><rect x="-81" width="972" fill="#ffffff" y="-80.999999" height="971.999992" fill-opacity="1"/><rect x="-81" width="972" fill="#ffffff" y="-80.999999" height="971.999992" fill-opacity="1"/><path fill="#015030" d="M 623.085938 377.21875 L 594.410156 377.21875 C 594.402344 374.898438 593.511719 372.582031 591.742188 370.8125 C 590.027344 369.101562 587.804688 368.234375 585.558594 368.167969 L 585.558594 339.699219 C 585.558594 337.859375 584.457031 336.199219 582.753906 335.492188 C 581.070312 334.785156 579.097656 335.160156 577.792969 336.457031 L 546.851562 367.078125 C 545.980469 367.941406 545.492188 369.109375 545.496094 370.332031 L 545.574219 404.089844 L 531.445312 418.21875 C 499.871094 389.851562 458.15625 372.550781 412.46875 372.550781 C 314.199219 372.550781 234.25 452.5 234.25 550.769531 C 234.25 649.042969 314.199219 728.988281 412.46875 728.988281 C 510.738281 728.988281 590.6875 649.042969 590.6875 550.769531 C 590.6875 504.738281 573.144531 462.730469 544.390625 431.070312 L 558.511719 416.949219 L 592.242188 416.878906 C 593.4375 416.875 594.589844 416.402344 595.4375 415.5625 L 626.292969 385.023438 C 627.605469 383.722656 628.007812 381.757812 627.300781 380.046875 C 626.601562 378.335938 624.933594 377.21875 623.085938 377.21875 Z M 558.761719 550.769531 C 558.761719 631.4375 493.136719 697.0625 412.46875 697.0625 C 331.800781 697.0625 266.175781 631.4375 266.175781 550.769531 C 266.175781 470.105469 331.804688 404.476562 412.46875 404.476562 C 449.355469 404.476562 483.074219 418.230469 508.832031 440.839844 L 481.371094 468.304688 C 462.699219 452.675781 438.667969 443.246094 412.46875 443.246094 C 353.179688 443.246094 304.945312 491.480469 304.945312 550.769531 C 304.945312 610.058594 353.179688 658.292969 412.46875 658.292969 C 471.757812 658.292969 519.992188 610.058594 519.992188 550.769531 C 519.992188 524.234375 510.308594 499.929688 494.320312 481.15625 L 521.78125 453.6875 C 544.761719 479.539062 558.761719 513.542969 558.761719 550.769531 Z M 412.46875 592.160156 C 435.289062 592.160156 453.859375 573.59375 453.859375 550.769531 C 453.859375 542.488281 451.390625 534.78125 447.179688 528.304688 L 474.886719 500.59375 C 485.960938 514.34375 492.628906 531.785156 492.628906 550.769531 C 492.628906 594.96875 456.671875 630.925781 412.46875 630.925781 C 368.265625 630.925781 332.308594 594.96875 332.308594 550.769531 C 332.308594 506.570312 368.265625 470.613281 412.46875 470.613281 C 431.117188 470.613281 448.257812 477.070312 461.894531 487.789062 L 434.125 515.566406 C 427.816406 511.667969 420.414062 509.378906 412.46875 509.378906 C 389.648438 509.378906 371.078125 527.949219 371.078125 550.769531 C 371.078125 573.59375 389.648438 592.160156 412.46875 592.160156 Z M 412.46875 592.160156 " fill-opacity="1" fill-rule="nonzero"/><g clip-path="url(#b4ad19bac4)"><path fill="#000000" d="M 405.121094 81 C 355 81 313.996094 122.007812 313.996094 172.125 C 313.996094 222.242188 355 263.25 405.121094 263.25 C 455.238281 263.25 496.246094 222.242188 496.246094 172.125 C 496.246094 122.007812 455.238281 81 405.121094 81 Z M 416.964844 214.042969 L 400.5625 214.042969 L 400.5625 149.34375 L 380.515625 155.722656 L 380.515625 142.054688 L 415.144531 129.296875 L 416.964844 129.296875 Z M 416.964844 214.042969 " fill-opacity="1" fill-rule="nonzero"/></g><g clip-path="url(#7b897bead7)"><g clip-path="url(#81e3a9c18f)"><path fill="#015030" d="M 370.480469 508.863281 L 454.308594 508.863281 L 454.308594 592.691406 L 370.480469 592.691406 Z M 370.480469 508.863281 " fill-opacity="1" fill-rule="nonzero"/></g></g><path stroke-linecap="round" transform="matrix(0.53033, -0.53033, 0.53033, 0.53033, 399.419191, 550.238848)" fill="none" stroke-linejoin="miter" d="M 12.999835 12.998766 L 332.601067 13.002449 " stroke="#00bf63" stroke-width="26" stroke-opacity="1" stroke-miterlimit="4"/><g clip-path="url(#84e19b8dce)"><path fill="#00bf63" d="M 623.085938 377.21875 L 594.410156 377.21875 C 594.402344 374.898438 593.511719 372.582031 591.742188 370.8125 C 590.027344 369.101562 587.804688 368.234375 585.558594 368.167969 L 585.558594 339.699219 C 585.558594 337.859375 584.457031 336.199219 582.753906 335.492188 C 581.070312 334.785156 579.097656 335.160156 577.792969 336.457031 L 546.851562 367.078125 C 545.980469 367.941406 545.492188 369.109375 545.496094 370.332031 L 545.574219 404.089844 L 531.445312 418.21875 C 499.871094 389.851562 458.15625 372.550781 412.46875 372.550781 C 314.199219 372.550781 234.25 452.5 234.25 550.769531 C 234.25 649.042969 314.199219 728.988281 412.46875 728.988281 C 510.738281 728.988281 590.6875 649.042969 590.6875 550.769531 C 590.6875 504.738281 573.144531 462.730469 544.390625 431.070312 L 558.511719 416.949219 L 592.242188 416.878906 C 593.4375 416.875 594.589844 416.402344 595.4375 415.5625 L 626.292969 385.023438 C 627.605469 383.722656 628.007812 381.757812 627.300781 380.046875 C 626.601562 378.335938 624.933594 377.21875 623.085938 377.21875 Z M 558.761719 550.769531 C 558.761719 631.4375 493.136719 697.0625 412.46875 697.0625 C 331.800781 697.0625 266.175781 631.4375 266.175781 550.769531 C 266.175781 470.105469 331.804688 404.476562 412.46875 404.476562 C 449.355469 404.476562 483.074219 418.230469 508.832031 440.839844 L 481.371094 468.304688 C 462.699219 452.675781 438.667969 443.246094 412.46875 443.246094 C 353.179688 443.246094 304.945312 491.480469 304.945312 550.769531 C 304.945312 610.058594 353.179688 658.292969 412.46875 658.292969 C 471.757812 658.292969 519.992188 610.058594 519.992188 550.769531 C 519.992188 524.234375 510.308594 499.929688 494.320312 481.15625 L 521.78125 453.6875 C 544.761719 479.539062 558.761719 513.542969 558.761719 550.769531 Z M 412.46875 592.160156 C 435.289062 592.160156 453.859375 573.59375 453.859375 550.769531 C 453.859375 542.488281 451.390625 534.78125 447.179688 528.304688 L 474.886719 500.59375 C 485.960938 514.34375 492.628906 531.785156 492.628906 550.769531 C 492.628906 594.96875 456.671875 630.925781 412.46875 630.925781 C 368.265625 630.925781 332.308594 594.96875 332.308594 550.769531 C 332.308594 506.570312 368.265625 470.613281 412.46875 470.613281 C 431.117188 470.613281 448.257812 477.070312 461.894531 487.789062 L 434.125 515.566406 C 427.816406 511.667969 420.414062 509.378906 412.46875 509.378906 C 389.648438 509.378906 371.078125 527.949219 371.078125 550.769531 C 371.078125 573.59375 389.648438 592.160156 412.46875 592.160156 Z M 412.46875 592.160156 " fill-opacity="1" fill-rule="nonzero"/></g></svg>