<svg xmlns="http://www.w3.org/2000/svg" xmlns:xlink="http://www.w3.org/1999/xlink" width="1080" zoomAndPan="magnify" viewBox="0 0 810 809.999993" height="1080" preserveAspectRatio="xMidYMid meet" version="1.0"><defs><clipPath id="f2638a417e"><path d="M 264.109375 381 L 473 381 L 473 681 L 264.109375 681 Z M 264.109375 381 " clip-rule="nonzero"/></clipPath><clipPath id="2a075267b5"><path d="M 311.847656 81 L 491.847656 81 L 491.847656 261 L 311.847656 261 Z M 311.847656 81 " clip-rule="nonzero"/></clipPath></defs><path fill="#191d1c" d="M 543.710938 360.75 L 538.816406 353.433594 L 533.378906 360.691406 Z M 543.710938 360.75 " fill-opacity="1" fill-rule="nonzero"/><path fill="#191d1c" d="M 367.660156 699.222656 L 373.207031 707.519531 L 378.648438 700.261719 Z M 367.660156 699.222656 " fill-opacity="1" fill-rule="nonzero"/><path fill="#191d1c" d="M 469.625 339.933594 L 539.628906 357.601562 C 540.042969 357.703125 540.445312 357.847656 540.832031 358.03125 C 541.21875 358.214844 541.582031 358.4375 541.925781 358.691406 C 542.269531 358.945312 542.585938 359.234375 542.871094 359.550781 C 543.15625 359.867188 543.410156 360.210938 543.628906 360.578125 C 543.851562 360.945312 544.03125 361.332031 544.175781 361.734375 C 544.320312 362.136719 544.421875 362.550781 544.484375 362.976562 C 544.546875 363.398438 544.566406 363.824219 544.542969 364.25 C 544.523438 364.679688 544.457031 365.101562 544.355469 365.515625 L 454.308594 722.34375 C 454.203125 722.757812 454.058594 723.160156 453.875 723.546875 C 453.691406 723.933594 453.472656 724.296875 453.214844 724.640625 C 452.960938 724.984375 452.675781 725.300781 452.355469 725.585938 C 452.039062 725.871094 451.695312 726.125 451.328125 726.34375 C 450.960938 726.566406 450.574219 726.746094 450.171875 726.890625 C 449.769531 727.035156 449.355469 727.136719 448.933594 727.199219 C 448.507812 727.261719 448.082031 727.28125 447.65625 727.257812 C 447.226562 727.238281 446.808594 727.171875 446.390625 727.070312 L 376.390625 709.402344 C 375.976562 709.300781 375.574219 709.15625 375.1875 708.972656 C 374.800781 708.789062 374.4375 708.566406 374.09375 708.3125 C 373.75 708.054688 373.433594 707.769531 373.148438 707.453125 C 372.859375 707.132812 372.605469 706.792969 372.386719 706.425781 C 372.167969 706.058594 371.988281 705.671875 371.84375 705.269531 C 371.699219 704.863281 371.597656 704.453125 371.535156 704.027344 C 371.472656 703.605469 371.453125 703.179688 371.472656 702.75 C 371.496094 702.324219 371.558594 701.902344 371.664062 701.488281 L 461.710938 344.660156 C 461.816406 344.246094 461.957031 343.84375 462.140625 343.457031 C 462.328125 343.070312 462.546875 342.707031 462.800781 342.363281 C 463.058594 342.019531 463.34375 341.703125 463.660156 341.417969 C 463.980469 341.128906 464.320312 340.878906 464.6875 340.65625 C 465.058594 340.4375 465.441406 340.257812 465.84375 340.113281 C 466.25 339.96875 466.664062 339.867188 467.085938 339.804688 C 467.507812 339.742188 467.933594 339.722656 468.363281 339.746094 C 468.789062 339.765625 469.210938 339.828125 469.625 339.933594 Z M 469.625 339.933594 " fill-opacity="1" fill-rule="nonzero"/><path fill="#00bf63" d="M 465.28125 333.480469 L 535.285156 351.144531 C 535.699219 351.25 536.101562 351.394531 536.488281 351.578125 C 536.875 351.761719 537.238281 351.980469 537.582031 352.238281 C 537.925781 352.492188 538.238281 352.777344 538.527344 353.097656 C 538.8125 353.414062 539.066406 353.757812 539.285156 354.125 C 539.503906 354.492188 539.6875 354.878906 539.832031 355.28125 C 539.972656 355.683594 540.078125 356.097656 540.140625 356.519531 C 540.203125 356.945312 540.222656 357.371094 540.199219 357.796875 C 540.179688 358.226562 540.113281 358.644531 540.011719 359.0625 L 449.964844 715.886719 C 449.859375 716.304688 449.714844 716.703125 449.53125 717.089844 C 449.347656 717.476562 449.128906 717.84375 448.871094 718.1875 C 448.617188 718.53125 448.328125 718.84375 448.011719 719.132812 C 447.695312 719.417969 447.351562 719.671875 446.984375 719.890625 C 446.617188 720.109375 446.230469 720.292969 445.828125 720.433594 C 445.425781 720.578125 445.011719 720.683594 444.589844 720.742188 C 444.164062 720.804688 443.738281 720.824219 443.3125 720.804688 C 442.882812 720.78125 442.460938 720.71875 442.046875 720.613281 L 372.046875 702.949219 C 371.628906 702.84375 371.230469 702.699219 370.84375 702.515625 C 370.457031 702.332031 370.089844 702.113281 369.746094 701.859375 C 369.40625 701.601562 369.089844 701.316406 368.800781 700.996094 C 368.515625 700.679688 368.261719 700.335938 368.042969 699.96875 C 367.824219 699.601562 367.640625 699.21875 367.5 698.8125 C 367.355469 698.410156 367.253906 697.996094 367.191406 697.574219 C 367.128906 697.148438 367.109375 696.722656 367.128906 696.296875 C 367.152344 695.871094 367.214844 695.449219 367.320312 695.035156 L 457.367188 338.207031 C 457.46875 337.789062 457.613281 337.390625 457.796875 337.003906 C 457.980469 336.617188 458.203125 336.25 458.457031 335.910156 C 458.710938 335.566406 459 335.25 459.316406 334.964844 C 459.632812 334.675781 459.976562 334.421875 460.34375 334.203125 C 460.710938 333.984375 461.097656 333.800781 461.5 333.660156 C 461.90625 333.515625 462.316406 333.414062 462.742188 333.351562 C 463.164062 333.289062 463.589844 333.269531 464.019531 333.289062 C 464.445312 333.3125 464.867188 333.375 465.28125 333.480469 Z M 465.28125 333.480469 " fill-opacity="1" fill-rule="nonzero"/><path fill="#015030" d="M 464.0625 374.515625 L 502.300781 384.164062 C 502.625 384.246094 502.921875 384.386719 503.191406 384.585938 C 503.460938 384.789062 503.679688 385.03125 503.851562 385.320312 C 504.023438 385.605469 504.132812 385.917969 504.183594 386.246094 C 504.230469 386.578125 504.214844 386.90625 504.132812 387.230469 C 504.050781 387.558594 503.910156 387.855469 503.710938 388.121094 C 503.511719 388.390625 503.265625 388.609375 502.980469 388.78125 C 502.691406 388.953125 502.382812 389.066406 502.050781 389.113281 C 501.71875 389.160156 501.390625 389.144531 501.066406 389.0625 L 462.824219 379.414062 C 462.5 379.332031 462.203125 379.191406 461.933594 378.992188 C 461.667969 378.789062 461.445312 378.546875 461.273438 378.257812 C 461.101562 377.972656 460.992188 377.660156 460.945312 377.332031 C 460.894531 377 460.914062 376.671875 460.996094 376.347656 C 461.078125 376.019531 461.21875 375.722656 461.417969 375.457031 C 461.617188 375.1875 461.859375 374.96875 462.148438 374.796875 C 462.4375 374.625 462.746094 374.511719 463.078125 374.464844 C 463.410156 374.417969 463.738281 374.433594 464.0625 374.515625 Z M 464.0625 374.515625 " fill-opacity="1" fill-rule="nonzero"/><path fill="#015030" d="M 450.257812 429.214844 L 488.5 438.863281 C 488.824219 438.945312 489.121094 439.085938 489.390625 439.285156 C 489.65625 439.488281 489.878906 439.730469 490.050781 440.019531 C 490.222656 440.304688 490.332031 440.617188 490.378906 440.945312 C 490.429688 441.277344 490.410156 441.605469 490.328125 441.929688 C 490.246094 442.257812 490.105469 442.554688 489.90625 442.820312 C 489.707031 443.089844 489.464844 443.308594 489.175781 443.480469 C 488.886719 443.652344 488.578125 443.765625 488.246094 443.8125 C 487.914062 443.859375 487.585938 443.84375 487.261719 443.761719 L 449.023438 434.113281 C 448.699219 434.03125 448.402344 433.890625 448.132812 433.691406 C 447.863281 433.488281 447.644531 433.246094 447.472656 432.957031 C 447.300781 432.671875 447.191406 432.359375 447.140625 432.03125 C 447.09375 431.699219 447.109375 431.371094 447.191406 431.046875 C 447.273438 430.71875 447.414062 430.421875 447.613281 430.15625 C 447.8125 429.886719 448.058594 429.667969 448.34375 429.496094 C 448.632812 429.324219 448.941406 429.210938 449.273438 429.164062 C 449.605469 429.117188 449.933594 429.132812 450.257812 429.214844 Z M 450.257812 429.214844 " fill-opacity="1" fill-rule="nonzero"/><path fill="#015030" d="M 436.457031 483.914062 L 474.695312 493.5625 C 475.019531 493.644531 475.316406 493.785156 475.585938 493.988281 C 475.855469 494.1875 476.074219 494.429688 476.246094 494.71875 C 476.417969 495.007812 476.527344 495.316406 476.578125 495.648438 C 476.625 495.976562 476.609375 496.304688 476.527344 496.632812 C 476.445312 496.957031 476.304688 497.253906 476.105469 497.523438 C 475.902344 497.789062 475.660156 498.011719 475.371094 498.183594 C 475.085938 498.355469 474.773438 498.464844 474.445312 498.511719 C 474.113281 498.5625 473.785156 498.542969 473.460938 498.460938 L 435.21875 488.8125 C 434.894531 488.730469 434.597656 488.589844 434.328125 488.390625 C 434.058594 488.191406 433.839844 487.945312 433.667969 487.65625 C 433.496094 487.371094 433.386719 487.0625 433.339844 486.730469 C 433.289062 486.398438 433.304688 486.070312 433.386719 485.746094 C 433.46875 485.421875 433.609375 485.125 433.8125 484.855469 C 434.011719 484.585938 434.253906 484.367188 434.542969 484.195312 C 434.832031 484.023438 435.140625 483.914062 435.472656 483.863281 C 435.800781 483.816406 436.132812 483.832031 436.457031 483.914062 Z M 436.457031 483.914062 " fill-opacity="1" fill-rule="nonzero"/><path fill="#015030" d="M 459.460938 392.75 L 482.292969 398.511719 C 482.617188 398.59375 482.914062 398.734375 483.183594 398.933594 C 483.453125 399.132812 483.671875 399.378906 483.84375 399.664062 C 484.015625 399.953125 484.125 400.261719 484.175781 400.59375 C 484.222656 400.925781 484.207031 401.253906 484.125 401.578125 C 484.042969 401.902344 483.902344 402.199219 483.703125 402.46875 C 483.503906 402.738281 483.257812 402.957031 482.972656 403.128906 C 482.683594 403.300781 482.375 403.410156 482.042969 403.457031 C 481.710938 403.507812 481.382812 403.492188 481.058594 403.410156 L 458.226562 397.648438 C 457.898438 397.566406 457.601562 397.421875 457.335938 397.222656 C 457.066406 397.023438 456.84375 396.78125 456.671875 396.492188 C 456.503906 396.203125 456.390625 395.894531 456.34375 395.5625 C 456.292969 395.230469 456.3125 394.902344 456.394531 394.578125 C 456.476562 394.253906 456.617188 393.957031 456.816406 393.6875 C 457.015625 393.421875 457.261719 393.199219 457.546875 393.027344 C 457.835938 392.855469 458.144531 392.746094 458.476562 392.699219 C 458.808594 392.648438 459.136719 392.667969 459.460938 392.75 Z M 459.460938 392.75 " fill-opacity="1" fill-rule="nonzero"/><path fill="#015030" d="M 454.859375 410.980469 L 477.691406 416.742188 C 478.015625 416.824219 478.3125 416.964844 478.582031 417.167969 C 478.851562 417.367188 479.070312 417.609375 479.242188 417.898438 C 479.414062 418.1875 479.523438 418.496094 479.574219 418.828125 C 479.621094 419.15625 479.605469 419.484375 479.523438 419.8125 C 479.441406 420.136719 479.300781 420.433594 479.101562 420.703125 C 478.902344 420.96875 478.65625 421.191406 478.371094 421.363281 C 478.082031 421.535156 477.773438 421.644531 477.441406 421.691406 C 477.109375 421.742188 476.78125 421.722656 476.457031 421.640625 L 453.625 415.878906 C 453.296875 415.796875 453 415.65625 452.734375 415.457031 C 452.464844 415.257812 452.242188 415.011719 452.070312 414.726562 C 451.898438 414.4375 451.789062 414.128906 451.742188 413.796875 C 451.691406 413.464844 451.710938 413.136719 451.792969 412.8125 C 451.875 412.488281 452.015625 412.191406 452.214844 411.921875 C 452.414062 411.652344 452.660156 411.433594 452.945312 411.261719 C 453.234375 411.089844 453.542969 410.980469 453.875 410.929688 C 454.207031 410.882812 454.535156 410.898438 454.859375 410.980469 Z M 454.859375 410.980469 " fill-opacity="1" fill-rule="nonzero"/><path fill="#015030" d="M 445.65625 447.449219 L 468.492188 453.210938 C 468.816406 453.292969 469.113281 453.433594 469.382812 453.632812 C 469.648438 453.832031 469.871094 454.078125 470.042969 454.363281 C 470.214844 454.652344 470.324219 454.960938 470.371094 455.292969 C 470.421875 455.625 470.402344 455.953125 470.320312 456.277344 C 470.238281 456.601562 470.097656 456.898438 469.898438 457.167969 C 469.699219 457.4375 469.457031 457.65625 469.167969 457.828125 C 468.878906 458 468.570312 458.109375 468.238281 458.160156 C 467.90625 458.207031 467.578125 458.191406 467.253906 458.109375 L 444.421875 452.347656 C 444.097656 452.265625 443.800781 452.125 443.53125 451.921875 C 443.261719 451.722656 443.042969 451.480469 442.871094 451.191406 C 442.699219 450.90625 442.589844 450.59375 442.539062 450.261719 C 442.492188 449.933594 442.507812 449.605469 442.589844 449.277344 C 442.671875 448.953125 442.8125 448.65625 443.011719 448.390625 C 443.214844 448.121094 443.457031 447.898438 443.746094 447.726562 C 444.03125 447.554688 444.339844 447.445312 444.671875 447.398438 C 445.003906 447.347656 445.332031 447.367188 445.65625 447.449219 Z M 445.65625 447.449219 " fill-opacity="1" fill-rule="nonzero"/><path fill="#015030" d="M 441.054688 465.679688 L 463.890625 471.441406 C 464.214844 471.523438 464.511719 471.664062 464.78125 471.867188 C 465.046875 472.066406 465.269531 472.308594 465.441406 472.597656 C 465.613281 472.882812 465.722656 473.195312 465.769531 473.527344 C 465.820312 473.855469 465.800781 474.183594 465.722656 474.511719 C 465.640625 474.835938 465.496094 475.132812 465.296875 475.398438 C 465.097656 475.667969 464.855469 475.890625 464.566406 476.0625 C 464.277344 476.234375 463.96875 476.34375 463.636719 476.390625 C 463.304688 476.441406 462.976562 476.421875 462.652344 476.339844 L 439.820312 470.578125 C 439.496094 470.496094 439.199219 470.355469 438.929688 470.15625 C 438.660156 469.957031 438.441406 469.710938 438.269531 469.425781 C 438.097656 469.136719 437.988281 468.828125 437.9375 468.496094 C 437.890625 468.164062 437.90625 467.835938 437.988281 467.511719 C 438.070312 467.1875 438.210938 466.890625 438.410156 466.621094 C 438.613281 466.351562 438.855469 466.132812 439.144531 465.960938 C 439.429688 465.789062 439.742188 465.679688 440.070312 465.628906 C 440.402344 465.582031 440.730469 465.597656 441.054688 465.679688 Z M 441.054688 465.679688 " fill-opacity="1" fill-rule="nonzero"/><path fill="#015030" d="M 422.652344 538.613281 L 460.890625 548.265625 C 461.214844 548.347656 461.511719 548.488281 461.78125 548.6875 C 462.050781 548.886719 462.269531 549.128906 462.441406 549.417969 C 462.613281 549.707031 462.726562 550.015625 462.773438 550.347656 C 462.820312 550.679688 462.804688 551.007812 462.722656 551.332031 C 462.640625 551.65625 462.5 551.953125 462.300781 552.222656 C 462.101562 552.488281 461.855469 552.710938 461.570312 552.882812 C 461.28125 553.054688 460.972656 553.164062 460.640625 553.210938 C 460.308594 553.261719 459.980469 553.246094 459.65625 553.164062 L 421.417969 543.511719 C 421.089844 543.429688 420.792969 543.289062 420.527344 543.089844 C 420.257812 542.890625 420.035156 542.644531 419.863281 542.359375 C 419.695312 542.070312 419.582031 541.761719 419.535156 541.429688 C 419.484375 541.097656 419.503906 540.769531 419.585938 540.445312 C 419.667969 540.121094 419.808594 539.824219 420.007812 539.554688 C 420.207031 539.285156 420.453125 539.066406 420.738281 538.894531 C 421.027344 538.722656 421.335938 538.613281 421.667969 538.5625 C 422 538.515625 422.328125 538.53125 422.652344 538.613281 Z M 422.652344 538.613281 " fill-opacity="1" fill-rule="nonzero"/><path fill="#015030" d="M 431.855469 502.148438 L 454.6875 507.910156 C 455.011719 507.992188 455.308594 508.132812 455.578125 508.332031 C 455.847656 508.53125 456.066406 508.777344 456.238281 509.0625 C 456.410156 509.351562 456.519531 509.660156 456.570312 509.992188 C 456.617188 510.324219 456.601562 510.652344 456.519531 510.976562 C 456.4375 511.300781 456.296875 511.597656 456.097656 511.867188 C 455.894531 512.136719 455.652344 512.355469 455.363281 512.527344 C 455.078125 512.699219 454.765625 512.808594 454.4375 512.859375 C 454.105469 512.90625 453.777344 512.890625 453.453125 512.808594 L 430.617188 507.046875 C 430.292969 506.964844 429.996094 506.824219 429.726562 506.621094 C 429.460938 506.421875 429.238281 506.179688 429.066406 505.890625 C 428.894531 505.605469 428.785156 505.292969 428.738281 504.960938 C 428.6875 504.632812 428.703125 504.304688 428.785156 503.976562 C 428.867188 503.652344 429.011719 503.355469 429.210938 503.089844 C 429.410156 502.820312 429.652344 502.597656 429.941406 502.425781 C 430.230469 502.253906 430.539062 502.144531 430.871094 502.097656 C 431.203125 502.046875 431.53125 502.066406 431.855469 502.148438 Z M 431.855469 502.148438 " fill-opacity="1" fill-rule="nonzero"/><path fill="#015030" d="M 427.253906 520.378906 L 450.085938 526.140625 C 450.410156 526.222656 450.707031 526.367188 450.976562 526.566406 C 451.246094 526.765625 451.464844 527.007812 451.636719 527.296875 C 451.808594 527.585938 451.917969 527.894531 451.96875 528.226562 C 452.015625 528.558594 452 528.886719 451.917969 529.210938 C 451.835938 529.535156 451.695312 529.832031 451.496094 530.101562 C 451.292969 530.367188 451.050781 530.589844 450.761719 530.761719 C 450.476562 530.933594 450.164062 531.042969 449.835938 531.089844 C 449.503906 531.140625 449.175781 531.121094 448.851562 531.039062 L 426.015625 525.277344 C 425.691406 525.195312 425.394531 525.054688 425.125 524.855469 C 424.859375 524.65625 424.636719 524.414062 424.464844 524.125 C 424.292969 523.835938 424.183594 523.527344 424.136719 523.195312 C 424.085938 522.863281 424.101562 522.535156 424.183594 522.210938 C 424.265625 521.886719 424.410156 521.589844 424.609375 521.320312 C 424.808594 521.054688 425.050781 520.832031 425.339844 520.660156 C 425.628906 520.488281 425.9375 520.378906 426.269531 520.332031 C 426.601562 520.28125 426.929688 520.296875 427.253906 520.378906 Z M 427.253906 520.378906 " fill-opacity="1" fill-rule="nonzero"/><path fill="#015030" d="M 407.628906 598.140625 L 445.871094 607.792969 C 446.195312 607.875 446.492188 608.015625 446.761719 608.214844 C 447.027344 608.414062 447.25 608.65625 447.421875 608.945312 C 447.59375 609.234375 447.703125 609.542969 447.75 609.875 C 447.800781 610.207031 447.785156 610.535156 447.703125 610.859375 C 447.621094 611.183594 447.480469 611.480469 447.277344 611.75 C 447.078125 612.015625 446.835938 612.238281 446.546875 612.410156 C 446.257812 612.582031 445.949219 612.691406 445.617188 612.738281 C 445.285156 612.789062 444.957031 612.773438 444.632812 612.691406 L 406.394531 603.039062 C 406.070312 602.957031 405.773438 602.816406 405.503906 602.617188 C 405.234375 602.417969 405.015625 602.171875 404.84375 601.886719 C 404.671875 601.597656 404.5625 601.289062 404.511719 600.957031 C 404.464844 600.625 404.480469 600.296875 404.5625 599.972656 C 404.644531 599.648438 404.785156 599.351562 404.984375 599.082031 C 405.1875 598.8125 405.429688 598.59375 405.71875 598.421875 C 406.003906 598.25 406.316406 598.140625 406.644531 598.089844 C 406.976562 598.042969 407.304688 598.058594 407.628906 598.140625 Z M 407.628906 598.140625 " fill-opacity="1" fill-rule="nonzero"/><path fill="#015030" d="M 416.832031 561.675781 L 439.664062 567.4375 C 439.992188 567.519531 440.289062 567.660156 440.554688 567.859375 C 440.824219 568.058594 441.042969 568.304688 441.214844 568.589844 C 441.386719 568.878906 441.5 569.1875 441.546875 569.519531 C 441.597656 569.851562 441.578125 570.179688 441.496094 570.503906 C 441.414062 570.828125 441.273438 571.125 441.074219 571.394531 C 440.875 571.664062 440.628906 571.882812 440.34375 572.054688 C 440.054688 572.226562 439.746094 572.335938 439.414062 572.386719 C 439.082031 572.433594 438.753906 572.417969 438.429688 572.335938 L 415.597656 566.574219 C 415.273438 566.492188 414.976562 566.351562 414.707031 566.148438 C 414.4375 565.949219 414.21875 565.707031 414.046875 565.417969 C 413.875 565.132812 413.761719 564.820312 413.714844 564.488281 C 413.667969 564.160156 413.683594 563.832031 413.765625 563.507812 C 413.847656 563.179688 413.988281 562.882812 414.1875 562.617188 C 414.386719 562.347656 414.632812 562.125 414.917969 561.957031 C 415.207031 561.785156 415.515625 561.671875 415.847656 561.625 C 416.179688 561.578125 416.507812 561.59375 416.832031 561.675781 Z M 416.832031 561.675781 " fill-opacity="1" fill-rule="nonzero"/><path fill="#015030" d="M 412.230469 579.910156 L 435.066406 585.671875 C 435.390625 585.753906 435.6875 585.894531 435.957031 586.09375 C 436.222656 586.292969 436.445312 586.539062 436.617188 586.824219 C 436.789062 587.113281 436.898438 587.421875 436.945312 587.753906 C 436.996094 588.085938 436.976562 588.414062 436.894531 588.738281 C 436.8125 589.0625 436.671875 589.359375 436.472656 589.628906 C 436.273438 589.898438 436.03125 590.117188 435.742188 590.289062 C 435.453125 590.460938 435.144531 590.570312 434.8125 590.617188 C 434.480469 590.667969 434.152344 590.652344 433.828125 590.570312 L 410.996094 584.808594 C 410.671875 584.726562 410.375 584.582031 410.105469 584.382812 C 409.835938 584.183594 409.617188 583.941406 409.445312 583.652344 C 409.273438 583.363281 409.164062 583.054688 409.113281 582.722656 C 409.066406 582.390625 409.082031 582.0625 409.164062 581.738281 C 409.246094 581.414062 409.386719 581.117188 409.585938 580.847656 C 409.789062 580.582031 410.03125 580.359375 410.320312 580.1875 C 410.605469 580.015625 410.914062 579.90625 411.246094 579.859375 C 411.578125 579.808594 411.90625 579.828125 412.230469 579.910156 Z M 412.230469 579.910156 " fill-opacity="1" fill-rule="nonzero"/><path fill="#015030" d="M 393.519531 654.054688 L 431.761719 663.703125 C 432.085938 663.785156 432.382812 663.925781 432.652344 664.125 C 432.921875 664.328125 433.140625 664.570312 433.3125 664.859375 C 433.484375 665.144531 433.59375 665.457031 433.640625 665.785156 C 433.691406 666.117188 433.675781 666.445312 433.59375 666.769531 C 433.511719 667.097656 433.371094 667.390625 433.167969 667.660156 C 432.96875 667.929688 432.726562 668.148438 432.4375 668.320312 C 432.148438 668.492188 431.839844 668.605469 431.507812 668.652344 C 431.179688 668.699219 430.851562 668.683594 430.523438 668.601562 L 392.285156 658.953125 C 391.960938 658.871094 391.664062 658.730469 391.394531 658.527344 C 391.125 658.328125 390.90625 658.085938 390.734375 657.796875 C 390.5625 657.511719 390.453125 657.199219 390.402344 656.871094 C 390.355469 656.539062 390.371094 656.210938 390.453125 655.886719 C 390.535156 655.558594 390.675781 655.261719 390.875 654.996094 C 391.078125 654.726562 391.320312 654.503906 391.609375 654.335938 C 391.894531 654.164062 392.207031 654.050781 392.535156 654.003906 C 392.867188 653.957031 393.195312 653.972656 393.519531 654.054688 Z M 393.519531 654.054688 " fill-opacity="1" fill-rule="nonzero"/><path fill="#015030" d="M 402.722656 617.585938 L 425.554688 623.347656 C 425.882812 623.429688 426.179688 623.570312 426.445312 623.773438 C 426.714844 623.972656 426.9375 624.214844 427.109375 624.503906 C 427.28125 624.792969 427.390625 625.101562 427.4375 625.433594 C 427.488281 625.761719 427.46875 626.089844 427.386719 626.417969 C 427.304688 626.742188 427.164062 627.039062 426.964844 627.308594 C 426.765625 627.574219 426.519531 627.796875 426.234375 627.96875 C 425.945312 628.140625 425.636719 628.25 425.304688 628.296875 C 424.972656 628.347656 424.644531 628.328125 424.320312 628.246094 L 401.488281 622.484375 C 401.164062 622.402344 400.867188 622.261719 400.597656 622.0625 C 400.328125 621.863281 400.109375 621.617188 399.9375 621.332031 C 399.765625 621.042969 399.65625 620.734375 399.605469 620.402344 C 399.558594 620.070312 399.574219 619.742188 399.65625 619.417969 C 399.738281 619.09375 399.878906 618.796875 400.078125 618.527344 C 400.277344 618.257812 400.523438 618.039062 400.808594 617.867188 C 401.097656 617.695312 401.40625 617.585938 401.738281 617.535156 C 402.070312 617.488281 402.398438 617.503906 402.722656 617.585938 Z M 402.722656 617.585938 " fill-opacity="1" fill-rule="nonzero"/><path fill="#015030" d="M 398.121094 635.820312 L 420.957031 641.582031 C 421.28125 641.664062 421.578125 641.804688 421.847656 642.003906 C 422.113281 642.207031 422.335938 642.449219 422.507812 642.738281 C 422.679688 643.023438 422.789062 643.335938 422.835938 643.664062 C 422.886719 643.996094 422.871094 644.324219 422.789062 644.648438 C 422.707031 644.976562 422.5625 645.273438 422.363281 645.539062 C 422.164062 645.808594 421.921875 646.027344 421.632812 646.199219 C 421.34375 646.371094 421.035156 646.484375 420.703125 646.53125 C 420.371094 646.578125 420.042969 646.5625 419.71875 646.480469 L 396.886719 640.71875 C 396.5625 640.636719 396.265625 640.496094 395.996094 640.296875 C 395.726562 640.097656 395.507812 639.851562 395.335938 639.566406 C 395.164062 639.277344 395.054688 638.96875 395.003906 638.636719 C 394.957031 638.304688 394.972656 637.976562 395.054688 637.652344 C 395.136719 637.328125 395.277344 637.03125 395.476562 636.761719 C 395.679688 636.492188 395.921875 636.273438 396.210938 636.101562 C 396.496094 635.929688 396.808594 635.820312 397.136719 635.769531 C 397.46875 635.722656 397.796875 635.738281 398.121094 635.820312 Z M 398.121094 635.820312 " fill-opacity="1" fill-rule="nonzero"/><path fill="#191d1c" d="M 474.65625 678.386719 L 282.378906 396.039062 C 282.109375 395.640625 281.785156 395.296875 281.40625 395.007812 C 281.027344 394.714844 280.609375 394.488281 280.160156 394.332031 C 279.707031 394.171875 279.242188 394.085938 278.765625 394.078125 C 278.285156 394.066406 277.820312 394.132812 277.359375 394.273438 C 276.902344 394.410156 276.480469 394.621094 276.085938 394.894531 C 275.695312 395.171875 275.359375 395.5 275.074219 395.882812 C 274.785156 396.269531 274.566406 396.6875 274.417969 397.140625 C 274.265625 397.59375 274.1875 398.0625 274.183594 398.539062 L 272.757812 676.929688 L 266.851562 679.390625 C 266.941406 679.339844 271.058594 683.972656 277.207031 684.402344 L 470.921875 685.394531 C 471.757812 685.398438 472.53125 685.1875 473.246094 684.761719 C 473.960938 684.335938 474.515625 683.753906 474.90625 683.015625 C 475.296875 682.28125 475.472656 681.5 475.425781 680.667969 C 475.378906 679.835938 475.125 679.074219 474.65625 678.386719 Z M 399.082031 645.816406 L 316.085938 645.390625 C 315.789062 645.390625 315.5 645.359375 315.210938 645.300781 C 314.921875 645.242188 314.640625 645.15625 314.371094 645.039062 C 314.097656 644.925781 313.839844 644.789062 313.597656 644.621094 C 313.351562 644.457031 313.128906 644.269531 312.917969 644.0625 C 312.710938 643.851562 312.527344 643.625 312.367188 643.378906 C 312.203125 643.132812 312.066406 642.875 311.953125 642.601562 C 311.84375 642.328125 311.761719 642.046875 311.703125 641.757812 C 311.648438 641.46875 311.621094 641.175781 311.621094 640.882812 L 312.242188 520.335938 C 312.242188 519.859375 312.320312 519.390625 312.472656 518.9375 C 312.621094 518.484375 312.839844 518.066406 313.128906 517.679688 C 313.414062 517.296875 313.75 516.96875 314.144531 516.691406 C 314.535156 516.417969 314.957031 516.210938 315.414062 516.070312 C 315.875 515.929688 316.339844 515.863281 316.820312 515.875 C 317.296875 515.886719 317.761719 515.96875 318.214844 516.128906 C 318.667969 516.285156 319.082031 516.511719 319.460938 516.804688 C 319.839844 517.09375 320.164062 517.4375 320.433594 517.835938 L 402.8125 638.804688 C 403.28125 639.496094 403.539062 640.253906 403.585938 641.085938 C 403.628906 641.917969 403.457031 642.703125 403.066406 643.4375 C 402.675781 644.171875 402.121094 644.753906 401.40625 645.183594 C 400.691406 645.609375 399.917969 645.820312 399.082031 645.816406 Z M 399.082031 645.816406 " fill-opacity="1" fill-rule="nonzero"/><g clip-path="url(#f2638a417e)"><path fill="#015030" d="M 265.625 386.300781 L 264.148438 675.0625 C 264.144531 675.363281 264.175781 675.664062 264.230469 675.960938 C 264.289062 676.257812 264.375 676.546875 264.488281 676.828125 C 264.601562 677.105469 264.742188 677.371094 264.910156 677.625 C 265.078125 677.875 265.265625 678.109375 265.480469 678.324219 C 265.691406 678.539062 265.921875 678.730469 266.175781 678.902344 C 266.425781 679.070312 266.6875 679.214844 266.96875 679.332031 C 267.246094 679.449219 267.535156 679.535156 267.828125 679.597656 C 268.125 679.65625 268.425781 679.6875 268.726562 679.691406 L 467.546875 680.707031 C 468.402344 680.710938 469.195312 680.496094 469.929688 680.054688 C 470.664062 679.617188 471.234375 679.023438 471.632812 678.265625 C 472.035156 677.511719 472.214844 676.707031 472.167969 675.851562 C 472.121094 675 471.855469 674.21875 471.375 673.511719 L 274.035156 383.734375 C 273.757812 383.328125 273.425781 382.976562 273.035156 382.675781 C 272.648438 382.375 272.222656 382.144531 271.757812 381.980469 C 271.292969 381.820312 270.816406 381.730469 270.328125 381.722656 C 269.835938 381.710938 269.355469 381.777344 268.886719 381.921875 C 268.414062 382.066406 267.980469 382.277344 267.578125 382.5625 C 267.175781 382.84375 266.828125 383.183594 266.535156 383.574219 C 266.242188 383.96875 266.019531 384.398438 265.863281 384.867188 C 265.707031 385.332031 265.628906 385.808594 265.625 386.300781 Z M 313.09375 508.738281 L 397.644531 632.890625 C 398.125 633.597656 398.386719 634.378906 398.433594 635.230469 C 398.480469 636.085938 398.304688 636.890625 397.902344 637.644531 C 397.5 638.402344 396.933594 638.996094 396.199219 639.4375 C 395.464844 639.875 394.667969 640.089844 393.8125 640.085938 L 308.628906 639.652344 C 308.328125 639.648438 308.027344 639.617188 307.734375 639.558594 C 307.4375 639.496094 307.148438 639.410156 306.871094 639.292969 C 306.59375 639.175781 306.328125 639.03125 306.078125 638.863281 C 305.828125 638.691406 305.59375 638.5 305.382812 638.285156 C 305.167969 638.070312 304.980469 637.835938 304.8125 637.585938 C 304.648438 637.332031 304.507812 637.066406 304.390625 636.785156 C 304.277344 636.507812 304.191406 636.21875 304.132812 635.921875 C 304.078125 635.625 304.050781 635.324219 304.050781 635.023438 L 304.683594 511.304688 C 304.6875 510.8125 304.765625 510.335938 304.921875 509.867188 C 305.078125 509.402344 305.300781 508.972656 305.59375 508.578125 C 305.886719 508.183594 306.234375 507.847656 306.636719 507.5625 C 307.039062 507.28125 307.472656 507.066406 307.941406 506.925781 C 308.414062 506.78125 308.894531 506.714844 309.382812 506.726562 C 309.875 506.734375 310.351562 506.820312 310.816406 506.984375 C 311.277344 507.148438 311.707031 507.378906 312.09375 507.679688 C 312.484375 507.976562 312.816406 508.332031 313.09375 508.738281 Z M 313.09375 508.738281 " fill-opacity="1" fill-rule="nonzero"/></g><path fill="#00bf63" d="M 295.761719 670.914062 L 295.863281 650.707031 C 295.867188 650.371094 295.929688 650.050781 296.0625 649.742188 C 296.191406 649.433594 296.375 649.160156 296.613281 648.925781 C 296.851562 648.6875 297.125 648.507812 297.433594 648.378906 C 297.746094 648.253906 298.066406 648.191406 298.402344 648.191406 C 298.738281 648.195312 299.058594 648.261719 299.367188 648.390625 C 299.675781 648.519531 299.949219 648.703125 300.183594 648.941406 C 300.421875 649.179688 300.601562 649.453125 300.726562 649.765625 C 300.855469 650.074219 300.917969 650.398438 300.914062 650.730469 L 300.8125 670.9375 C 300.8125 671.273438 300.746094 671.597656 300.613281 671.90625 C 300.484375 672.214844 300.300781 672.484375 300.0625 672.722656 C 299.824219 672.957031 299.550781 673.136719 299.242188 673.265625 C 298.929688 673.390625 298.609375 673.453125 298.273438 673.453125 C 297.9375 673.449219 297.617188 673.386719 297.308594 673.253906 C 297 673.125 296.726562 672.941406 296.492188 672.703125 C 296.253906 672.464844 296.074219 672.191406 295.949219 671.882812 C 295.820312 671.570312 295.757812 671.25 295.761719 670.914062 Z M 295.761719 670.914062 " fill-opacity="1" fill-rule="nonzero"/><path fill="#00bf63" d="M 347.859375 671.179688 L 347.960938 650.972656 C 347.964844 650.636719 348.027344 650.316406 348.160156 650.007812 C 348.289062 649.699219 348.472656 649.425781 348.710938 649.191406 C 348.949219 648.957031 349.222656 648.773438 349.53125 648.648438 C 349.84375 648.519531 350.164062 648.457031 350.5 648.460938 C 350.835938 648.460938 351.15625 648.527344 351.464844 648.65625 C 351.773438 648.789062 352.046875 648.972656 352.28125 649.210938 C 352.519531 649.449219 352.699219 649.722656 352.824219 650.03125 C 352.953125 650.34375 353.015625 650.664062 353.011719 651 L 352.910156 671.207031 C 352.910156 671.542969 352.84375 671.863281 352.710938 672.171875 C 352.582031 672.480469 352.398438 672.753906 352.160156 672.988281 C 351.921875 673.226562 351.648438 673.40625 351.339844 673.53125 C 351.027344 673.660156 350.707031 673.722656 350.371094 673.71875 C 350.035156 673.71875 349.714844 673.652344 349.40625 673.523438 C 349.097656 673.394531 348.824219 673.207031 348.589844 672.96875 C 348.351562 672.734375 348.171875 672.457031 348.046875 672.148438 C 347.917969 671.839844 347.855469 671.515625 347.859375 671.179688 Z M 347.859375 671.179688 " fill-opacity="1" fill-rule="nonzero"/><path fill="#00bf63" d="M 399.957031 671.445312 L 400.058594 651.238281 C 400.0625 650.902344 400.125 650.582031 400.257812 650.273438 C 400.386719 649.964844 400.570312 649.691406 400.808594 649.457031 C 401.046875 649.222656 401.320312 649.039062 401.628906 648.914062 C 401.941406 648.785156 402.261719 648.722656 402.597656 648.726562 C 402.933594 648.726562 403.253906 648.792969 403.5625 648.921875 C 403.871094 649.054688 404.144531 649.238281 404.378906 649.476562 C 404.617188 649.714844 404.796875 649.988281 404.921875 650.296875 C 405.050781 650.605469 405.113281 650.929688 405.109375 651.265625 L 405.007812 671.472656 C 405.007812 671.808594 404.941406 672.128906 404.8125 672.4375 C 404.679688 672.746094 404.496094 673.019531 404.257812 673.253906 C 404.019531 673.488281 403.746094 673.671875 403.4375 673.796875 C 403.125 673.925781 402.804688 673.988281 402.46875 673.984375 C 402.132812 673.984375 401.8125 673.917969 401.503906 673.789062 C 401.195312 673.660156 400.921875 673.472656 400.6875 673.234375 C 400.449219 673 400.269531 672.722656 400.144531 672.414062 C 400.015625 672.105469 399.953125 671.78125 399.957031 671.445312 Z M 399.957031 671.445312 " fill-opacity="1" fill-rule="nonzero"/><path fill="#00bf63" d="M 313.125 671 L 313.183594 659.8125 C 313.183594 659.480469 313.25 659.15625 313.378906 658.847656 C 313.511719 658.539062 313.695312 658.265625 313.933594 658.03125 C 314.171875 657.796875 314.445312 657.613281 314.753906 657.488281 C 315.066406 657.363281 315.386719 657.300781 315.722656 657.300781 C 316.058594 657.300781 316.378906 657.367188 316.6875 657.5 C 316.996094 657.628906 317.269531 657.8125 317.503906 658.050781 C 317.738281 658.289062 317.921875 658.5625 318.046875 658.871094 C 318.175781 659.183594 318.238281 659.503906 318.234375 659.839844 L 318.179688 671.027344 C 318.175781 671.363281 318.109375 671.683594 317.980469 671.992188 C 317.851562 672.300781 317.667969 672.574219 317.429688 672.808594 C 317.191406 673.042969 316.917969 673.226562 316.605469 673.351562 C 316.296875 673.480469 315.972656 673.542969 315.640625 673.539062 C 315.304688 673.539062 314.980469 673.472656 314.671875 673.34375 C 314.363281 673.210938 314.09375 673.027344 313.855469 672.789062 C 313.621094 672.550781 313.441406 672.277344 313.3125 671.96875 C 313.1875 671.65625 313.125 671.335938 313.125 671 Z M 313.125 671 " fill-opacity="1" fill-rule="nonzero"/><path fill="#00bf63" d="M 330.492188 671.089844 L 330.550781 659.90625 C 330.550781 659.570312 330.617188 659.246094 330.746094 658.9375 C 330.875 658.628906 331.058594 658.359375 331.296875 658.121094 C 331.535156 657.886719 331.808594 657.707031 332.121094 657.578125 C 332.429688 657.453125 332.753906 657.390625 333.089844 657.390625 C 333.421875 657.394531 333.746094 657.457031 334.054688 657.589844 C 334.363281 657.71875 334.632812 657.902344 334.871094 658.140625 C 335.105469 658.378906 335.285156 658.652344 335.414062 658.960938 C 335.539062 659.273438 335.601562 659.59375 335.601562 659.929688 L 335.542969 671.117188 C 335.542969 671.453125 335.476562 671.773438 335.347656 672.082031 C 335.21875 672.390625 335.03125 672.664062 334.792969 672.898438 C 334.558594 673.136719 334.28125 673.316406 333.972656 673.441406 C 333.664062 673.570312 333.339844 673.632812 333.003906 673.628906 C 332.671875 673.628906 332.347656 673.5625 332.039062 673.433594 C 331.730469 673.304688 331.457031 673.121094 331.222656 672.882812 C 330.988281 672.644531 330.804688 672.367188 330.679688 672.058594 C 330.550781 671.75 330.488281 671.425781 330.492188 671.089844 Z M 330.492188 671.089844 " fill-opacity="1" fill-rule="nonzero"/><path fill="#00bf63" d="M 365.222656 671.269531 L 365.28125 660.082031 C 365.28125 659.746094 365.347656 659.425781 365.476562 659.117188 C 365.609375 658.808594 365.792969 658.535156 366.03125 658.300781 C 366.269531 658.0625 366.542969 657.882812 366.851562 657.757812 C 367.164062 657.628906 367.484375 657.566406 367.820312 657.570312 C 368.15625 657.570312 368.476562 657.636719 368.785156 657.765625 C 369.09375 657.894531 369.367188 658.078125 369.601562 658.316406 C 369.835938 658.554688 370.019531 658.832031 370.144531 659.140625 C 370.273438 659.449219 370.335938 659.773438 370.332031 660.109375 L 370.277344 671.292969 C 370.273438 671.628906 370.207031 671.953125 370.078125 672.261719 C 369.949219 672.570312 369.765625 672.839844 369.527344 673.078125 C 369.289062 673.3125 369.015625 673.492188 368.703125 673.621094 C 368.394531 673.746094 368.070312 673.808594 367.738281 673.808594 C 367.402344 673.804688 367.078125 673.742188 366.769531 673.609375 C 366.460938 673.480469 366.191406 673.296875 365.953125 673.058594 C 365.71875 672.820312 365.539062 672.546875 365.410156 672.234375 C 365.285156 671.925781 365.222656 671.605469 365.222656 671.269531 Z M 365.222656 671.269531 " fill-opacity="1" fill-rule="nonzero"/><path fill="#00bf63" d="M 382.589844 671.355469 L 382.648438 660.171875 C 382.648438 659.835938 382.714844 659.515625 382.84375 659.207031 C 382.976562 658.894531 383.160156 658.625 383.398438 658.386719 C 383.632812 658.152344 383.910156 657.972656 384.21875 657.84375 C 384.527344 657.71875 384.851562 657.65625 385.1875 657.65625 C 385.523438 657.660156 385.84375 657.726562 386.152344 657.855469 C 386.460938 657.984375 386.734375 658.167969 386.96875 658.40625 C 387.203125 658.644531 387.386719 658.917969 387.511719 659.230469 C 387.640625 659.539062 387.703125 659.863281 387.699219 660.195312 L 387.640625 671.382812 C 387.640625 671.71875 387.574219 672.039062 387.445312 672.347656 C 387.316406 672.65625 387.132812 672.929688 386.894531 673.164062 C 386.65625 673.402344 386.382812 673.582031 386.070312 673.710938 C 385.761719 673.835938 385.4375 673.898438 385.105469 673.898438 L 385.101562 673.898438 C 384.769531 673.894531 384.445312 673.828125 384.136719 673.699219 C 383.828125 673.570312 383.558594 673.386719 383.320312 673.148438 C 383.085938 672.910156 382.90625 672.636719 382.777344 672.324219 C 382.652344 672.015625 382.589844 671.691406 382.589844 671.355469 Z M 382.589844 671.355469 " fill-opacity="1" fill-rule="nonzero"/><path fill="#00bf63" d="M 417.324219 671.535156 L 417.378906 660.347656 C 417.382812 660.011719 417.449219 659.691406 417.578125 659.382812 C 417.707031 659.074219 417.890625 658.800781 418.128906 658.566406 C 418.367188 658.332031 418.640625 658.148438 418.953125 658.023438 C 419.261719 657.894531 419.585938 657.832031 419.917969 657.835938 C 420.253906 657.835938 420.574219 657.902344 420.886719 658.03125 C 421.195312 658.164062 421.464844 658.347656 421.703125 658.585938 C 421.9375 658.824219 422.117188 659.097656 422.246094 659.40625 C 422.371094 659.71875 422.433594 660.039062 422.433594 660.375 L 422.375 671.5625 C 422.375 671.894531 422.308594 672.21875 422.175781 672.527344 C 422.046875 672.835938 421.863281 673.109375 421.625 673.34375 C 421.386719 673.578125 421.113281 673.761719 420.804688 673.886719 C 420.492188 674.011719 420.171875 674.074219 419.835938 674.074219 C 419.5 674.074219 419.179688 674.007812 418.871094 673.875 C 418.5625 673.746094 418.289062 673.5625 418.054688 673.324219 C 417.816406 673.085938 417.636719 672.8125 417.511719 672.503906 C 417.382812 672.191406 417.320312 671.871094 417.324219 671.535156 Z M 417.324219 671.535156 " fill-opacity="1" fill-rule="nonzero"/><path fill="#00bf63" d="M 434.6875 671.625 L 434.746094 660.4375 C 434.746094 660.101562 434.8125 659.78125 434.945312 659.472656 C 435.074219 659.164062 435.257812 658.890625 435.496094 658.65625 C 435.734375 658.417969 436.007812 658.238281 436.316406 658.113281 C 436.628906 657.984375 436.949219 657.921875 437.285156 657.925781 C 437.621094 657.925781 437.941406 657.992188 438.25 658.121094 C 438.558594 658.25 438.832031 658.433594 439.066406 658.671875 C 439.304688 658.910156 439.484375 659.183594 439.609375 659.496094 C 439.738281 659.804688 439.800781 660.128906 439.796875 660.464844 L 439.742188 671.648438 C 439.738281 671.984375 439.671875 672.304688 439.542969 672.617188 C 439.414062 672.925781 439.230469 673.195312 438.992188 673.433594 C 438.753906 673.667969 438.480469 673.847656 438.167969 673.976562 C 437.859375 674.101562 437.535156 674.164062 437.203125 674.164062 C 436.867188 674.160156 436.546875 674.09375 436.234375 673.964844 C 435.925781 673.835938 435.65625 673.652344 435.417969 673.414062 C 435.183594 673.175781 435.003906 672.902344 434.875 672.589844 C 434.75 672.28125 434.6875 671.957031 434.6875 671.625 Z M 434.6875 671.625 " fill-opacity="1" fill-rule="nonzero"/><path fill="#00bf63" d="M 275.203125 474.113281 L 295.222656 474.21875 C 295.554688 474.21875 295.878906 474.285156 296.1875 474.414062 C 296.496094 474.542969 296.769531 474.726562 297.003906 474.964844 C 297.238281 475.203125 297.421875 475.476562 297.546875 475.789062 C 297.671875 476.097656 297.734375 476.421875 297.734375 476.757812 C 297.734375 477.089844 297.667969 477.414062 297.539062 477.722656 C 297.40625 478.03125 297.222656 478.300781 296.984375 478.539062 C 296.746094 478.773438 296.472656 478.953125 296.164062 479.082031 C 295.851562 479.207031 295.53125 479.269531 295.195312 479.269531 L 275.179688 479.167969 C 274.84375 479.164062 274.523438 479.097656 274.214844 478.96875 C 273.902344 478.839844 273.632812 478.65625 273.394531 478.417969 C 273.160156 478.179688 272.980469 477.90625 272.851562 477.59375 C 272.726562 477.285156 272.664062 476.960938 272.664062 476.628906 C 272.667969 476.292969 272.734375 475.972656 272.863281 475.660156 C 272.992188 475.351562 273.175781 475.082031 273.414062 474.84375 C 273.652344 474.609375 273.925781 474.429688 274.238281 474.300781 C 274.546875 474.175781 274.871094 474.113281 275.203125 474.113281 Z M 275.203125 474.113281 " fill-opacity="1" fill-rule="nonzero"/><path fill="#00bf63" d="M 274.933594 527.1875 L 294.949219 527.289062 C 295.285156 527.289062 295.605469 527.355469 295.914062 527.484375 C 296.222656 527.613281 296.496094 527.800781 296.730469 528.035156 C 296.96875 528.273438 297.148438 528.550781 297.273438 528.859375 C 297.402344 529.167969 297.464844 529.492188 297.460938 529.828125 C 297.460938 530.160156 297.394531 530.484375 297.265625 530.792969 C 297.136719 531.101562 296.953125 531.375 296.714844 531.609375 C 296.476562 531.84375 296.199219 532.027344 295.890625 532.152344 C 295.582031 532.277344 295.257812 532.339844 294.921875 532.339844 L 274.90625 532.238281 C 274.570312 532.234375 274.25 532.171875 273.941406 532.039062 C 273.632812 531.910156 273.359375 531.726562 273.125 531.488281 C 272.886719 531.25 272.707031 530.976562 272.582031 530.667969 C 272.453125 530.355469 272.390625 530.035156 272.394531 529.699219 C 272.394531 529.363281 272.460938 529.042969 272.589844 528.734375 C 272.71875 528.425781 272.90625 528.152344 273.140625 527.917969 C 273.378906 527.679688 273.65625 527.5 273.964844 527.371094 C 274.273438 527.246094 274.597656 527.183594 274.933594 527.1875 Z M 274.933594 527.1875 " fill-opacity="1" fill-rule="nonzero"/><path fill="#00bf63" d="M 274.660156 580.257812 L 294.679688 580.359375 C 295.011719 580.359375 295.335938 580.425781 295.644531 580.554688 C 295.953125 580.6875 296.226562 580.871094 296.460938 581.109375 C 296.695312 581.347656 296.878906 581.621094 297.003906 581.929688 C 297.128906 582.242188 297.191406 582.5625 297.191406 582.898438 C 297.191406 583.234375 297.125 583.554688 296.992188 583.863281 C 296.863281 584.171875 296.679688 584.445312 296.441406 584.679688 C 296.203125 584.917969 295.929688 585.097656 295.621094 585.222656 C 295.308594 585.351562 294.988281 585.414062 294.652344 585.410156 L 274.636719 585.308594 C 274.300781 585.308594 273.976562 585.242188 273.667969 585.113281 C 273.359375 584.984375 273.089844 584.796875 272.851562 584.558594 C 272.617188 584.324219 272.433594 584.046875 272.308594 583.738281 C 272.183594 583.429688 272.121094 583.105469 272.121094 582.769531 C 272.125 582.433594 272.1875 582.113281 272.320312 581.804688 C 272.449219 581.496094 272.632812 581.222656 272.871094 580.988281 C 273.109375 580.753906 273.382812 580.570312 273.691406 580.445312 C 274.003906 580.316406 274.324219 580.253906 274.660156 580.257812 Z M 274.660156 580.257812 " fill-opacity="1" fill-rule="nonzero"/><path fill="#00bf63" d="M 275.113281 491.804688 L 286.175781 491.863281 C 286.511719 491.863281 286.832031 491.929688 287.144531 492.058594 C 287.453125 492.1875 287.722656 492.371094 287.960938 492.609375 C 288.195312 492.847656 288.375 493.121094 288.503906 493.433594 C 288.628906 493.742188 288.691406 494.066406 288.691406 494.402344 C 288.6875 494.734375 288.621094 495.058594 288.492188 495.367188 C 288.363281 495.675781 288.179688 495.949219 287.941406 496.183594 C 287.703125 496.417969 287.429688 496.601562 287.117188 496.726562 C 286.808594 496.851562 286.484375 496.914062 286.152344 496.914062 L 275.089844 496.855469 C 274.753906 496.855469 274.429688 496.789062 274.121094 496.660156 C 273.8125 496.53125 273.542969 496.347656 273.304688 496.109375 C 273.070312 495.871094 272.890625 495.597656 272.761719 495.285156 C 272.636719 494.976562 272.574219 494.652344 272.574219 494.316406 C 272.578125 493.984375 272.640625 493.660156 272.773438 493.351562 C 272.902344 493.042969 273.085938 492.773438 273.324219 492.535156 C 273.5625 492.300781 273.835938 492.121094 274.144531 491.992188 C 274.457031 491.867188 274.777344 491.804688 275.113281 491.804688 Z M 275.113281 491.804688 " fill-opacity="1" fill-rule="nonzero"/><path fill="#00bf63" d="M 275.023438 509.496094 L 286.085938 509.550781 C 286.421875 509.554688 286.742188 509.621094 287.050781 509.75 C 287.359375 509.878906 287.632812 510.0625 287.867188 510.300781 C 288.105469 510.539062 288.285156 510.8125 288.414062 511.125 C 288.539062 511.433594 288.601562 511.757812 288.601562 512.089844 C 288.597656 512.425781 288.53125 512.746094 288.402344 513.058594 C 288.273438 513.367188 288.089844 513.636719 287.851562 513.875 C 287.613281 514.109375 287.339844 514.289062 287.027344 514.417969 C 286.71875 514.542969 286.394531 514.605469 286.0625 514.605469 L 274.996094 514.546875 C 274.664062 514.546875 274.339844 514.480469 274.03125 514.351562 C 273.722656 514.21875 273.449219 514.035156 273.214844 513.796875 C 272.980469 513.558594 272.796875 513.285156 272.671875 512.976562 C 272.546875 512.667969 272.484375 512.34375 272.484375 512.007812 C 272.484375 511.671875 272.550781 511.351562 272.683594 511.042969 C 272.8125 510.734375 272.996094 510.460938 273.234375 510.226562 C 273.472656 509.992188 273.746094 509.808594 274.054688 509.683594 C 274.367188 509.554688 274.6875 509.492188 275.023438 509.496094 Z M 275.023438 509.496094 " fill-opacity="1" fill-rule="nonzero"/><path fill="#00bf63" d="M 274.84375 544.875 L 285.90625 544.933594 C 286.238281 544.933594 286.5625 545 286.871094 545.128906 C 287.179688 545.261719 287.453125 545.445312 287.6875 545.683594 C 287.921875 545.921875 288.105469 546.195312 288.230469 546.503906 C 288.359375 546.8125 288.421875 547.136719 288.417969 547.472656 C 288.417969 547.808594 288.351562 548.128906 288.222656 548.4375 C 288.089844 548.746094 287.90625 549.019531 287.667969 549.253906 C 287.429688 549.488281 287.15625 549.671875 286.847656 549.796875 C 286.535156 549.925781 286.214844 549.988281 285.878906 549.984375 L 274.816406 549.929688 C 274.480469 549.925781 274.160156 549.859375 273.851562 549.730469 C 273.542969 549.601562 273.269531 549.417969 273.035156 549.179688 C 272.796875 548.941406 272.617188 548.667969 272.492188 548.355469 C 272.363281 548.046875 272.300781 547.722656 272.304688 547.390625 C 272.304688 547.054688 272.371094 546.734375 272.5 546.421875 C 272.628906 546.113281 272.8125 545.84375 273.050781 545.605469 C 273.289062 545.371094 273.5625 545.191406 273.875 545.0625 C 274.183594 544.9375 274.507812 544.875 274.84375 544.875 Z M 274.84375 544.875 " fill-opacity="1" fill-rule="nonzero"/><path fill="#00bf63" d="M 275.925781 562.355469 L 286.988281 562.355469 C 287.324219 562.355469 287.644531 562.417969 287.957031 562.546875 C 288.265625 562.675781 288.539062 562.855469 288.777344 563.09375 C 289.011719 563.332031 289.195312 563.605469 289.324219 563.914062 C 289.453125 564.222656 289.515625 564.542969 289.515625 564.878906 C 289.515625 565.214844 289.453125 565.535156 289.324219 565.847656 C 289.195312 566.15625 289.011719 566.429688 288.777344 566.664062 C 288.539062 566.902344 288.265625 567.085938 287.957031 567.214844 C 287.644531 567.339844 287.324219 567.40625 286.988281 567.40625 L 275.925781 567.40625 C 275.589844 567.40625 275.269531 567.339844 274.960938 567.214844 C 274.648438 567.085938 274.375 566.902344 274.140625 566.664062 C 273.902344 566.429688 273.71875 566.15625 273.59375 565.847656 C 273.464844 565.535156 273.398438 565.214844 273.398438 564.878906 C 273.398438 564.542969 273.464844 564.222656 273.59375 563.914062 C 273.71875 563.605469 273.902344 563.332031 274.140625 563.09375 C 274.375 562.855469 274.648438 562.675781 274.960938 562.546875 C 275.269531 562.417969 275.589844 562.355469 275.925781 562.355469 Z M 275.925781 562.355469 " fill-opacity="1" fill-rule="nonzero"/><path fill="#00bf63" d="M 274.390625 633.328125 L 294.40625 633.429688 C 294.742188 633.433594 295.0625 633.496094 295.371094 633.628906 C 295.679688 633.757812 295.953125 633.941406 296.1875 634.179688 C 296.425781 634.417969 296.605469 634.691406 296.730469 635 C 296.859375 635.3125 296.921875 635.632812 296.917969 635.96875 C 296.917969 636.304688 296.851562 636.625 296.722656 636.933594 C 296.59375 637.242188 296.40625 637.515625 296.171875 637.75 C 295.933594 637.988281 295.65625 638.167969 295.347656 638.296875 C 295.039062 638.421875 294.714844 638.484375 294.378906 638.480469 L 274.363281 638.378906 C 274.027344 638.378906 273.707031 638.3125 273.398438 638.183594 C 273.089844 638.054688 272.816406 637.867188 272.582031 637.632812 C 272.34375 637.394531 272.164062 637.117188 272.039062 636.808594 C 271.910156 636.5 271.847656 636.175781 271.851562 635.839844 C 271.851562 635.507812 271.917969 635.183594 272.046875 634.875 C 272.175781 634.566406 272.359375 634.292969 272.597656 634.058594 C 272.835938 633.824219 273.113281 633.640625 273.421875 633.515625 C 273.730469 633.390625 274.054688 633.328125 274.390625 633.328125 Z M 274.390625 633.328125 " fill-opacity="1" fill-rule="nonzero"/><path fill="#00bf63" d="M 274.570312 597.949219 L 285.632812 598.003906 C 285.96875 598.007812 286.289062 598.070312 286.597656 598.203125 C 286.90625 598.332031 287.179688 598.515625 287.414062 598.753906 C 287.652344 598.992188 287.832031 599.265625 287.957031 599.574219 C 288.085938 599.886719 288.148438 600.207031 288.144531 600.542969 C 288.144531 600.878906 288.078125 601.199219 287.949219 601.507812 C 287.820312 601.816406 287.636719 602.089844 287.398438 602.324219 C 287.160156 602.5625 286.886719 602.742188 286.574219 602.867188 C 286.265625 602.996094 285.941406 603.058594 285.605469 603.054688 L 274.542969 603 C 274.210938 602.996094 273.886719 602.933594 273.578125 602.800781 C 273.269531 602.671875 272.996094 602.488281 272.761719 602.25 C 272.527344 602.011719 272.34375 601.738281 272.21875 601.429688 C 272.089844 601.117188 272.027344 600.796875 272.03125 600.460938 C 272.03125 600.125 272.097656 599.804688 272.226562 599.496094 C 272.359375 599.1875 272.542969 598.914062 272.78125 598.679688 C 273.019531 598.441406 273.292969 598.261719 273.601562 598.136719 C 273.914062 598.007812 274.234375 597.945312 274.570312 597.949219 Z M 274.570312 597.949219 " fill-opacity="1" fill-rule="nonzero"/><path fill="#00bf63" d="M 274.480469 615.636719 L 285.542969 615.695312 C 285.878906 615.695312 286.199219 615.761719 286.507812 615.890625 C 286.816406 616.019531 287.089844 616.207031 287.324219 616.445312 C 287.5625 616.679688 287.742188 616.957031 287.867188 617.265625 C 287.996094 617.574219 288.058594 617.898438 288.054688 618.234375 C 288.054688 618.566406 287.988281 618.890625 287.859375 619.199219 C 287.730469 619.507812 287.542969 619.78125 287.308594 620.015625 C 287.070312 620.25 286.792969 620.433594 286.484375 620.558594 C 286.175781 620.6875 285.851562 620.75 285.515625 620.746094 L 274.453125 620.691406 C 274.117188 620.6875 273.796875 620.621094 273.488281 620.492188 C 273.179688 620.363281 272.90625 620.179688 272.671875 619.941406 C 272.4375 619.703125 272.253906 619.429688 272.128906 619.117188 C 272 618.808594 271.9375 618.484375 271.941406 618.152344 C 271.941406 617.816406 272.007812 617.492188 272.136719 617.183594 C 272.265625 616.875 272.453125 616.605469 272.691406 616.367188 C 272.925781 616.132812 273.203125 615.953125 273.511719 615.824219 C 273.820312 615.699219 274.144531 615.636719 274.480469 615.636719 Z M 274.480469 615.636719 " fill-opacity="1" fill-rule="nonzero"/><g clip-path="url(#2a075267b5)"><path fill="#000000" d="M 401.847656 81 C 352.148438 81 311.847656 121.296875 311.847656 171 C 311.847656 220.703125 352.148438 261 401.847656 261 C 451.550781 261 491.847656 220.703125 491.847656 171 C 491.847656 121.296875 451.550781 81 401.847656 81 Z M 401.488281 209.886719 C 384.980469 209.886719 373.808594 200.761719 373.140625 186.816406 L 387.960938 186.816406 C 388.425781 193.074219 393.703125 197.015625 401.648438 197.015625 C 409.386719 197.015625 414.773438 192.660156 414.773438 186.351562 C 414.773438 179.894531 409.695312 175.890625 401.390625 175.890625 L 392.210938 175.890625 L 392.210938 164.355469 L 401.234375 164.355469 C 408.261719 164.355469 413.023438 160.253906 413.023438 154.199219 C 413.023438 148.253906 408.410156 144.457031 401.183594 144.457031 C 394.003906 144.457031 389.234375 148.507812 388.828125 154.921875 L 374.527344 154.921875 C 375.035156 140.925781 385.445312 132.105469 401.59375 132.105469 C 416.765625 132.105469 427.6875 140.40625 427.6875 152.046875 C 427.6875 160.613281 422.300781 167.273438 414.050781 168.96875 L 414.050781 169.890625 C 424.207031 171.015625 430.558594 177.789062 430.558594 187.53125 C 430.558594 200.503906 418.355469 209.886719 401.488281 209.886719 Z M 401.488281 209.886719 " fill-opacity="1" fill-rule="nonzero"/></g></svg>