<svg xmlns="http://www.w3.org/2000/svg" xmlns:xlink="http://www.w3.org/1999/xlink" width="1080" zoomAndPan="magnify" viewBox="0 0 810 809.999993" height="1080" preserveAspectRatio="xMidYMid meet" version="1.0"><defs><clipPath id="0bd9a0bd38"><path d="M 331 331.621094 L 538 331.621094 L 538 617 L 331 617 Z M 331 331.621094 " clip-rule="nonzero"/></clipPath><clipPath id="6464883487"><path d="M 331 331.621094 L 497 331.621094 L 497 601 L 331 601 Z M 331 331.621094 " clip-rule="nonzero"/></clipPath><clipPath id="c22c99079a"><path d="M 272 331.621094 L 479 331.621094 L 479 617 L 272 617 Z M 272 331.621094 " clip-rule="nonzero"/></clipPath><clipPath id="ff2feae80c"><path d="M 313 331.621094 L 479 331.621094 L 479 601 L 313 601 Z M 313 331.621094 " clip-rule="nonzero"/></clipPath><clipPath id="af35fab355"><path d="M 525 562 L 562.105469 562 L 562.105469 582 L 525 582 Z M 525 562 " clip-rule="nonzero"/></clipPath><clipPath id="dfe27c7b1f"><path d="M 247.855469 562 L 285 562 L 285 582 L 247.855469 582 Z M 247.855469 562 " clip-rule="nonzero"/></clipPath><clipPath id="75cf4c1a6c"><path d="M 311.847656 81 L 491.847656 81 L 491.847656 261 L 311.847656 261 Z M 311.847656 81 " clip-rule="nonzero"/></clipPath></defs><g clip-path="url(#0bd9a0bd38)"><path fill="#191d1c" d="M 537.238281 331.621094 L 446.121094 518.199219 L 425.511719 560.433594 L 404.996094 602.480469 L 398.160156 616.527344 L 331.714844 584.089844 L 363.875 518.199219 L 384.390625 476.152344 L 404.996094 433.921875 L 454.992188 331.621094 Z M 537.238281 331.621094 " fill-opacity="1" fill-rule="nonzero"/></g><g clip-path="url(#6464883487)"><path fill="#2f4843" d="M 496.117188 331.621094 L 425.605469 476.152344 L 404.996094 518.292969 L 384.480469 560.433594 L 364.984375 600.261719 L 331.714844 584.089844 L 363.875 518.199219 L 384.390625 476.152344 L 404.996094 433.921875 L 454.992188 331.621094 Z M 496.117188 331.621094 " fill-opacity="1" fill-rule="nonzero"/></g><g clip-path="url(#c22c99079a)"><path fill="#2f4843" d="M 478.28125 584.089844 L 411.835938 616.527344 L 404.996094 602.480469 L 384.480469 560.433594 L 363.875 518.199219 L 272.757812 331.621094 L 355.003906 331.621094 L 404.996094 433.921875 L 425.605469 476.152344 L 446.121094 518.199219 Z M 478.28125 584.089844 " fill-opacity="1" fill-rule="nonzero"/></g><g clip-path="url(#ff2feae80c)"><path fill="#191d1c" d="M 478.28125 584.089844 L 445.011719 600.261719 L 425.511719 560.433594 L 404.996094 518.292969 L 384.390625 476.152344 L 313.878906 331.621094 L 355.003906 331.621094 L 404.996094 433.921875 L 425.605469 476.152344 L 446.121094 518.199219 Z M 478.28125 584.089844 " fill-opacity="1" fill-rule="nonzero"/></g><path fill="#015030" d="M 497.410156 571.890625 C 497.410156 573.40625 497.371094 574.914062 497.296875 576.425781 C 497.222656 577.9375 497.113281 579.445312 496.964844 580.949219 C 496.816406 582.453125 496.628906 583.957031 496.410156 585.453125 C 496.1875 586.949219 495.929688 588.4375 495.632812 589.921875 C 495.339844 591.402344 495.007812 592.878906 494.640625 594.347656 C 494.273438 595.8125 493.867188 597.269531 493.429688 598.71875 C 492.992188 600.164062 492.515625 601.601562 492.007812 603.023438 C 491.496094 604.449219 490.953125 605.859375 490.375 607.257812 C 489.796875 608.652344 489.183594 610.035156 488.535156 611.402344 C 487.890625 612.769531 487.210938 614.121094 486.496094 615.453125 C 485.785156 616.789062 485.039062 618.105469 484.261719 619.402344 C 483.484375 620.699219 482.675781 621.976562 481.835938 623.234375 C 480.996094 624.492188 480.125 625.726562 479.222656 626.941406 C 478.320312 628.15625 477.390625 629.347656 476.433594 630.515625 C 475.472656 631.6875 474.484375 632.832031 473.46875 633.953125 C 472.453125 635.074219 471.410156 636.167969 470.34375 637.238281 C 469.273438 638.304688 468.179688 639.347656 467.058594 640.363281 C 465.9375 641.378906 464.792969 642.367188 463.621094 643.328125 C 462.453125 644.285156 461.261719 645.21875 460.046875 646.117188 C 458.832031 647.019531 457.597656 647.890625 456.339844 648.730469 C 455.082031 649.570312 453.804688 650.378906 452.507812 651.15625 C 451.210938 651.933594 449.894531 652.679688 448.558594 653.390625 C 447.226562 654.105469 445.875 654.785156 444.507812 655.429688 C 443.140625 656.078125 441.757812 656.691406 440.363281 657.269531 C 438.964844 657.847656 437.554688 658.390625 436.128906 658.902344 C 434.707031 659.410156 433.269531 659.886719 431.824219 660.324219 C 430.375 660.761719 428.917969 661.167969 427.453125 661.535156 C 425.984375 661.902344 424.507812 662.234375 423.027344 662.527344 C 421.542969 662.824219 420.054688 663.082031 418.558594 663.304688 C 417.0625 663.527344 415.558594 663.710938 414.054688 663.859375 C 412.550781 664.007812 411.042969 664.117188 409.53125 664.191406 C 408.019531 664.265625 406.507812 664.304688 404.996094 664.304688 C 403.484375 664.304688 401.972656 664.265625 400.460938 664.191406 C 398.953125 664.117188 397.445312 664.007812 395.9375 663.859375 C 394.433594 663.710938 392.933594 663.527344 391.4375 663.304688 C 389.941406 663.082031 388.453125 662.824219 386.96875 662.527344 C 385.484375 662.234375 384.011719 661.902344 382.542969 661.535156 C 381.074219 661.167969 379.617188 660.761719 378.171875 660.324219 C 376.722656 659.886719 375.289062 659.410156 373.863281 658.902344 C 372.441406 658.390625 371.03125 657.847656 369.632812 657.269531 C 368.234375 656.691406 366.851562 656.078125 365.484375 655.429688 C 364.117188 654.785156 362.769531 654.105469 361.433594 653.390625 C 360.101562 652.679688 358.785156 651.933594 357.488281 651.15625 C 356.191406 650.378906 354.914062 649.570312 353.65625 648.730469 C 352.398438 647.890625 351.164062 647.019531 349.949219 646.117188 C 348.734375 645.21875 347.539062 644.285156 346.371094 643.328125 C 345.203125 642.367188 344.058594 641.378906 342.9375 640.363281 C 341.816406 639.347656 340.722656 638.304688 339.652344 637.238281 C 338.582031 636.167969 337.539062 635.074219 336.523438 633.953125 C 335.507812 632.832031 334.519531 631.6875 333.5625 630.515625 C 332.601562 629.347656 331.671875 628.15625 330.769531 626.941406 C 329.871094 625.726562 329 624.492188 328.160156 623.234375 C 327.320312 621.976562 326.511719 620.699219 325.734375 619.402344 C 324.957031 618.105469 324.210938 616.789062 323.496094 615.453125 C 322.785156 614.121094 322.105469 612.769531 321.457031 611.402344 C 320.8125 610.035156 320.199219 608.652344 319.621094 607.257812 C 319.039062 605.859375 318.496094 604.449219 317.988281 603.023438 C 317.476562 601.601562 317.003906 600.164062 316.566406 598.71875 C 316.125 597.269531 315.722656 595.8125 315.355469 594.347656 C 314.988281 592.878906 314.65625 591.402344 314.359375 589.921875 C 314.066406 588.4375 313.808594 586.949219 313.585938 585.453125 C 313.363281 583.957031 313.179688 582.453125 313.03125 580.949219 C 312.882812 579.445312 312.769531 577.9375 312.695312 576.425781 C 312.621094 574.914062 312.585938 573.40625 312.585938 571.890625 C 312.585938 570.378906 312.621094 568.867188 312.695312 567.359375 C 312.769531 565.847656 312.882812 564.339844 313.03125 562.835938 C 313.179688 561.328125 313.363281 559.828125 313.585938 558.332031 C 313.808594 556.835938 314.066406 555.347656 314.359375 553.863281 C 314.65625 552.378906 314.988281 550.90625 315.355469 549.4375 C 315.722656 547.96875 316.125 546.511719 316.566406 545.066406 C 317.003906 543.617188 317.476562 542.183594 317.988281 540.757812 C 318.496094 539.335938 319.039062 537.925781 319.621094 536.527344 C 320.199219 535.128906 320.8125 533.746094 321.457031 532.378906 C 322.105469 531.011719 322.785156 529.664062 323.496094 528.328125 C 324.210938 526.996094 324.957031 525.679688 325.734375 524.382812 C 326.511719 523.085938 327.320312 521.808594 328.160156 520.550781 C 329 519.292969 329.871094 518.058594 330.769531 516.84375 C 331.671875 515.628906 332.601562 514.4375 333.5625 513.265625 C 334.519531 512.097656 335.507812 510.953125 336.523438 509.832031 C 337.539062 508.710938 338.582031 507.617188 339.652344 506.546875 C 340.722656 505.476562 341.816406 504.433594 342.9375 503.417969 C 344.058594 502.402344 345.203125 501.417969 346.371094 500.457031 C 347.539062 499.496094 348.734375 498.566406 349.949219 497.667969 C 351.164062 496.765625 352.398438 495.894531 353.65625 495.054688 C 354.914062 494.214844 356.191406 493.40625 357.488281 492.628906 C 358.785156 491.851562 360.101562 491.105469 361.433594 490.390625 C 362.769531 489.679688 364.117188 489 365.484375 488.351562 C 366.851562 487.707031 368.234375 487.09375 369.632812 486.515625 C 371.03125 485.9375 372.441406 485.390625 373.863281 484.882812 C 375.289062 484.371094 376.722656 483.898438 378.171875 483.460938 C 379.617188 483.019531 381.074219 482.617188 382.542969 482.25 C 384.011719 481.882812 385.484375 481.550781 386.96875 481.253906 C 388.453125 480.960938 389.941406 480.703125 391.4375 480.480469 C 392.933594 480.257812 394.433594 480.074219 395.9375 479.925781 C 397.445312 479.777344 398.953125 479.664062 400.460938 479.589844 C 401.972656 479.515625 403.484375 479.480469 404.996094 479.480469 C 406.507812 479.480469 408.019531 479.515625 409.53125 479.589844 C 411.042969 479.664062 412.550781 479.777344 414.054688 479.925781 C 415.558594 480.074219 417.0625 480.257812 418.558594 480.480469 C 420.054688 480.703125 421.542969 480.960938 423.027344 481.253906 C 424.507812 481.550781 425.984375 481.882812 427.453125 482.25 C 428.917969 482.617188 430.375 483.019531 431.824219 483.460938 C 433.269531 483.898438 434.707031 484.371094 436.128906 484.882812 C 437.554688 485.390625 438.964844 485.9375 440.363281 486.515625 C 441.757812 487.09375 443.140625 487.707031 444.507812 488.351562 C 445.875 489 447.226562 489.679688 448.558594 490.390625 C 449.894531 491.105469 451.210938 491.851562 452.507812 492.628906 C 453.804688 493.40625 455.082031 494.214844 456.339844 495.054688 C 457.597656 495.894531 458.832031 496.765625 460.046875 497.667969 C 461.261719 498.566406 462.453125 499.496094 463.621094 500.457031 C 464.792969 501.417969 465.9375 502.402344 467.058594 503.417969 C 468.179688 504.433594 469.273438 505.476562 470.34375 506.546875 C 471.410156 507.617188 472.453125 508.710938 473.46875 509.832031 C 474.484375 510.953125 475.472656 512.097656 476.433594 513.265625 C 477.390625 514.4375 478.320312 515.628906 479.222656 516.84375 C 480.125 518.058594 480.996094 519.292969 481.835938 520.550781 C 482.675781 521.808594 483.484375 523.085938 484.261719 524.382812 C 485.039062 525.679688 485.785156 526.996094 486.496094 528.328125 C 487.210938 529.664062 487.890625 531.011719 488.535156 532.378906 C 489.183594 533.746094 489.796875 535.128906 490.375 536.527344 C 490.953125 537.925781 491.496094 539.335938 492.007812 540.757812 C 492.515625 542.183594 492.992188 543.617188 493.429688 545.066406 C 493.867188 546.511719 494.273438 547.96875 494.640625 549.4375 C 495.007812 550.90625 495.339844 552.378906 495.632812 553.863281 C 495.929688 555.347656 496.1875 556.835938 496.410156 558.332031 C 496.628906 559.828125 496.816406 561.328125 496.964844 562.835938 C 497.113281 564.339844 497.222656 565.847656 497.296875 567.359375 C 497.371094 568.867188 497.410156 570.378906 497.410156 571.890625 Z M 497.410156 571.890625 " fill-opacity="1" fill-rule="nonzero"/><path fill="#f8f6f7" d="M 404.996094 512.101562 L 418.398438 553.410156 L 461.921875 553.410156 L 426.714844 578.914062 L 440.113281 620.316406 L 404.996094 594.71875 L 369.878906 620.316406 L 383.28125 578.914062 L 348.070312 553.410156 L 391.597656 553.410156 Z M 404.996094 512.101562 " fill-opacity="1" fill-rule="nonzero"/><path fill="#00bf63" d="M 404.996094 728.992188 C 404.390625 728.992188 403.789062 728.933594 403.195312 728.816406 C 402.597656 728.695312 402.019531 728.519531 401.460938 728.289062 C 400.898438 728.054688 400.367188 727.773438 399.863281 727.433594 C 399.359375 727.097656 398.890625 726.714844 398.460938 726.285156 C 398.035156 725.855469 397.652344 725.390625 397.3125 724.886719 C 396.976562 724.378906 396.691406 723.847656 396.460938 723.289062 C 396.226562 722.726562 396.050781 722.148438 395.933594 721.554688 C 395.816406 720.957031 395.757812 720.359375 395.757812 719.75 L 395.757812 701.269531 C 395.757812 700.660156 395.816406 700.0625 395.933594 699.464844 C 396.050781 698.871094 396.226562 698.292969 396.460938 697.730469 C 396.691406 697.171875 396.976562 696.640625 397.3125 696.132812 C 397.652344 695.628906 398.035156 695.164062 398.460938 694.734375 C 398.890625 694.304688 399.359375 693.921875 399.863281 693.585938 C 400.367188 693.246094 400.898438 692.964844 401.460938 692.730469 C 402.019531 692.5 402.597656 692.324219 403.195312 692.203125 C 403.789062 692.085938 404.390625 692.027344 404.996094 692.027344 C 405.605469 692.027344 406.203125 692.085938 406.800781 692.203125 C 407.394531 692.324219 407.972656 692.5 408.535156 692.730469 C 409.09375 692.964844 409.625 693.246094 410.132812 693.585938 C 410.636719 693.921875 411.101562 694.304688 411.53125 694.734375 C 411.960938 695.164062 412.34375 695.628906 412.679688 696.132812 C 413.019531 696.640625 413.304688 697.171875 413.535156 697.730469 C 413.765625 698.292969 413.941406 698.871094 414.0625 699.464844 C 414.179688 700.0625 414.238281 700.660156 414.238281 701.269531 L 414.238281 719.75 C 414.238281 720.359375 414.179688 720.957031 414.0625 721.554688 C 413.941406 722.148438 413.765625 722.726562 413.535156 723.289062 C 413.304688 723.847656 413.019531 724.378906 412.679688 724.886719 C 412.34375 725.390625 411.960938 725.855469 411.53125 726.285156 C 411.101562 726.714844 410.636719 727.097656 410.132812 727.433594 C 409.625 727.773438 409.09375 728.054688 408.535156 728.289062 C 407.972656 728.519531 407.394531 728.695312 406.800781 728.816406 C 406.203125 728.933594 405.605469 728.992188 404.996094 728.992188 Z M 404.996094 728.992188 " fill-opacity="1" fill-rule="nonzero"/><path fill="#00bf63" d="M 509.515625 685.652344 C 508.304688 685.644531 507.136719 685.410156 506.015625 684.949219 C 504.898438 684.484375 503.90625 683.824219 503.046875 682.972656 L 489.921875 669.941406 C 489.492188 669.511719 489.109375 669.042969 488.769531 668.535156 C 488.433594 668.027344 488.148438 667.492188 487.914062 666.929688 C 487.683594 666.367188 487.507812 665.789062 487.386719 665.191406 C 487.269531 664.59375 487.210938 663.988281 487.210938 663.382812 C 487.210938 662.773438 487.269531 662.167969 487.390625 661.570312 C 487.507812 660.976562 487.683594 660.394531 487.917969 659.832031 C 488.152344 659.269531 488.4375 658.734375 488.773438 658.230469 C 489.113281 657.722656 489.5 657.253906 489.929688 656.824219 C 490.359375 656.394531 490.828125 656.007812 491.335938 655.671875 C 491.839844 655.332031 492.375 655.046875 492.9375 654.8125 C 493.5 654.578125 494.078125 654.402344 494.675781 654.285156 C 495.273438 654.164062 495.878906 654.105469 496.488281 654.105469 C 497.09375 654.105469 497.699219 654.164062 498.296875 654.28125 C 498.894531 654.402344 499.472656 654.578125 500.035156 654.808594 C 500.597656 655.042969 501.132812 655.328125 501.640625 655.667969 C 502.148438 656.003906 502.617188 656.386719 503.046875 656.820312 L 515.890625 669.941406 C 516.304688 670.367188 516.671875 670.828125 516.996094 671.328125 C 517.320312 671.824219 517.59375 672.347656 517.8125 672.898438 C 518.035156 673.449219 518.203125 674.015625 518.316406 674.597656 C 518.429688 675.183594 518.488281 675.769531 518.488281 676.363281 C 518.488281 676.957031 518.429688 677.546875 518.316406 678.128906 C 518.203125 678.710938 518.035156 679.277344 517.8125 679.828125 C 517.59375 680.378906 517.320312 680.902344 516.996094 681.398438 C 516.671875 681.898438 516.304688 682.359375 515.890625 682.785156 C 515.058594 683.664062 514.089844 684.347656 512.984375 684.84375 C 511.882812 685.339844 510.722656 685.609375 509.515625 685.652344 Z M 509.515625 685.652344 " fill-opacity="1" fill-rule="nonzero"/><g clip-path="url(#af35fab355)"><path fill="#00bf63" d="M 552.855469 581.132812 L 534.375 581.132812 C 533.765625 581.132812 533.167969 581.074219 532.570312 580.957031 C 531.976562 580.835938 531.398438 580.660156 530.835938 580.429688 C 530.277344 580.199219 529.746094 579.914062 529.238281 579.574219 C 528.734375 579.238281 528.269531 578.855469 527.839844 578.425781 C 527.410156 577.996094 527.027344 577.53125 526.691406 577.027344 C 526.351562 576.523438 526.066406 575.988281 525.835938 575.429688 C 525.605469 574.867188 525.429688 574.289062 525.308594 573.695312 C 525.191406 573.101562 525.132812 572.5 525.132812 571.890625 C 525.132812 571.285156 525.191406 570.683594 525.308594 570.089844 C 525.429688 569.492188 525.605469 568.917969 525.835938 568.355469 C 526.066406 567.792969 526.351562 567.261719 526.691406 566.757812 C 527.027344 566.253906 527.410156 565.785156 527.839844 565.359375 C 528.269531 564.929688 528.734375 564.546875 529.238281 564.207031 C 529.746094 563.871094 530.277344 563.585938 530.835938 563.355469 C 531.398438 563.121094 531.976562 562.945312 532.570312 562.828125 C 533.167969 562.710938 533.765625 562.652344 534.375 562.652344 L 552.855469 562.652344 C 553.464844 562.652344 554.0625 562.710938 554.660156 562.828125 C 555.253906 562.945312 555.832031 563.121094 556.394531 563.355469 C 556.953125 563.585938 557.484375 563.871094 557.992188 564.207031 C 558.496094 564.546875 558.960938 564.929688 559.390625 565.359375 C 559.820312 565.785156 560.203125 566.253906 560.539062 566.757812 C 560.878906 567.261719 561.160156 567.792969 561.394531 568.355469 C 561.625 568.917969 561.800781 569.492188 561.917969 570.089844 C 562.039062 570.683594 562.097656 571.285156 562.097656 571.890625 C 562.097656 572.5 562.039062 573.101562 561.917969 573.695312 C 561.800781 574.289062 561.625 574.867188 561.394531 575.429688 C 561.160156 575.988281 560.878906 576.523438 560.539062 577.027344 C 560.203125 577.53125 559.820312 577.996094 559.390625 578.425781 C 558.960938 578.855469 558.496094 579.238281 557.992188 579.574219 C 557.484375 579.914062 556.953125 580.199219 556.394531 580.429688 C 555.832031 580.660156 555.253906 580.835938 554.660156 580.957031 C 554.0625 581.074219 553.464844 581.132812 552.855469 581.132812 Z M 552.855469 581.132812 " fill-opacity="1" fill-rule="nonzero"/></g><g clip-path="url(#dfe27c7b1f)"><path fill="#00bf63" d="M 275.621094 581.132812 L 257.136719 581.132812 C 256.53125 581.132812 255.929688 581.074219 255.335938 580.957031 C 254.742188 580.835938 254.164062 580.660156 253.601562 580.429688 C 253.042969 580.199219 252.507812 579.914062 252.003906 579.574219 C 251.5 579.238281 251.03125 578.855469 250.605469 578.425781 C 250.175781 577.996094 249.792969 577.53125 249.453125 577.027344 C 249.117188 576.523438 248.832031 575.988281 248.601562 575.429688 C 248.367188 574.867188 248.191406 574.289062 248.074219 573.695312 C 247.957031 573.101562 247.898438 572.5 247.898438 571.890625 C 247.898438 571.285156 247.957031 570.683594 248.074219 570.089844 C 248.191406 569.492188 248.367188 568.917969 248.601562 568.355469 C 248.832031 567.792969 249.117188 567.261719 249.453125 566.757812 C 249.792969 566.253906 250.175781 565.785156 250.605469 565.359375 C 251.03125 564.929688 251.5 564.546875 252.003906 564.207031 C 252.507812 563.871094 253.042969 563.585938 253.601562 563.355469 C 254.164062 563.121094 254.742188 562.945312 255.335938 562.828125 C 255.929688 562.710938 256.53125 562.652344 257.136719 562.652344 L 275.621094 562.652344 C 276.226562 562.652344 276.828125 562.710938 277.421875 562.828125 C 278.019531 562.945312 278.597656 563.121094 279.15625 563.355469 C 279.71875 563.585938 280.25 563.871094 280.753906 564.207031 C 281.257812 564.546875 281.726562 564.929688 282.15625 565.359375 C 282.585938 565.785156 282.96875 566.253906 283.304688 566.757812 C 283.640625 567.261719 283.925781 567.792969 284.160156 568.355469 C 284.390625 568.917969 284.566406 569.492188 284.683594 570.089844 C 284.800781 570.683594 284.863281 571.285156 284.863281 571.890625 C 284.863281 572.5 284.800781 573.101562 284.683594 573.695312 C 284.566406 574.289062 284.390625 574.867188 284.160156 575.429688 C 283.925781 575.988281 283.640625 576.523438 283.304688 577.027344 C 282.96875 577.53125 282.585938 577.996094 282.15625 578.425781 C 281.726562 578.855469 281.257812 579.238281 280.753906 579.574219 C 280.25 579.914062 279.71875 580.199219 279.15625 580.429688 C 278.597656 580.660156 278.019531 580.835938 277.421875 580.957031 C 276.828125 581.074219 276.226562 581.132812 275.621094 581.132812 Z M 275.621094 581.132812 " fill-opacity="1" fill-rule="nonzero"/></g><path fill="#00bf63" d="M 300.480469 685.652344 C 299.269531 685.609375 298.113281 685.339844 297.011719 684.84375 C 295.90625 684.347656 294.9375 683.664062 294.101562 682.785156 C 293.675781 682.359375 293.296875 681.890625 292.960938 681.386719 C 292.628906 680.886719 292.34375 680.355469 292.113281 679.796875 C 291.882812 679.234375 291.710938 678.660156 291.59375 678.066406 C 291.472656 677.472656 291.414062 676.875 291.414062 676.269531 C 291.414062 675.667969 291.472656 675.066406 291.59375 674.476562 C 291.710938 673.882812 291.882812 673.304688 292.113281 672.746094 C 292.34375 672.1875 292.628906 671.65625 292.960938 671.152344 C 293.296875 670.652344 293.675781 670.183594 294.101562 669.757812 L 307.132812 656.632812 C 307.5625 656.203125 308.03125 655.816406 308.539062 655.476562 C 309.046875 655.140625 309.582031 654.851562 310.144531 654.621094 C 310.707031 654.386719 311.285156 654.210938 311.882812 654.089844 C 312.484375 653.972656 313.085938 653.910156 313.695312 653.910156 C 314.304688 653.910156 314.910156 653.96875 315.507812 654.089844 C 316.105469 654.207031 316.683594 654.382812 317.25 654.617188 C 317.8125 654.851562 318.347656 655.136719 318.855469 655.472656 C 319.359375 655.8125 319.828125 656.199219 320.261719 656.628906 C 320.691406 657.058594 321.078125 657.527344 321.414062 658.035156 C 321.753906 658.542969 322.039062 659.078125 322.273438 659.640625 C 322.507812 660.203125 322.683594 660.785156 322.800781 661.382812 C 322.917969 661.980469 322.980469 662.582031 322.976562 663.195312 C 322.976562 663.804688 322.917969 664.40625 322.800781 665.003906 C 322.679688 665.601562 322.503906 666.183594 322.269531 666.746094 C 322.035156 667.308594 321.75 667.84375 321.410156 668.351562 C 321.070312 668.855469 320.6875 669.324219 320.253906 669.757812 L 306.949219 682.785156 C 306.101562 683.675781 305.121094 684.367188 304 684.863281 C 302.878906 685.359375 301.703125 685.621094 300.480469 685.652344 Z M 300.480469 685.652344 " fill-opacity="1" fill-rule="nonzero"/><g clip-path="url(#75cf4c1a6c)"><path fill="#000000" d="M 401.847656 81 C 352.148438 81 311.847656 121.296875 311.847656 171 C 311.847656 220.703125 352.148438 261 401.847656 261 C 451.550781 261 491.847656 220.703125 491.847656 171 C 491.847656 121.296875 451.550781 81 401.847656 81 Z M 401.488281 209.886719 C 384.980469 209.886719 373.808594 200.761719 373.140625 186.816406 L 387.960938 186.816406 C 388.425781 193.074219 393.703125 197.015625 401.648438 197.015625 C 409.386719 197.015625 414.773438 192.660156 414.773438 186.351562 C 414.773438 179.894531 409.695312 175.890625 401.390625 175.890625 L 392.210938 175.890625 L 392.210938 164.355469 L 401.234375 164.355469 C 408.261719 164.355469 413.023438 160.253906 413.023438 154.199219 C 413.023438 148.253906 408.410156 144.457031 401.183594 144.457031 C 394.003906 144.457031 389.234375 148.507812 388.828125 154.921875 L 374.527344 154.921875 C 375.035156 140.925781 385.445312 132.105469 401.59375 132.105469 C 416.765625 132.105469 427.6875 140.40625 427.6875 152.046875 C 427.6875 160.613281 422.300781 167.273438 414.050781 168.96875 L 414.050781 169.890625 C 424.207031 171.015625 430.558594 177.789062 430.558594 187.53125 C 430.558594 200.503906 418.355469 209.886719 401.488281 209.886719 Z M 401.488281 209.886719 " fill-opacity="1" fill-rule="nonzero"/></g></svg>